<?xml version="1.0" standalone="no"?>
<!DOCTYPE svg PUBLIC "-//W3C//DTD SVG 1.1//EN" "http://www.w3.org/Graphics/SVG/1.1/DTD/svg11.dtd" >
<svg xmlns="http://www.w3.org/2000/svg">
<metadata></metadata>
<defs>
<font id="ywft_merriamregular" horiz-adv-x="1771" >
<font-face units-per-em="2048" ascent="1442" descent="-606" />
<missing-glyph horiz-adv-x="512" />
<glyph horiz-adv-x="2048" />
<glyph horiz-adv-x="2048" />
<glyph unicode="&#xd;" horiz-adv-x="2048" />
<glyph unicode=" "  horiz-adv-x="512" />
<glyph unicode="&#x09;" horiz-adv-x="512" />
<glyph unicode="&#xa0;" horiz-adv-x="512" />
<glyph unicode="!" horiz-adv-x="630" d="M489 1253q4 -35 -4 -92q-14 -90 -16 -110q-3 -26 -16 -101q-1 -4 -2.5 -14.5t-2.5 -19t-2 -15.5q0 -3 -4.5 -20t-3.5 -29q-19 -47 -24 -90q-8 -51 -11 -113q-8 -72 -6 -102q0 -3 1 -13.5t0 -15.5t-5 -10q-13 -23 -31 -21q-6 1 -16.5 5.5t-15.5 5.5h-25q-7 0 -16 -4.5 t-13 -4.5q-8 1 -12.5 2.5t-9.5 5t-10 5.5q-19 7 -27 27t-2 40v37q-4 12 -4 58q-1 35 -14 102t-15 98q-1 15 -7 54t-7 61q-1 16 -6 51.5t-6 54.5q-2 22 -7.5 57.5t-9.5 60t-2.5 57t10.5 59.5q18 66 43 100q8 11 50 23q6 1 19.5 8.5t23.5 7.5q1 1 14.5 1t30.5 -1t20 -2 q27 -4 41 -8q6 -1 12 -5.5t9 -8t8.5 -10.5t7.5 -9q52 -52 63 -162zM408 311q42 -23 55 -53q39 -80 29 -121q-18 -83 -64 -121q-35 -24 -61 -28q-28 -7 -31 -8q-8 2 -25.5 4t-19.5 2q-63 9 -109 67q-29 39 -24 129q4 52 20 72q15 19 27 27q3 4 4.5 8t3 9t2.5 9q7 11 26.5 21 t22.5 12q8 1 24.5 4t24.5 4q4 0 12.5 -1t16 -1t12.5 2q14 -7 54 -37z" />
<glyph unicode="&#x22;" horiz-adv-x="854" d="M664 1497q33 -28 41 -39q28 -31 34 -77.5t-8 -86.5q-1 -11 -5 -32t-5 -33q-1 -16 -2 -48t-2 -48q-6 -48 -6 -93q0 -65 -13 -103.5t-53 -76.5q-1 -1 -8.5 -13t-13.5 -13q-6 0 -21 10q-6 0 -18 4q-16 6 -19 15q-1 3 -2 7q0 30 -8 41q-5 12 -7.5 28t-4 36t-2.5 29 q-2 4 -2 20q-9 9 -9 18q-38 122 -47 170q-1 9 -7 53.5t-7 69.5q0 41 2 49q1 5 0.5 19.5t1.5 19.5q8 22 26.5 43t41.5 33q46 24 84 19q16 -2 39 -21zM305 1497q37 -28 47 -39q25 -30 31 -77.5t-4 -86.5q-1 -11 -5 -32.5t-5 -32.5q-2 -16 -3.5 -48t-3.5 -48q0 -8 -2 -46.5 t-2 -46.5q0 -4 -1 -13.5t-1 -16t2 -9.5q-3 -95 -69 -161q-6 -6 -14 -15t-12 -10t-20 4q-6 1 -10 2q-8 3 -16 19.5t-10 29.5q0 30 -8 41q-5 12 -8 27.5t-4.5 36.5t-2.5 29q-2 4 -2 20l-6 18q0 2 -2 26.5t-5 43.5t-7 21q-8 3 -13.5 9.5t-9 17t-5 17t-3.5 20t-2 15.5 q-12 75 -16 123q0 33 2 49q2 6 2 19.5t2 19.5q20 48 67 76q46 24 86 19q15 -3 33 -21z" />
<glyph unicode="#" horiz-adv-x="946" d="M897 954q1 -3 -1 -9.5t-1 -10.5q-1 -2 -1 -4t-1 -4q-6 -4 -12 -29q-3 -5 -4 -12q0 -16 -5 -31q-3 -2 -5 -9t-5 -9q-1 -4 -8.5 -2t-11.5 2h-64q-21 2 -24 -21q-6 -14 -11.5 -60.5t-7.5 -54.5q0 -2 -2.5 -8t-4.5 -12t-3.5 -12t-0.5 -10t5 -5q6 -1 25.5 0t27.5 0 q5 -1 32 1.5t30 -1.5q10 -10 10 -37q-10 -17 -10 -69q0 -17 -8 -33q-1 -7 -2.5 -10t-4 -7t-4.5 -10q-4 -12 -19.5 -14t-37 1.5t-27.5 2.5h-18q-1 -1 -14 -2.5t-15 -3.5q-3 -3 -5.5 -7.5t-4.5 -6.5q0 -4 -4 -15t-4 -14q-2 -7 -5 -22t-5 -23q-18 -43 -21 -84q-5 -65 -14 -86 q-6 -12 -29 -12q-6 0 -18.5 -4t-18.5 -4q-9 0 -15 -1.5t-13 -1.5q-9 0 -18 3.5t-19 3.5q-6 0 -13 4.5t-12 5.5q-11 5 -4 33q2 16 8 36q-3 20 6 41q1 6 3.5 20.5t3.5 20.5q2 7 2.5 20.5t1.5 18.5q5 25 6 31q1 11 1 12.5t-6 4t-10 6.5h-61q-52 0 -57 -2q-7 -7 -13 -37 q-6 -17 -10 -50q-3 -14 -10 -41t-10 -40q0 -33 -2 -45q-1 -2 -2.5 -12.5t-2.5 -12.5q-1 -1 -2 -4l-1.5 -4.5t-2 -3.5t-3 -3t-3.5 -2t-4 -1q-7 -2 -18.5 -4.5t-12.5 -2.5q-12 -1 -33.5 -3.5t-37.5 -2.5q-43 0 -57 12q-5 4 -9 11q-8 13 0 33q5 9 9.5 26t5.5 21q6 30 17.5 84 t14.5 69q3 14 0.5 19.5t-14.5 5.5q-31 0 -59 -4q-27 -2 -44 8t-16 35q0 26 4 84q1 6 4.5 13t3.5 15t27 13h33q5 0 26 2t29 2q5 3 16 1t15 1q5 43 14 57q0 4 2.5 14.5t3.5 16.5q1 2 3.5 16t5 26.5t4.5 16.5q0 7 4.5 17.5t5.5 15.5q0 4 -0.5 6.5t-2 3.5t-4.5 2t-5.5 0.5 t-6.5 -0.5h-6q-5 0 -13.5 1t-15.5 1t-12 -2q-52 -9 -57 6q-13 25 -4 56q0 5 1 18.5t1.5 20.5t3 16.5t6.5 15.5q4 15 22 18.5t44.5 1t31.5 -2.5q2 0 14 -1t18.5 0t8.5 5q1 2 2 13t3 16q8 13 8 34q0 9 10 39q10 25 10 35q0 8 4.5 21.5t5.5 17.5q1 8 4.5 21.5t4.5 21.5 q2 5 6 41q1 9 7.5 13t13 3.5t15 -1.5t9.5 -1q7 0 9.5 1t8.5 1q6 2 30.5 0.5t29.5 -0.5q25 0 39 -4q6 -3 6 -30q-3 -23 -23 -80q-6 -38 -22 -82q0 -6 -2.5 -16.5t-3.5 -14.5q-5 -27 18 -27q12 -1 49 1t49 1q9 -1 15 12t10.5 33t5.5 23q2 7 2.5 21t1.5 18q1 7 5 20t5 21 q0 15 7.5 40t7.5 40q3 20 8 28q1 6 2.5 9t4 4.5t7.5 1.5q12 2 29 -2q7 -2 37 -2q48 -4 65 0q1 -1 5.5 -2.5l6 -2t4.5 -2.5t5 -5t4 -7q4 -19 0 -37q-1 -18 -7.5 -47t-7.5 -35q-3 -8 -9 -23t-9.5 -27t-3.5 -23q1 -14 -3.5 -41t-2.5 -41q3 -6 40.5 -7.5t43.5 1.5q8 3 28 0 q2 0 5 -1q15 -1 18 -9q1 -2 2 -5zM389 657q-10 -13 -6 -30q18 -3 41 2q20 -4 54.5 -4.5t49.5 8.5l33 174q7 32 6 35q-4 2 -17.5 1.5t-17.5 0.5q-1 0 -46.5 -1.5t-55.5 -0.5q-3 -2 -3.5 -11t-2.5 -12q-6 -5 -14 -31q-3 -9 -10 -64.5t-11 -66.5z" />
<glyph unicode="$" horiz-adv-x="1232" d="M657 1444q4 -5 7 -40.5t8 -37.5q16 -4 28 -4q14 -2 41 -2q7 -1 23.5 -3.5t19.5 -2.5q63 -11 125 -43q1 0 35 -29q14 -5 17 -14q8 -8 12 -8q6 -4 10 -8.5t8.5 -11.5t7.5 -11q47 -50 56 -127q3 -52 -27 -98q-2 -2 -9 -10.5t-12.5 -14t-9.5 -6.5q-8 -1 -24.5 -13.5 t-22.5 -11.5q-3 1 -23 -7t-28 -1q-5 4 -13.5 4t-18 -2t-11.5 -2q-12 0 -20 8q-8 3 -26 10.5t-26 10.5q-9 5 -16.5 19t-9.5 16q-5 5 -7 17.5t-2 26.5t-1 17q0 2 -0.5 12t-0.5 15.5t2 13t5 10.5q20 24 51 33q32 8 14 41q-15 27 -39 32q-2 1 -4 1q-6 0 -28 3t-23 7q0 2 -6 -0.5 t-12 -4.5t-9 1q-14 8 -25.5 0t-8.5 -25q-3 -11 -3.5 -30.5t5.5 -30.5v-45q3 -1 1.5 -34t-1.5 -36q0 -52 -4 -72q0 -45 4 -49q2 -2 3.5 -7t4.5 -7q15 -7 28 -10q20 -4 33 -4q37 -15 39 -15q2 -4 26.5 -5t26.5 -5q1 -2 19 -8t20 -8q52 -21 64 -33q8 -7 23.5 -19t19.5 -16 l12 -7q12 -7 20 -12.5t7 -9.5q-1 -6 17 -21.5t18 -21.5q0 -1 3.5 -7t6.5 -11.5t2 -5.5q1 0 -1 -12t-1.5 -24t8.5 -13q4 -1 9.5 3.5t9 8.5t7.5 2.5t5 -12.5q0 -4 6 -52q13 -75 6 -106q-2 -8 -6.5 -32.5t-9.5 -37.5q-3 -8 -11 -21t-10 -20q-2 -8 -6.5 -16.5t-8 -14t-11 -14.5 t-10.5 -12l-13 -13l-12 -12q-33 -31 -86 -61q-20 -13 -41 -25q-9 -5 -40 -9.5t-46 -14.5q-1 -1 -10.5 -2.5l-19 -3t-9.5 -2.5q-60 -2 -62 -4q-14 0 -24 -7q-4 -4 -5.5 -9t-1.5 -9t0.5 -13t0.5 -14l-4 -22q-3 -22 -3 -27.5t3 -21.5q6 -16 -11 -33q-36 -29 -106 12 q-15 31 2 101q3 14 -5.5 24t-27 14.5t-35 6.5t-37.5 2.5t-26 1.5q-12 4 -45 10q-5 1 -26.5 9t-31.5 9q-18 0 -75 43q-3 4 -9.5 10.5t-13.5 12t-8 6.5q-2 2 -23 16q-10 10 -24 33q-11 22 -13 27q-5 7 -7 23.5t-7 21.5q-6 12 -6 37q0 3 -6 51q0 9 5 35.5t9 30.5q5 6 18 25.5 t21 27.5q21 16 63 28.5t62 1.5q3 -2 20.5 -6.5t32.5 -9t15 -6.5q2 -4 7.5 -8t12.5 -7.5t10 -5.5q22 -16 27 -18q9 -5 18 -33t9 -41q0 -21 -13.5 -45t-34.5 -37q-4 -3 -16 -4.5t-16 -3.5q-16 -9 10 -35q4 -3 21.5 -21.5t33.5 -25.5q10 -4 27.5 -14.5t23.5 -13.5q45 -17 54 4 q3 10 -0.5 31t-1.5 32q11 74 6 115q-2 13 -3.5 50.5t-4.5 53.5q-2 7 -4.5 29.5t-10.5 30.5t-30 8q-13 1 -27 13t-23 16q-4 -1 -10.5 -2.5t-9.5 -2t-8.5 -1t-10.5 1t-12 4.5q-18 5 -31 18q-51 25 -53 27q-22 11 -22 12q-1 1 -4.5 6t-4.5 6q-2 2 -15 11.5t-15 15.5 q-33 33 -35 33q-10 3 -20 30.5t-13 30.5q-10 7 -14 37q-1 5 -5 26.5t-7 30.5q-4 6 -3 22.5t-2 24.5q-3 10 -0.5 34t5.5 32q3 7 7.5 24.5t6.5 24.5q0 2 3.5 10t4.5 8q-2 1 -0.5 7t4 13.5t2.5 8.5q0 3 9 18.5t12 16.5q3 3 12 15.5t16 19.5q14 5 21 18q8 11 31.5 25t31.5 22 q5 7 17.5 16t19.5 9q6 0 26.5 9.5t20.5 12.5l19 9q10 5 36 4.5t33 5.5q5 4 24 4t26 6q3 3 9 36.5t7 37.5q3 0 9 1t7 1q6 2 29 2q43 0 61 -4zM518 1225q-4 -1 -24.5 -4t-24.5 -4q-4 0 -8.5 -8t-9.5 -9q-12 -6 -37 -31q-1 -2 -6.5 -11.5t-10 -17t-6.5 -7.5q-5 -1 -10.5 -18.5 t-5.5 -24.5q0 -5 -1.5 -13.5t-1.5 -16t3 -13.5q12 -36 28 -52q2 -2 4 -5.5t5 -8t4 -6.5l22 -14q22 -14 23 -21q8 -25 37 -14q6 2 19 -2.5t20 -1.5q4 7 5 14.5t0 19.5t-1 15q-2 13 -2 98q0 65 -4 78q-5 10 0 29.5t2.5 36t-19.5 12.5zM668 598q-4 -4 -4 -12t2 -20t2 -17 q0 -4 -1 -30.5t-1 -29.5v-96q0 -4 1 -19t1 -28.5t-2 -23.5q0 -2 -0.5 -10t0 -12t1.5 -10.5t3.5 -9.5t7.5 -4q8 -1 16.5 1t21.5 7.5t17 6.5q14 2 53 41q2 2 8 7t9.5 9.5t5.5 9.5l7 8q8 9 15 16.5t9 8.5q0 7 2 23t2 24q0 4 -1.5 14t-0.5 15q0 8 -8 20q-17 34 -23 35 q-4 2 -8 13q-1 1 -9 4.5t-10 7.5q-14 7 -34 22q-5 8 -19.5 13t-34 8.5t-28.5 7.5z" />
<glyph unicode="%" horiz-adv-x="1587" d="M1397 1454q3 -12 -2.5 -23.5t-18.5 -26t-16 -18.5q-19 -27 -70 -96q-12 -18 -35 -51t-26 -37q-5 -8 -14.5 -23t-15.5 -25t-15.5 -22.5t-18.5 -21.5q-4 -6 -13 -21t-15 -22q-6 -10 -18 -28t-15 -23q-9 -14 -27.5 -40.5t-27.5 -41.5q-22 -34 -69.5 -98t-53.5 -72 q-20 -28 -123 -176q-21 -31 -62 -96t-63 -97q-46 -63 -103 -155q-8 -13 -28 -39.5t-29 -42.5q-2 -3 -47 -68q-2 -3 -12 -17t-15 -22q-2 -3 -14.5 -20.5t-17.5 -28.5q-6 -1 -16.5 -5t-15.5 -5t-18 0q-27 6 -57 6q-4 1 -15 3.5t-16.5 3t-15.5 -0.5q-28 -9 -49 2 q-12 8 -15.5 15.5t1 14t10 11.5t16 12t15.5 11q17 12 34 30.5t27 32.5t28 40t25 36q103 137 121 166q14 21 52.5 72.5t56.5 82.5q6 12 15 24t20.5 27t17.5 23q4 6 25.5 40.5t33.5 51.5q12 15 32.5 45.5t31.5 46.5q12 14 29 46.5t28 46.5q18 21 29 41q3 3 9.5 15t12.5 17 q4 8 15 22.5t12 16.5q26 42 33 51q11 16 28.5 45t32.5 52.5t31 42.5q10 11 18 24.5t16 30t13 25.5q11 16 31.5 50t31.5 50l18 24t21.5 29t16.5 25q2 4 8 11t8 11q2 2 3 4t5 7q7 7 27 10q8 0 17 -1t19.5 -2.5t16.5 -2.5q28 -6 47 0q13 5 37 -3.5t27 -21.5zM702 1311 q2 -5 9.5 -18t11.5 -22.5t6 -19.5q12 -20 14 -34q3 -11 9 -27.5t9.5 -30.5t4.5 -29q1 -12 -6 -49q-2 -10 -5 -33t-7 -36q-16 -32 -17 -35t-6.5 -14t-5.5 -15t-3.5 -9.5t-9 -11t-6.5 -7.5q-2 -2 -10.5 -15.5t-15.5 -19.5q-2 -3 -8 -11t-11.5 -15t-11.5 -11q-30 -22 -49 -31 q-18 -15 -39 -24q-3 -1 -10 -4t-10 -3q-36 -5 -46 -8q-30 -15 -63 -18q-8 0 -22 2t-19 2q-33 0 -45 4q-3 0 -9.5 2t-14.5 4.5t-11 3.5q-12 2 -41 10q-8 3 -23.5 12t-21.5 11q-12 5 -23.5 13.5t-26.5 21.5t-19 16q-13 13 -13 17q-3 4 -13 11.5t-11 10.5q0 3 -7 14l-6 11 q-24 24 -24 32q1 4 -2.5 12t-7.5 16.5t-5 10.5q-5 8 -8 25t-2 27q1 12 -2.5 41t-1.5 45q0 41 6 47q1 0 3.5 6t2.5 8q5 25 11 35q5 3 9.5 14.5t6.5 14.5q4 4 6 9t4.5 12.5l3.5 10.5q2 6 12 15t13 12q12 12 12 16q0 3 8.5 9t10.5 8q1 1 7.5 9.5t12.5 14t10 4.5q27 23 29 27 q4 6 25 10q22 21 26 17q3 0 14 4.5t11 5.5q3 5 26.5 6t26.5 2q5 5 41.5 3t44.5 -1q12 0 32 -1t30 -1q9 -1 28.5 -10t24.5 -10q53 -18 69 -37q18 -21 41 -37q5 -5 23 -21t24 -26zM496 911q6 13 26.5 31t24.5 35q0 6 6 26.5t8 20.5q1 1 5.5 25t4.5 30q8 60 -8.5 120t-56.5 93 q-54 34 -98 31q-13 0 -19 -4q-4 -1 -19.5 -1.5t-23.5 -2.5q-3 -1 -7 -3l-8 -4t-5 -3q-9 -6 -21 -15q-15 -10 -20 -18q-7 -5 -16 -16.5t-9 -18.5l-6 -20q-6 -25 -6 -29q-30 -99 -2 -189q1 -1 4.5 -12.5t7.5 -21.5t6 -11q1 0 10 -14q3 -3 8.5 -8t8.5 -8q4 -5 13 -10.5t11 -6.5 q6 -4 31 -10q58 -11 80 -6q20 4 35 10q29 0 35 10zM885 121q-3 5 -10 17.5t-11 22t-6 19.5q-12 20 -14 35q-3 11 -9 27.5t-9.5 30t-4.5 28.5q-1 12 6 49q2 10 5.5 33.5t7.5 36.5q13 26 16 35q1 3 6.5 13.5t5.5 14.5t3.5 10t9 11.5t6.5 7.5t10 15.5t16 19.5q2 3 8 11t11.5 15 t11.5 11q26 18 49 30q20 17 39 25q2 1 10 3.5t11 2.5q6 1 45 12q30 12 63 15q7 0 22 -2t19 -2q33 0 45 -4q3 0 18 -5t17 -6q12 -2 41 -10q8 -3 23.5 -11.5t21.5 -10.5q12 -5 24 -13.5t27 -22t19 -16.5q12 -12 12 -16q3 -4 13.5 -12t11.5 -11q0 -4 6 -14l6 -10q24 -24 24 -33 q-1 -4 2.5 -12t7.5 -16.5t5 -10.5q14 -23 10 -51q-1 -12 2.5 -41t1.5 -45q0 -41 -6 -47q-1 0 -3.5 -6t-2.5 -8q-5 -28 -10 -35q-5 -3 -10 -14.5t-7 -14.5q-4 -4 -6 -9.5t-4.5 -13l-3.5 -10.5q-2 -6 -12 -14t-13 -12q-12 -12 -12 -17q0 -3 -8 -8.5t-10 -7.5q-1 -1 -7.5 -10 t-13 -14.5t-10.5 -4.5q-27 -22 -29 -26q-5 -7 -24 -11q-5 -5 -15.5 -11t-11.5 -5q-3 0 -14 -4.5t-11 -5.5q-3 -5 -26.5 -6t-26.5 -2q-4 -5 -41.5 -3.5t-44.5 0.5q-12 0 -31.5 1.5t-29.5 1.5q-9 1 -29 10t-25 10q-53 18 -69 37q-18 21 -41 37q-5 5 -23 21t-24 26zM1092 520 q-6 -13 -27 -30.5t-25 -34.5q0 -6 -6 -26.5t-8 -20.5q-1 -1 -5.5 -25.5t-4.5 -30.5q-8 -60 8.5 -120t56.5 -93q53 -33 99 -30q12 0 18 4q4 1 19.5 1.5t23.5 2.5q3 1 21 10q12 8 20 14q16 11 21 19q7 5 15.5 16.5t8.5 18.5l6 20q6 25 6 29q30 99 2 188q-1 1 -4.5 12.5 t-7.5 21.5t-6 11q-2 0 -3.5 2.5t-3.5 6.5l-3 6q-3 3 -8.5 8t-8.5 8q-3 5 -12.5 9.5t-11.5 6.5q-9 6 -31 11q-58 11 -80 6q-15 -3 -35 -11q-28 0 -34 -10z" />
<glyph unicode="&#x26;" horiz-adv-x="1779" d="M717 932q4 2 24 6.5t36.5 12t17.5 18.5q0 6 14 20t16 17q3 7 25 43.5t22 56.5q0 34 -22.5 64t-52.5 47q-19 12 -54 10.5t-49 -13.5q-14 -16 -30 -36q-15 -11 -28 -70.5t-1 -69.5q5 -5 19 -35t18 -42q4 -14 18 -26t27 -3zM723 201q40 24 45 26q17 7 37 27q3 4 3.5 9 t-0.5 8t-3.5 9.5t-3.5 8.5q-1 3 -11 12t-10 12q1 9 -16 30.5t-19 29.5q-1 7 -9.5 16.5t-14.5 13.5q-11 10 -21 25t-22 38t-21 36q-6 12 -24 31.5t-23 29.5q-1 2 -6.5 7.5t-9 10t-2.5 7.5q0 2 -5.5 11t-6.5 9q-2 2 -5 7t-4 6q-12 9 -31 6t-38 -15q-34 -17 -39 -22 q-2 -2 -5 -6t-5 -6q-19 -29 -27 -29q-17 3 -35 -26.5t-18 -43.5q0 -10 -1.5 -28t-1.5 -32.5t3 -27.5q3 -20 15 -49t22 -39q6 -5 10.5 -26.5t9.5 -26.5q11 -10 43.5 -24.5t44.5 -28.5q9 -11 19 -14t20 -1.5t25 -1.5q52 -10 73 -4q19 3 68 25zM981 922q-39 -56 -66 -64 q-35 -10 -41 -37q-2 -7 -5 -12t-5.5 -6.5t-8.5 -5.5l-9 -6q-13 -9 -27 -20.5t-22 -18.5t-9 -7q4 -6 28 -45t28 -45q3 -3 5.5 -12.5t4.5 -11.5q18 -12 18 -13q2 -3 9.5 -11t9.5 -11q17 -20 24 -37q1 -1 6 -11t10 -17.5t9 -8.5q2 0 7 -6t11 -13.5t7 -8.5q1 -3 9.5 -11.5 t15 -16.5t5.5 -11q0 -4 13.5 -22t13.5 -23q1 -14 22 4q23 20 31 22q1 13 22.5 35.5t24.5 28.5q4 10 19 30.5t18 36.5q2 9 9 33t10 37q4 14 0 22.5t-16 11t-21.5 2.5t-27 -2.5t-21.5 -2.5q-63 0 -68 12q-3 7 -9 19t-7.5 16.5t-4 18t2.5 22.5q3 17 -2 73q0 17 12 19q24 4 33 4 q73 0 94 2q38 8 71 2q57 -14 64 -2q3 4 11.5 4.5t20.5 -1t13 -1.5q13 -2 44 -0.5t44 -1.5q14 -4 68 0t67 4q56 6 68 -10q21 -35 20 -41q9 -17 11 -21q9 -15 0 -30q-17 -24 -17 -64q0 -9 -5 -15t-16.5 -8.5t-18 -3t-21.5 0.5h-15q-11 0 -33.5 2t-35.5 2q-13 1 -38 -1t-36 -1 q-12 0 -23.5 -22t-11.5 -34q0 -15 -13.5 -38.5t-14.5 -34.5q0 -4 -6 -19t-12.5 -28.5t-8.5 -12.5q-3 0 -18 -29t-15 -34q0 -6 -11.5 -20.5t-10.5 -18.5q0 -4 -7.5 -11.5t-16.5 -16t-11 -11.5q-1 -1 -9 -10.5t-15 -18.5t-15.5 -21.5t-8.5 -19t5 -10.5q3 -1 18.5 -18t26.5 -17 q10 1 33 -5.5t30 -6.5q19 1 39 14.5t42 34.5t34 29q9 6 17.5 18.5t17 27t12.5 19.5q2 3 5.5 21t6.5 24q15 27 15 43q2 6 5 23.5t6.5 28.5t8.5 20q21 9 41 12q13 4 49 4q4 0 13.5 -5t13.5 -5q8 0 19.5 -13.5t15.5 -14.5q10 -1 19 -9.5t12 -17.5q-2 -5 -4.5 -25t-8.5 -26 q-1 -2 -4 -9t-8 -12q-3 -3 -3.5 -5.5t0 -5.5t-0.5 -9q-5 -25 -31 -88l-9 -17q-9 -17 -9 -24q-4 -34 -58 -103q-5 -6 -15.5 -20t-16 -21t-16.5 -17.5t-23 -19.5q-3 -2 -43 -26q-3 -1 -12 -4.5t-16 -6.5t-9 -6l-17 -6q-18 -6 -18 -10q1 -3 -16 -5t-40 -3t-40 -1.5t-23 -0.5 q-13 -1 -38 3t-36 3q-6 0 -21 5.5t-22 4.5q-2 0 -8.5 3t-14 6t-9.5 4q-27 18 -39 18q-5 0 -22 10.5t-19 11.5q-6 3 -21 16t-22 15q-4 3 -14.5 -2.5t-22.5 -14t-16 -9.5q-6 -1 -18.5 -7.5t-18.5 -7.5q-7 -1 -32 -12.5t-36 -11.5q-7 -1 -16.5 -3.5t-19.5 -6.5t-15 -5 q-50 -9 -68 -16q-3 -1 -11 -3t-11 -3q-6 -3 -22.5 -2.5t-22.5 -3.5q-5 -4 -20 -4.5t-35 1t-23 1.5q-46 0 -70 8q-6 2 -15.5 6t-17.5 6t-20 2q-13 0 -23 3t-22.5 10t-20.5 10q-52 19 -57 22q-59 21 -69 51q-1 4 -21 20.5t-25 18.5q-7 2 -18 23t-12 22q-15 16 -22 34t-13 42 t-12 39q-27 68 -13 168q11 86 21 90q8 2 14.5 22t9.5 23q7 8 17.5 26t17.5 25q7 6 23 21.5t27.5 26t25.5 20.5q5 4 9.5 6.5t11 4.5t12.5 5q7 4 15 12.5t15 12.5q17 10 63 28.5t58 24.5q17 5 17.5 20.5t-6.5 32.5q-2 9 -9.5 26t-9.5 24q-3 16 -12 39.5t-12 39.5q-4 27 -9 107 q0 17 4 44t13 30q3 1 8.5 19t5.5 24q0 5 9 20.5t12 18.5q27 27 30 36q2 5 7 11.5t14 14.5l10 9q5 5 20 17.5t19 17.5q58 47 146 55.5t161 -24.5q15 -6 22.5 -13.5t14.5 -25.5q1 -2 15.5 -26.5t21.5 -35.5q9 -11 21.5 -27.5t17.5 -23.5q8 -12 21.5 -35.5t25.5 -40.5t26 -30 q10 -10 14.5 -24t4 -23.5t-3 -28t-2.5 -25.5q0 -8 -4.5 -22.5t-5.5 -18.5q0 -4 -3.5 -10t-8.5 -13t-7 -11q-1 -2 -22.5 -20.5t-24.5 -22.5z" />
<glyph unicode="'" horiz-adv-x="493" d="M301 1503q5 -5 20.5 -17t22.5 -20q56 -59 27 -157q-1 -11 -5.5 -30.5t-5.5 -31.5q-1 -16 -2 -47t-2 -45q-6 -48 -6 -76q0 -4 -1 -13.5t-1 -15.5t2 -8q16 -9 -12 -62v-3q-14 -15 -29.5 -40t-19.5 -30q-6 -6 -19 -11.5t-27.5 -7t-26 6t-13.5 23.5q0 20 -4 36q-5 16 -7.5 49 t-3.5 39q-2 4 -2 21q-8 8 -8 18q-1 4 -3.5 22.5t-5.5 34t-7 17.5q-9 3 -15.5 14t-8.5 18t-4.5 25t-2.5 19q-14 66 -16 119q0 37 2 45q1 5 0.5 19.5t1.5 19.5q22 46 71 71q32 25 78 19q22 -3 33 -21z" />
<glyph unicode="(" horiz-adv-x="913" d="M45 668q1 3 2 15.5t3 22.5t5 13q6 12 6 61q0 8 4 27t3 22q0 11 6.5 33t13.5 25q3 1 6 14.5t5.5 28.5t4.5 18q1 3 10 14.5t9 18.5q0 3 10 21.5t12 25.5q1 4 10.5 19.5t8.5 19.5q-2 11 45 70q12 12 37 40t39 42q4 3 7 10.5t7 9.5q30 24 37 31q28 28 47 28q7 0 25 16.5 t26 18.5q20 6 68 30t80 28q34 4 106 26q27 9 109 4q23 3 37.5 1.5t25.5 -13.5q0 -5 3.5 -17t2.5 -20v-49q2 -13 -0.5 -18.5t-1.5 -16.5q1 -12 -1 -19t-9.5 -9t-12 -2.5t-18 1t-16.5 1.5q-9 -1 -23 2.5t-35.5 -1t-60.5 -22.5q-8 -5 -39 -12.5t-43 -7.5q-8 0 -44.5 -29 t-39.5 -29q-4 0 -26 -19.5t-27 -27.5q-3 -5 -25 -41q-57 -94 -73 -199q-59 -298 10 -575q8 -40 18 -55q17 -13 21 -35q1 -7 4.5 -15t7 -13.5t11 -14t10.5 -12t12 -12t10 -9.5q9 -9 54 -47t53 -41q16 -12 30.5 -19.5t32 -11.5t28.5 -5.5t36.5 -3t40.5 -3.5q15 2 30.5 2.5 t34 -1.5t29.5 -9.5t10 -20.5q-1 -10 1.5 -25.5t0.5 -31.5v-29q1 -7 -3.5 -24.5t-4.5 -22.5q-8 -11 -49 -12t-64 6q-13 0 -53 7t-53 7q-26 2 -57 11.5t-70.5 26t-57.5 22.5q-21 7 -51 22q-3 4 -14 12t-12 11q-2 5 -24 16t-24 13q-10 11 -34.5 30t-34.5 33q-11 14 -27 41 q-7 8 -16 23t-14 20q-4 5 -17 19t-18 20q-6 4 -9.5 15.5t-5.5 13.5q-20 20 -20 65q0 14 -21 42.5t-24 35.5q-4 11 -5.5 23t-2.5 27.5t-2 25.5q-1 1 -3.5 5t-4.5 7.5t-1 5.5q1 9 -2 33.5t-6 30.5q-9 26 -4 88q1 15 -0.5 44t-1.5 38z" />
<glyph unicode=")" horiz-adv-x="913" d="M868 598q-1 -3 -2 -15.5t-3 -22.5t-5 -13q-6 -12 -6 -62q0 -8 -3.5 -27t-2.5 -22q0 -11 -7 -32.5t-14 -24.5q-3 -1 -6 -14.5t-5.5 -29t-4.5 -18.5q-1 -3 -9.5 -14t-8.5 -18q0 -3 -10.5 -21.5t-12.5 -25.5q-1 -4 -10 -19.5t-8 -19.5q2 -11 -45 -70q-12 -12 -37 -40 t-39 -42q-4 -3 -7.5 -10.5t-7.5 -9.5q-25 -20 -36 -31q-29 -29 -48 -29q-7 0 -25 -16.5t-26 -18.5q-20 -6 -67.5 -29t-79.5 -28q-30 -4 -107 -27q-27 -9 -108 -4q-24 -3 -38.5 -1t-25.5 14q0 5 -3.5 17t-2.5 20v49q-2 13 0.5 18t1.5 16q-1 10 1 16.5t5 9.5t10.5 4.5t11.5 1 t14.5 -1.5t14.5 -1q9 1 23 -2.5t35.5 1t60.5 22.5q8 5 39 12.5t43 7.5q8 0 44.5 28.5t39.5 28.5q4 0 26 20t27 28q2 5 25 41q59 97 74 198q59 296 -11 576q-8 40 -18 55q-16 12 -20 35q-1 8 -5 16.5t-12 18.5t-12 14.5t-15 15.5l-12 11q-9 9 -53.5 47t-52.5 41 q-16 12 -30.5 19.5t-32 11.5t-28.5 5.5t-36.5 3t-40.5 3.5q-24 -7 -66 -1.5t-39 29.5q1 10 -1.5 26t-0.5 32v28q-1 7 4 24.5t5 22.5q8 11 48.5 12.5t63.5 -5.5q12 0 53 -7.5t54 -7.5q26 -2 57 -11.5t70.5 -25.5t56.5 -22q15 -5 51 -23q3 -4 14.5 -11.5t12.5 -10.5 q2 -5 23.5 -16t23.5 -13q10 -11 35 -30t35 -33q8 -10 26 -41q8 -8 17.5 -23t13.5 -20t17 -19t18 -20q6 -4 9 -15.5t5 -13.5q21 -21 21 -65q0 -14 21 -42.5t24 -35.5q4 -11 5.5 -23t2.5 -27.5t2 -25.5q9 -18 8 -19q-1 -9 2 -33t6 -30q9 -26 4 -88q-1 -15 0.5 -44t1.5 -38z " />
<glyph unicode="*" horiz-adv-x="733" d="M418 1014q2 -1 5.5 2t7.5 8.5t7.5 11t6.5 11t4 6.5q2 4 7 11t7 11q2 3 26 27q36 31 64 22q2 -1 14.5 -4.5t18.5 -7.5q19 -9 32 -20q11 -9 18.5 -25.5t4.5 -28.5q-2 -8 -12 -18q-13 -19 -25 -29q-16 -12 -26 -18q-3 -3 -31 -17q-23 -9 -31 -14q-1 -1 -7.5 -2.5t-11 -4 t-1.5 -5.5q3 -5 18 -12q7 -2 18 -8t15 -7q5 -4 14.5 -7.5t11.5 -4.5q3 -2 12.5 -6t12.5 -8q25 -25 25 -54q-2 -25 -39 -45q-26 -14 -54 0q-3 2 -11.5 4t-12.5 4q-5 2 -29 21l-22 22t-25 23q-9 5 -9 -3q0 -3 3 -15q5 -37 6 -39q19 -76 -14 -109q-16 -16 -37 -24q-29 -7 -47 6 q-19 11 -23 24q-14 26 -12 53q0 28 6 52q0 2 4.5 20.5t3.5 26.5q-12 0 -35 -23q-29 -25 -45 -33q-10 -4 -41 -22q-22 -11 -69 20q-31 31 -31 60q0 10 16 26q4 4 9 8.5t11 11t9 9.5q7 5 33 14l14 5q13 4 19 4q8 0 28 4q28 4 41 4q2 1 8 1.5t10.5 2t6.5 4.5q0 3 -4 5t-10 4.5 t-7 2.5q-65 28 -67 29q-11 4 -34.5 6.5t-33.5 5.5q-31 9 -43 45q-13 30 6 56q9 12 21 24q5 5 31 10q60 -8 108 -53q5 -4 18.5 -18.5t22.5 -20.5q7 -4 7 4q0 3 -2 12q-1 6 -1 7q-3 18 -6 39q-1 7 -6 31t-4 38q0 34 31 58q6 4 11 6t12.5 1.5t10 -1t13 -3t12.5 -3.5 q28 -5 45 -47q8 -24 -2 -84q-1 -3 -2 -9t-2 -8q0 -14 2 -22q0 -7 -2 -20.5t-2 -20.5z" />
<glyph unicode="+" horiz-adv-x="870" d="M502 1006q3 -4 3.5 -9t-0.5 -12t-1 -10q-2 -10 -2 -35q0 -24 4 -70q4 -44 12 -61q4 -12 21 -12h4q7 0 22.5 1t22.5 1q23 0 35 2q3 0 13.5 -1.5t16.5 -0.5t18 1t17 1q3 0 8.5 -1t8.5 -1q3 -1 9.5 0.5t8.5 1.5q4 -1 12.5 -4.5t14.5 -3.5q11 0 20 -13q4 -7 4 -35v-45 q0 -9 2.5 -31.5t1.5 -35.5q0 -15 -18 -12q-6 0 -6 -9q0 -2 -2 -5t-2 -5q-8 -10 -25 -6q-5 2 -31 2q-6 0 -17.5 -1t-17.5 -1q-7 -1 -18 0.5t-14 1.5q-12 -1 -70 -6q-49 0 -49 -17q-1 -10 4 -67q1 -13 2 -40t2 -40q0 -19 2 -22q2 -2 2.5 -13.5t1.5 -13.5q0 -7 0.5 -13.5 t0.5 -10v-6.5t-1 -7h-86q-2 0 -9 1t-11 0t-8 -5q-6 1 -16.5 -0.5t-12.5 -1.5q-4 0 -11.5 -3t-12.5 -2t-9 9q-5 15 -10 35q-7 31 -4 61q0 24 -4 78v35q0 5 3 14.5t3 14.5q-3 3 -7.5 3.5t-11 -0.5t-8.5 -1q-7 0 -21 -1t-20 -1q-12 0 -38 -2.5t-38 -2.5q-24 0 -36 -2 q-16 -5 -31 7q-17 4 -21 8q-4 20 -4 30q-6 34 -6 70q0 2 -0.5 14t0 18t2.5 15t6 15q3 5 10.5 4.5t12.5 1.5q1 1 2.5 3t2 3.5t2 3t3 2.5t3.5 1.5t5 0.5q9 0 28 -4.5t32 -3.5q19 5 57 0q6 -1 19 -1t18 -1q1 0 5.5 -1t6 0t2.5 5q2 4 2 16q-3 16 0 31q1 6 -0.5 18t-1.5 15 q1 9 -1 26t-1 25v57q5 24 -4 31q-9 9 16 25q13 8 41 2q8 -1 26 1.5t24 2.5q18 2 51 -2h20q13 4 21 -4z" />
<glyph unicode="," horiz-adv-x="489" d="M365 219q11 -18 16 -31q18 -45 18 -75q0 -84 -28 -131q-6 -10 -19.5 -30t-19.5 -30q-2 -3 -10.5 -11.5l-16 -16t-6.5 -9.5q0 -3 -7 -9.5t-11 -8.5q-23 -14 -31 -17q-65 -24 -78 -26q-20 -3 -33 2q-2 1 -12.5 3t-15.5 7q-8 7 -13 35q-6 34 -2 41q3 3 12 5t13 5 q23 14 31 17q40 22 45 51q1 3 -0.5 5t-4 3t-5 1.5t-6 1.5t-5.5 1q-3 2 -11.5 8t-14.5 8q-3 3 -12 9t-13 10q-4 5 -11.5 15.5t-11.5 15.5q-29 43 21 131q18 27 35 37q2 2 10.5 7t11.5 9q5 10 33 10q33 0 63 -6q5 -1 14.5 0t14.5 0q24 -5 33 -14q16 -12 27 -23z" />
<glyph unicode="-" horiz-adv-x="1058" d="M289 588q-19 -1 -55.5 -5t-53.5 -5q-13 0 -26.5 -1t-23.5 6t-11 21q-5 82 -4 98q0 3 1 18t3 26.5t6 15.5q8 4 19 6t18.5 2.5t22 0t18.5 -0.5h100q24 1 52.5 1t63.5 -0.5t54 -0.5q1 0 27.5 -0.5t49 -0.5t46.5 1t31 4q5 2 112 2q28 1 84.5 -2t83.5 -2q2 0 10.5 -3.5 t8.5 -6.5l14 -31q8 -1 1.5 -22.5t-3.5 -24.5q8 -5 0 -61q-2 -15 -16 -29q-2 -2 -13.5 -7t-13.5 -7q-3 -4 -17 -4.5t-32 1t-19 1.5l-46 -1q-46 -1 -46 1q-8 1 -24 4t-23 3t-24 -3q-13 -4 -42.5 2t-60.5 6q-34 0 -89 -3t-75 -3t-54 2.5t-54 1.5z" />
<glyph unicode="." horiz-adv-x="466" d="M274 8q-24 -13 -70.5 -7.5t-60.5 30.5q-4 6 -19 22t-18 21t-9.5 37t-6.5 36q0 8 3 28.5t7 21.5q3 1 13 16.5t10 17.5q29 36 78 50q39 14 96 -15q23 -13 36 -28.5t27 -44.5q27 -59 2 -109t-88 -76z" />
<glyph unicode="/" horiz-adv-x="1298" d="M1251 1454q3 -12 -2.5 -23.5t-18.5 -26t-16 -18.5q-34 -50 -69 -96q-11 -18 -33.5 -48.5t-28.5 -39.5q-5 -8 -17.5 -29.5t-23 -36t-22.5 -26.5q-4 -5 -13.5 -20.5t-15.5 -22.5q-6 -10 -18 -28t-15 -23q-9 -14 -27.5 -40.5t-27.5 -41.5q-22 -34 -69.5 -98t-53.5 -72 q-20 -28 -123 -176q-22 -31 -63 -96t-62 -97q-39 -53 -102 -155q-8 -13 -28 -39.5t-29 -42.5q-2 -3 -47 -68q-2 -3 -12 -17t-15 -22q-3 -5 -15.5 -22t-17.5 -27q-6 -1 -16.5 -5t-15 -5t-17.5 0q-27 6 -57 6q-4 1 -15 3.5t-16.5 3t-15.5 -0.5q-29 -10 -50 2q-12 8 -15.5 15.5 t1 14t10 11.5t16 12t15.5 11q17 12 34.5 31t27 32t28.5 40t25 36q103 137 121 166q14 21 52 72.5t56 82.5q6 12 15 24t20.5 27t17.5 23q50 78 60 92q12 16 32 46t31 46q11 14 28.5 46.5t29.5 46.5q15 17 28 41q2 3 9.5 15t13.5 17l26 39q26 42 33 51q11 16 28.5 45 t32.5 52.5t31 42.5q10 11 18 24t16.5 30t13.5 26q11 16 31.5 50t31.5 50q50 69 55 78q2 4 8.5 11t8.5 11l2 4t6 7q7 7 26 10l54 -6q28 -6 47 0q13 5 36.5 -3.5t26.5 -21.5z" />
<glyph unicode="0" horiz-adv-x="1507" d="M1053 1380q8 -4 17 -17t17 -17q2 -1 5 -6l4 -5q2 -1 24 -10.5t37 -20.5t12 -22q32 -24 51 -47t48 -68q51 -84 53 -88q18 -31 33 -84q0 -6 5 -24t9 -19q2 -1 3 -11t3 -11q4 -2 5.5 -12.5t1.5 -23.5t1 -17q4 -9 6.5 -17.5t3.5 -19.5t1 -16v-19.5v-18.5q0 -13 -5.5 -45.5 t-3.5 -48.5q0 -36 -12 -86q-9 -36 -6 -92q2 -34 -12 -92q-9 -28 -62 -125q-35 -59 -49 -80q-25 -39 -100 -106q-5 -4 -23 -14.5t-22 -14.5q-1 -1 -11 -15t-18 -21.5t-16 -8.5l-31 -17q-1 -1 -25.5 -9t-25.5 -13q0 1 -9.5 -3.5t-18.5 -9.5l-9 -5q-7 -3 -49 -17 q-5 -1 -23.5 -1.5t-27.5 -2.5q-4 -1 -17 0t-22 1.5t-13 -1.5q-4 -4 -13.5 -4t-21 2t-14.5 2q-14 2 -38.5 2.5t-32.5 1.5q-67 10 -89 17q-5 2 -19 6.5t-26 9t-16 8.5t-12 7.5t-17.5 7.5t-13.5 6q-7 4 -20 13.5t-19 12.5q-24 10 -82 68q-1 1 -6.5 5t-9.5 7.5t-4 7.5 q-1 4 -9 11t-18 13.5t-12 8.5q-13 9 -31 37l-8 21q-9 22 -17 28q-18 10 -30 80q-1 5 -8 13t-7 9q-3 9 -3.5 28.5t-2.5 27.5t-14 26q-2 5 -4 19t-4 20q-6 15 -19 30t-16 19q-6 10 -10 39t2 37q5 3 3.5 25.5t-1.5 25.5q0 9 6 27q5 20 2 61q-3 37 0 74q0 32 6 41q12 17 14.5 59 t4.5 50q10 60 22 67q5 2 15.5 23.5t9.5 25.5q0 5 9.5 23t14.5 25q3 5 15.5 19.5t22.5 26.5t9 15q-2 12 31 45q4 4 16 11t21 16q10 7 27 32q1 2 7.5 5.5t8.5 5.5t11.5 8.5t10.5 7.5q3 5 9.5 7.5t9.5 6.5q11 12 35 22t39 9q10 -2 30.5 5.5t24.5 15.5q3 5 8 10.5t12.5 12 t10.5 9.5q7 8 44 12t40 11q2 3 12.5 5t27 3t30 1t29.5 -0.5t17 -0.5q9 -1 25 -3t29 -3t24 0q11 0 37 -4t29 -8q1 -1 39 -11q8 -1 19 -7.5t15 -8.5q6 -2 17.5 -6.5t24.5 -11.5t12 -11zM614 199q1 0 8.5 -5l15 -10t7.5 -4q-1 -3 13 -5.5t31.5 -4t19.5 -2.5q57 -3 108 8 q70 12 72 21q1 6 27 18t28 14q6 6 26 21.5t29 25.5q3 5 13 16t14 19q34 48 37 78q0 3 2 9t2 10q1 8 9 27t9 24q1 3 2 19t2.5 29t4.5 15q4 3 4 68q1 9 4.5 29.5t3.5 33.5q0 87 2 103q3 20 -0.5 59t-1.5 55q3 41 -27 99q-2 3 -8 27t-10 26q-21 45 -21 47q-13 26 -20 33 q-7 2 -12 21t-11 20q-4 1 -5.5 6.5t-4.5 7.5q-12 8 -14 10q-5 3 -18.5 15.5t-20.5 17.5q-49 46 -111 55q-5 1 -29.5 9t-39.5 4q-49 -11 -92 -11q-5 0 -19.5 -6t-17.5 -10q-5 -5 -20 -12.5t-21 -7.5q-15 2 -32.5 -20.5t-25.5 -24.5q-7 -2 -13.5 -20t-12.5 -21 q-9 -3 -15 -14.5t-11.5 -27t-8.5 -20.5q-1 -3 -13 -18t-12 -23q-1 -6 -8 -21.5t-8 -21.5q-1 -5 -20 -48.5t-15 -66.5q6 -26 2 -57q0 -3 2.5 -17t1.5 -22q-3 -54 0 -106q0 -16 3 -46.5t3 -35.5q0 -4 0.5 -30t4.5 -40q1 -3 3.5 -14t4.5 -20t2 -13q-1 -7 1.5 -16t7 -20t5.5 -15 q16 -61 66 -129q11 -16 38.5 -39.5t32.5 -28.5q1 -1 3.5 -3t8 -5.5t9 -5t4.5 -0.5q0 1 5 -2t10.5 -6.5t6.5 -3.5zM319 938q11 -14 23 -2q9 9 -8 12q-16 4 -17 -3q-1 -3 2 -7z" />
<glyph unicode="1" horiz-adv-x="1001" d="M571 1229q0 -8 7 -9.5t18 1t12 2.5q10 0 17 -21q3 -9 2.5 -16.5t-2.5 -20.5t-2 -18q0 -75 4 -94q2 -4 1.5 -23t-3.5 -20q-2 -1 -2 -15.5t1 -32.5l1 -18q0 -8 2 -24t2 -25q-3 -35 0 -70q0 -9 -2 -24.5t-2 -24.5q0 -4 1.5 -14t0.5 -17q-5 -2 -1.5 -35.5t3.5 -35.5v-49v-56 q0 -13 2 -40t2 -40q4 -56 -2 -81q-5 -6 -0.5 -32t4.5 -30q1 -19 -0.5 -63.5t0.5 -61.5q3 -22 10.5 -31.5t26.5 -9.5q14 0 42 -2t42 -2q4 0 37.5 4.5t56.5 2t29 -16.5q10 -21 10 -55.5t-8 -59.5q-1 -3 -3 -18.5t-7.5 -22t-18.5 -8.5q-16 -2 -39.5 -1.5t-38.5 -0.5h-90 q-3 0 -28 -2t-43 -1t-25 7q-5 7 -31 3t-33 -3q-6 4 -28.5 1t-28.5 -3q-62 -8 -72 2q-1 2 -29 0.5t-32 -0.5q-46 5 -58 2q-7 -1 -39 -2t-62.5 0t-29.5 6l-6 7q-6 7 -12 16.5t-6 15.5q-1 14 1.5 38t2.5 34q0 13 1.5 22.5t9 18.5t20.5 8q2 0 17 2t22 2q13 -1 39.5 0t41.5 0 q17 -2 48 2q30 3 36.5 13.5t8.5 43.5q4 22 1.5 89.5t-1.5 89.5q1 10 -1.5 33t-0.5 34q4 34 0 99q-1 25 -4 126.5t-3 157.5q0 20 -1 60t-1 59q0 30 -59 10q-89 -30 -145 -28q-16 1 -26 5t-13.5 14t-4.5 16t0 22t1 22q0 5 -4.5 26t-2 36t16.5 24q14 8 36.5 13t37.5 4 q8 -1 15 0.5t16 5t14 4.5q63 14 88 39q5 4 17 15.5t16 15.5l13.5 13.5t14.5 15.5t12.5 16t14.5 20q14 18 37 74q5 12 12.5 33.5t11.5 28t17 11.5t36 1q89 -18 93 -54q11 -82 0 -112q-5 -13 -25.5 -22.5t-26.5 -20.5z" />
<glyph unicode="2" horiz-adv-x="1388" d="M362 260q11 -16 119 -16q10 1 28 1t32 1t26 4q16 2 47 -3t41 -5q54 0 74 8q2 1 11 1t10 1q7 3 19 2.5t30.5 -3.5t21.5 -3q17 0 53 -1t56 -1q63 0 84 10q12 9 12 92q0 10 4.5 29t5.5 26q0 2 -4 16t-4 17q0 2 -3 24.5t-2.5 40t7.5 21.5q4 2 5 21t1 20q6 19 76 19 q133 10 145 -17q2 -3 4 -3t3.5 0.5t2.5 0t1.5 -3.5t1.5 -10q0 -6 -2 -19t-2 -20q1 -10 -1.5 -38t1.5 -36q5 -12 2 -59.5t-2 -59.5q2 -30 2 -80.5t2 -78.5q0 -7 2.5 -38t0 -50.5t-12.5 -32.5q-8 -16 -24 -23t-27 -7.5t-42 -0.5q-170 0 -221 -4q-32 -2 -93 1t-81 3 q-12 0 -38 1.5t-47 1t-38 -4.5q-5 -1 -23 0.5t-22 1.5q-11 -1 -40.5 -0.5t-37.5 -1.5q-4 -3 -28 -0.5t-27 2.5q-9 0 -24 -1t-26.5 -1t-21.5 2q-16 3 -37.5 3.5t-35.5 0t-40.5 -2t-35.5 -1.5q-6 0 -22.5 -2.5t-30.5 -4t-29.5 -1t-26.5 6t-14 15.5q-30 64 20 193q38 96 86 166 q22 34 27 39q4 6 19 16.5t18 16.5q2 5 7 9l5 3q9 6 21 18q5 5 22.5 21.5t22.5 21.5q6 6 22 14.5t19 10.5q4 3 22 16t27 19q15 12 74 47q1 1 15.5 8.5t26.5 15t13 11.5q1 3 19 9t18 9q70 27 74 27q22 5 41 17t47 35.5t36 29.5q3 2 14 5.5t15 6.5q1 2 5 7t5 7q9 7 18.5 21 t12.5 18q4 5 22.5 19.5t24.5 23.5q9 16 29 72q4 23 4 33t-3.5 31.5t-4.5 31.5q-3 27 -21 70q-17 30 -47.5 62.5t-58.5 39.5q-33 8 -41 16q-23 15 -35 15q-13 3 -41.5 3t-44.5 3q-3 0 -14.5 3t-18.5 3q-10 0 -37 -6t-41 -4q-7 0 -23 -5t-18 -5q-6 -1 -24 -7t-29 -8 q-33 -14 -43 -14q-14 -2 -45 -27q-4 -2 -23.5 -26.5t-21.5 -24.5q-10 -17 -4 -33q2 -8 15.5 -8t17.5 -2q16 -8 37 -8q11 0 28 -25q15 -15 25 -41q3 -7 7 -23t7 -22q4 -10 -3.5 -32t-6.5 -29q1 -8 -9.5 -28t-17.5 -27q-4 -3 -9.5 -10t-10.5 -12t-10 -5q-4 0 -19 -7.5 t-18 -10.5q-13 -13 -80 -13q-5 1 -33 10q-6 2 -26.5 13t-28.5 12q-20 0 -41 35q-24 31 -33 61q-19 62 -10 115q2 8 3.5 31.5t6 41.5t14.5 29q3 2 5 7t4.5 12t3.5 10q3 4 8 10.5t8 10.5q23 35 59 67q8 10 23 25q22 22 63 47q3 1 16.5 6t18.5 8q5 5 21.5 13t19.5 12t8.5 5.5 t14 2.5t12.5 2q9 2 33.5 9.5t38.5 10.5q64 13 94 15q82 8 121 8q7 0 25 1t31.5 0.5t25.5 -3.5q4 -1 22 -1.5t33 -2t18 -4.5q9 -11 80 -23q10 -2 34.5 -14t37.5 -12q6 -1 13.5 -10t11.5 -9q5 1 15 -5.5t22.5 -17t15.5 -12.5q10 -5 35 -30q3 -2 10 -13.5t10 -13.5 q17 -10 35 -35q5 -7 18.5 -21.5t22.5 -27.5t12 -27q0 -1 2.5 -13t5 -22.5t6.5 -20.5t7 -11q7 -3 8.5 -66t-2.5 -69q-6 -12 -11 -35t-6 -27q-5 -15 -27.5 -41t-23.5 -28q-27 -42 -61 -66q-2 -1 -14.5 -9.5t-18.5 -15.5l-5 -3q-5 -4 -9 -7.5t-4 -5.5q-3 -7 -30.5 -15 t-29.5 -16q-2 -6 -23.5 -12t-23.5 -8q-1 -2 -35 -14q-2 1 -8 -2t-13.5 -6.5t-10.5 -4.5q-16 -6 -44 -18.5t-43 -18.5q-138 -58 -221 -120q-49 -30 -71 -33q-12 -2 -22 -12t-20 -26t-14 -20t-18.5 -13t-18.5 -13q-4 -5 -30.5 -29t-42 -46.5t-11.5 -41.5z" />
<glyph unicode="3" horiz-adv-x="1425" d="M995 748q1 -16 28.5 -18.5t29.5 -8.5q1 -3 10 -3.5t10 -2.5q1 -1 8 -2t9 -2q6 -2 17 -13t13 -12q15 -5 31.5 -16t36 -25.5t29.5 -21.5q7 -4 13 -13t11.5 -21t7.5 -16q36 -64 39 -100q0 -5 4 -19t4 -22q1 -9 -2 -22t-4 -17q-1 -13 -9.5 -37.5t-10.5 -38.5 q-14 -72 -33 -104q-2 -2 -11.5 -7.5t-11.5 -10.5q-1 -2 -11 -10t-11 -9q-2 -2 -5 -6t-5 -6q-55 -59 -90 -82q-28 -14 -31 -14q-5 0 -25 -13q-36 -9 -41 -14q-16 -16 -77 -27q-17 -3 -48 -9t-49 -9q-17 -3 -55 -3.5t-59 -4.5q-22 -2 -59.5 1.5t-55.5 2.5q-93 0 -154 31 q-4 2 -26.5 11t-37.5 16t-22 13q-13 13 -26 13q-7 -1 -30 16.5t-32 28.5q-18 30 -24 37q-8 7 -30 19.5t-30 19.5q-13 15 -26 65q0 2 -6.5 24t-8 27.5t-6 25t-5 29.5t-1 26.5t1.5 31t6 29.5q20 68 66 104q2 1 13.5 6.5t21.5 10t10 6.5q2 8 19 10.5t20 5.5q7 7 24.5 8.5 t33.5 -0.5t30 0q2 -4 8 -6.5t14 -4.5t11 -3q4 -2 9.5 -5.5t11 -8t7.5 -5.5q4 -4 15.5 -12.5t13.5 -11.5q1 -2 3.5 -5t7 -10t7.5 -11.5t2 -4.5q4 1 7.5 -12.5t6.5 -31.5t3 -19q2 -20 -5.5 -51t-7.5 -37q0 -12 -17 -31t-28 -21q-83 -8 -85 -25q-1 -4 3 -9q8 -12 36.5 -37 t39.5 -25q12 -1 35 -18.5t35 -20.5q74 -18 110 -18q8 0 39 -1t53 0t40 5q63 19 79 29q6 4 35.5 20.5t42.5 28.5q43 32 45 43q0 1 13.5 20t26 36.5t9.5 18.5q3 -1 6 18t5 39t2 25q0 11 -8 35t-15 27l-6 22q0 4 -2.5 8.5t-4 7t-6.5 7t-7 6l-8 6t-7 4.5q-2 1 -17.5 8t-21.5 13 q-26 21 -55 39q-8 3 -28 6t-29 6q-18 7 -51 8t-48 4q-39 10 -57 8q-39 -8 -61 7q-19 30 -7 112q1 6 3 10.5t5.5 7t6 4.5t8 2.5t7.5 0.5h7h6q3 0 13 3t12 3q7 1 28.5 -1t28.5 -1q56 0 62 8q3 3 14.5 5.5t26 4t18.5 2.5q48 19 86 39q26 11 54 43t34 60q1 7 7.5 29.5t9.5 40 t0 34.5q-16 70 -27 80q-8 6 -20 28.5t-19 28.5q-24 18 -31 25q-2 3 -12.5 9t-13.5 9q-19 17 -72 31q-7 2 -30.5 11t-34.5 10q-60 6 -76 6q-39 -4 -41 -4q-2 3 -16 0t-29.5 -7t-18.5 -4q-14 0 -52.5 -11.5t-43.5 -12.5q-30 -12 -74.5 -42.5t-38.5 -51.5q3 -7 33.5 -13 t36.5 -12q2 -2 16.5 -10.5t24 -16.5t8.5 -14t6 -17t7 -12q18 -38 12 -88q-1 -12 -8.5 -25t-12.5 -20t-19.5 -23.5t-17.5 -19.5q-52 -45 -98 -45q-18 0 -46.5 7t-39.5 8q-12 3 -26 10q-5 1 -14 9.5t-13 8.5q-2 0 -5.5 3t-6.5 6l-6 6l-3 4q-3 3 -9 14t-9 14q-4 5 -8.5 16.5 t-7.5 14.5q-15 19 -15 59q5 83 17 119q2 5 7.5 20.5t11.5 28.5t13 21q3 4 20 21.5t19 25.5q0 4 4.5 8.5t12 10t10.5 8.5q11 10 32.5 28.5t28.5 26.5q4 2 15.5 5t21 6.5t10.5 6.5q2 5 37 9.5t39 15.5q3 8 16.5 14t26 8.5t31.5 6t25 4.5q4 2 17.5 3.5t25.5 3.5t14 5 q13 7 24 6.5t31 -4.5t25 -4q7 0 23.5 3t25.5 1q15 -4 40.5 -4h31.5q19 0 51.5 -6.5t44.5 -7.5q8 -1 30.5 -11t32.5 -8l72 -27q2 -4 10.5 -8t19.5 -7t15 -5q18 -8 41 -31q2 -2 24 -19.5t33 -33.5q1 -1 24.5 -22t29.5 -35q3 -9 15 -33t13 -37q2 -9 10 -30.5t9 -32.5 q3 -31 -6 -66q-1 -3 -2 -17t-2.5 -24.5t-4.5 -11.5t-6 -15t-6.5 -30.5t-5.5 -20.5q-18 -26 -51 -59q-5 -5 -22 -21t-21 -20q-1 0 -16 -8.5t-17 -10.5q-6 -5 -58.5 -18t-56.5 -22z" />
<glyph unicode="4" horiz-adv-x="1558" d="M1126 1446q12 -19 7 -72q0 -7 2.5 -35.5t-0.5 -35.5q-4 -27 -4.5 -58t1 -71t1.5 -58q2 -93 -5 -229q0 -11 2.5 -40.5t2.5 -43.5q0 -13 -3 -40.5t-3 -50t6 -38.5q4 -14 0 -32.5t-2 -38t16 -23.5q13 -3 36.5 1t33.5 3q66 -4 98 -4q10 0 28.5 2t29 2t23 -3t18.5 -13.5 t7 -28.5q0 -6 1.5 -23.5t1.5 -31.5t-1.5 -30t-8 -26.5t-17.5 -13.5q-9 -3 -30 -0.5t-28 -1.5q-26 -9 -67 -4q-54 4 -78 4q-5 0 -15.5 -0.5t-14.5 -1t-11.5 -2.5t-10.5 -5.5t-6 -10t-3 -15.5v-80q0 -10 -1 -28.5t-1 -33t2 -26.5q3 -18 19.5 -25.5t34 -7t43.5 3t34 2.5 q2 0 43.5 4.5t69 1.5t32.5 -20q3 -11 3 -25.5t-1.5 -32t-1.5 -26.5q0 -8 1.5 -24.5t1 -29t-4.5 -24.5q-90 -10 -150 -8q-13 1 -44.5 3t-43.5 2t-43 -1q-8 -4 -64 -2t-63 2q-17 0 -70.5 -1.5t-82.5 -0.5q-136 4 -174 2q-19 -5 -41 -1t-27 26t0 88q0 4 0.5 16t1 19t5 15 t12.5 11q10 4 22.5 5t32.5 0t24 -1q1 0 45.5 -2.5t78.5 -2t36 6.5q1 3 4.5 4t3.5 2q1 4 1 14.5t1 14.5q2 7 -0.5 29.5t0.5 29.5q4 17 3.5 26.5t-3 26.5t-2.5 27q5 60 -32 60q-2 0 -22 1t-34 0t-22 -5q-9 -4 -32 -0.5t-32 -1.5q-18 -10 -71 2q-59 6 -115 0q-24 -7 -47 -4 q-12 1 -40 -0.5t-38 0.5q-29 4 -152 4q-6 0 -18.5 -1.5t-20.5 -2t-20.5 -0.5t-18.5 3t-14.5 8t-8 14t0.5 22q1 7 1 13t-0.5 10t-3.5 9l-4.5 7.5t-7 8.5t-7.5 9q-7 9 -7 41q1 5 -0.5 18.5t0.5 18.5q2 0 7 6.5t4 9.5q0 3 15 21.5t20 21.5q31 31 47 45q3 3 19 12.5t24 18.5 q5 4 17 25t19 28q12 10 33.5 34t32.5 34q15 16 53 58.5t62 66.5q13 13 38 37t45.5 44.5t37.5 39.5q94 98 135 139q14 13 36 36.5t31 32.5q2 3 10 9.5t13.5 13.5t5.5 12q0 4 27 31q13 9 44 46.5t54 43.5q15 4 28.5 4t30 -2t27.5 -2q9 0 27 1t28 1t24.5 -3t26.5 -9zM864 594 q0 2 3 10t3 10q1 16 -0.5 52t-1.5 45q2 62 -2 182q-1 16 0.5 59.5t-0.5 59.5q0 5 2 28.5t-0.5 41t-13.5 22.5q-13 6 -30 -8t-34 -38l-18 -24q-8 -10 -43 -45q-1 -1 -7 -6.5t-10.5 -10t-9.5 -10t-8 -10t-2 -6.5q1 -3 -5.5 -11t-16 -18t-19.5 -19t-19 -17.5t-11 -10.5 q-10 -11 -30.5 -30.5t-21.5 -20.5q-14 -15 -52.5 -54t-57.5 -58l-58 -58q-56 -47 -26 -65q10 -4 15 -3.5t13 3t11 2.5q8 0 27 -1t24 -1q19 -2 64.5 1.5t68.5 0.5q64 -4 94 0q3 0 24 -1t44 -2t47.5 -0.5t40 3t16.5 8.5z" />
<glyph unicode="5" horiz-adv-x="1435" d="M1249 1450q1 -18 -5.5 -35t-14.5 -24q-1 -2 -3 -7.5t-3 -7.5q-1 -1 -7.5 -6t-7.5 -6q-8 -18 -33.5 -44.5t-31.5 -37.5q-2 -4 -11 -9l-10 -5q-5 -5 -15 -13.5t-15 -13.5q-6 -5 -13.5 -12.5t-12.5 -11.5t-9 -7q-24 -17 -53 -27.5t-44.5 -14t-57.5 -8.5t-54 -7 q-57 -4 -76.5 -4.5t-77.5 4.5t-78 6q-18 1 -53.5 10.5t-54.5 10.5q-16 1 -28.5 -8t-20 -22.5t-13.5 -34.5t-8.5 -36.5t-5.5 -36t-4 -26.5q-2 -7 -10 -42t-10 -42q0 -3 -2 -14t-2.5 -16.5t0.5 -14.5t6.5 -9t15.5 1q11 2 33.5 12.5t32.5 11.5q28 2 74 13t73 12q3 0 23 5.5 t31 7t22 -2.5q3 -2 14 -2.5t14 0.5q4 5 40 3t42 -1q57 0 133 -31q64 -27 92.5 -41t68 -41t73.5 -63q5 -5 19 -26t22 -27q7 -4 19 -23.5t14 -28.5q0 -7 7.5 -19.5t8.5 -16.5q2 -6 5 -20.5t5 -20.5q9 -27 17 -86q1 -11 1 -35t1 -35q2 -3 1.5 -23.5t-3.5 -23.5 q-4 -4 -10.5 -24.5t-6.5 -28.5q1 -6 -7.5 -23t-8.5 -25q-1 -8 -14 -21t-13 -19q-1 -18 -15.5 -41.5t-27.5 -36.5q-2 -3 -9.5 -12.5t-15 -18t-16 -17.5t-16 -14t-12.5 -4q-5 0 -14.5 -6.5t-23 -19t-14.5 -13.5q-6 -6 -21 -10.5t-20 -9.5q-19 -23 -78.5 -31t-76.5 -16 q-39 -17 -88 -17q-16 0 -42.5 -3.5t-40 -4t-42.5 5.5q-8 4 -16 4t-17 -2t-14 -2q-8 1 -26.5 4.5t-20.5 3.5q-3 0 -11.5 3t-11.5 4q-8 1 -39 3t-49 7q-48 10 -72.5 15.5t-62 20t-64.5 33.5q-36 18 -45 31q-3 3 -22.5 16t-26.5 27q-3 4 -12 15.5t-14 23.5q-1 3 -10.5 16 t-17.5 25t-7 16q0 2 -7 17t-8 16q-11 8 -11.5 56.5t3.5 64.5q14 74 48.5 109.5t109.5 62.5q11 5 24 5.5t22 -1t25.5 -5.5t22.5 -5q39 -6 70 -33q18 -16 36 -43.5t17 -48.5q-1 -7 2.5 -18.5t3.5 -16.5q0 -6 -5 -19.5t-5 -19.5q0 -9 -17 -29t-16 -26q1 -4 -4.5 -8.5 t-15.5 -9.5t-19.5 -8.5t-19.5 -6.5t-11 -4q-10 -4 -16 -8t-6.5 -9t0 -9t5.5 -9.5t7.5 -8t9 -7.5t7.5 -6q7 -7 33 -22.5t38 -20.5q3 -1 27.5 -7t47.5 -11.5t24 -8.5q5 -10 63 -10q11 -5 46.5 -1t47.5 3q22 -2 61.5 4.5t53.5 17.5q9 6 52.5 21t56.5 25q84 54 129 135 q35 72 4 194q-36 122 -99 162l-61 47q-47 19 -57 21q-7 0 -28.5 12.5t-27.5 13.5q-73 12 -78 17q-3 6 -28 0.5t-31 -0.5q-2 5 -17.5 0.5t-17.5 -4.5q-40 -6 -84 -27q-2 -1 -23.5 -9.5t-38.5 -17t-20 -14.5q-3 -7 -28 -19t-31 -10q-2 0 -5.5 -1.5t-8.5 -3.5t-7 -3 q-67 0 -69 6q-4 7 -36.5 8t-37.5 7q-2 2 -5.5 5t-5.5 7t-3 12q-6 42 6 84q4 17 8 51.5t8 51.5q1 7 4 30.5t6 43.5t7 32q6 16 9.5 46.5t8.5 45.5q2 3 14 53q2 8 1.5 24t1.5 24q2 14 10.5 46.5t9.5 47.5q0 27 6 61q6 39 8 41q1 1 3.5 5t6.5 10t5 8q0 14 2 16q4 5 14 11t12 7 q5 4 13 6t14.5 2.5t18.5 -1.5t17.5 -3t17.5 -4.5t14 -3.5q25 -5 78 -18t81 -18q9 -1 31.5 -5t37.5 -6.5t36 -4.5t37 -1q23 2 64.5 -1.5t62.5 -2.5q14 0 35.5 3.5t29.5 4.5q99 10 119 15q4 1 26 5t41 8.5t21 8.5q1 4 18 6.5t21 7.5q9 10 19 6t24 -14t16 -10z" />
<glyph unicode="6" horiz-adv-x="1368" d="M1079 1055q-10 11 -15.5 35.5t-10.5 31.5q-2 3 -6 12t-9 17.5t-10 13.5q-6 6 -18 19.5t-17.5 19.5t-16 14t-22.5 13q-39 19 -56.5 27t-49.5 16.5t-60 7.5q-15 0 -44.5 -6.5t-43.5 -7.5q-18 0 -42.5 -16.5t-30.5 -18.5q-39 -18 -99 -92q-1 -2 -8.5 -10.5t-12.5 -14.5 t-9.5 -13.5t-3.5 -10.5q0 -1 -6.5 -13t-8.5 -14q-17 -13 -28 -47q-41 -104 -43 -168q-4 -52 -11 -90q-4 -9 -1.5 -52t1.5 -53q0 -15 12.5 -29t30.5 -1q4 4 14 19.5t13 19.5q9 9 37 41q32 36 57 53q1 1 9 6.5t16 10.5t12 5q5 0 17.5 8.5t17.5 8.5q11 1 34 7.5t33 8.5 q45 10 84 10q2 1 11.5 0.5t17 -1t8.5 0.5q6 4 44 2t81.5 -9t42.5 -13q58 -37 66 -39q5 -2 15 -10.5t13 -10.5q17 -7 32 -23.5t20.5 -25.5t19.5 -35q3 -4 8.5 -11t9 -12.5t5.5 -10.5q23 -32 32 -78q14 -64 19 -80q5 -27 -2 -57q-1 -3 1 -31.5t-5 -34.5q-3 -4 -4.5 -13 t-2.5 -20t-2 -14q-2 -8 -9 -23.5t-9 -23.5q-2 -10 -11.5 -34.5t-13.5 -25.5q-3 0 -9 -9.5t-11.5 -20.5t-7.5 -13q-28 -28 -51 -61q-9 -11 -20.5 -20.5t-31 -23t-28.5 -19.5q-6 -4 -18.5 -7.5t-18.5 -7.5q-5 -5 -16.5 -8t-18.5 -2q-7 0 -47 -16q-3 -1 -12 -6t-13 -5 q-3 1 -10 -0.5t-16.5 -4t-12.5 -3.5q-18 -6 -42 -7t-55.5 0.5t-47.5 0.5q-48 0 -92 12q-54 14 -55 15q-1 4 -25 13l-25 9q-53 11 -55 25q-4 9 -47 30q-2 2 -16 12t-17 15q-3 4 -13.5 10.5t-14.5 10.5q-1 2 -6 7t-11 10l-6 5q-5 3 -12.5 10t-16 17t-12.5 14q-12 12 -27 54 t-30 55q-7 6 -13 22t-11.5 39.5t-8.5 32.5q-13 37 -29 108q-9 48 -18 174q-3 42 6 84q4 10 2.5 40.5t-0.5 37.5q1 5 6 30.5t4 37.5q0 4 6 26t9 23q4 6 8 24t6 23q5 17 13.5 39t13.5 37q25 66 57 121q5 11 34 33.5t31 35.5q4 12 25 33q6 5 21.5 14.5t19.5 14.5q36 40 119 92 q5 1 29.5 10t43.5 14.5t31 6.5q19 1 57 11.5t52 12.5q25 2 68.5 -4.5t64.5 -5.5q164 3 270 -109q2 -2 8 -15t13 -22.5t12 -9.5q5 -1 11 -7t13 -17l7 -11q25 -53 33 -104q1 -6 4.5 -19t3.5 -18q0 -7 -1 -12.5t-5 -9.5l-6.5 -6.5t-9 -5t-8.5 -3.5t-9 -3l-8 -1q-41 -10 -45 -12 q-3 -1 -37 -8q-2 -1 -8 0t-9 0zM649 664q-103 -39 -139 -119l-21 -41q-15 -4 -20 -49.5t-2 -63.5q0 -33 16 -69q2 -6 5.5 -19t6.5 -21.5t8.5 -19t12.5 -16.5q6 -5 14.5 -16t10.5 -13q42 -38 71 -51q5 -2 17 -10.5t22.5 -13.5t18.5 -5q13 -1 37.5 1.5t33.5 2.5q8 -1 15.5 0 t11.5 2t10.5 3.5t9.5 3.5q12 3 38 16.5t30 19.5l23 23q1 1 5 4.5t7.5 7t7 8.5t4.5 9q0 6 15 24.5t14 24.5q0 5 10 23t10 24q16 57 11 102q-4 43 -13 74q-2 5 -14.5 23t-13.5 24q0 3 -4 8.5t-9 10t-11 10t-7 6.5q-23 23 -55 41q-40 24 -89 33.5t-98 -2.5z" />
<glyph unicode="7" horiz-adv-x="1359" d="M784 -14q-13 -4 -24 -4t-25 2t-24 2h-78q-55 -5 -135 2q-2 4 -6.5 14.5t-5.5 14.5t-4.5 14t-2 14.5t1.5 15.5q0 2 4.5 23.5t3.5 30.5q0 11 7 42t8 36q8 40 14 63q0 2 2.5 14t3.5 13q3 3 7 11t6 15.5t4.5 18.5t3.5 14q0 3 3.5 17.5t4.5 15.5q4 1 7.5 9t5 16.5t3.5 18.5 t2 11q3 10 11 27.5t10 29.5q2 9 16.5 29.5t16.5 32.5q8 31 31.5 76t27.5 55q15 37 41 80q3 5 11.5 18.5t14.5 25t9 21.5q5 18 15.5 34.5t31 42t22.5 28.5q11 14 31 42t32.5 45t32.5 40.5t40 42.5q3 4 17 17.5t19 21.5q3 4 23 25t23 28q7 14 -19 16.5t-58 -0.5t-34 -2 q-9 5 -24.5 6t-37 -0.5t-26.5 -1.5q-9 0 -51 -6q-10 0 -38.5 1.5t-45.5 0.5q-11 -1 -32 2.5t-30 3.5q-1 0 -41 -8q-15 0 -43.5 3.5t-45.5 4t-46 -3.5q-12 -3 -49.5 -0.5t-52.5 0.5q-32 -4 -23 -114q3 -15 6.5 -43t3.5 -59.5t-8 -35.5q-9 -7 -5 -26.5t2 -43t-19 -26.5 q-13 -3 -28.5 -4t-26.5 -1t-29.5 0.5t-28.5 0.5h-70q-13 1 -19.5 9.5t-6 20.5t1.5 25q0 13 -6 40.5t-6 43.5q-2 30 -2 162q-1 29 1.5 75t2.5 68q0 7 -3.5 30t-4.5 38t3.5 32t16.5 23q6 4 14.5 5.5t21 2.5t15.5 1q13 3 25.5 3.5t30 -0.5t24.5 -1q47 6 99.5 7t87.5 -1t66.5 -4 t35.5 -2q20 0 67.5 2.5t73.5 1.5q53 -1 157 0.5t136 1.5q15 -1 43.5 -3t51.5 -3t42 0q2 0 14.5 2t23 3.5t23 2.5t21 -0.5t10.5 -5.5q2 -3 12.5 -4.5t20 -4.5t8.5 -10q-1 -3 3.5 -12.5t4.5 -13.5v-115q1 -11 -0.5 -30.5t-1.5 -22.5q-1 -5 -4.5 -13.5t-3.5 -13.5 q-1 -9 -17.5 -28.5t-15.5 -26.5q1 -4 -6 -12.5t-16.5 -18.5t-11.5 -12q-3 -5 -12 -21t-15 -24q-14 -28 -23 -37q-9 -8 -15.5 -19.5t-13 -26t-11.5 -22.5q-18 -23 -31 -57q-2 -6 -8 -21t-9 -22q-1 -3 -11 -19t-9 -24q3 -16 -16 -49.5t-17 -46.5q0 -5 -12.5 -34.5t-25 -56 t-11.5 -26.5q-2 0 -6.5 -14.5t-9 -31.5t-4.5 -18q-2 -4 -5 -20t-5.5 -30t-4.5 -15q-4 -1 -7 -19.5t-7 -21.5q-4 -1 -8 -23t-4 -30q-1 -15 -11.5 -38.5t-11.5 -27.5q-2 -10 -10 -38t-10 -42q-1 -6 -4 -13t-3 -11q-1 -8 -1.5 -26t-2.5 -33t-8 -23q-10 -12 -10 -58 q0 -47 -23 -73z" />
<glyph unicode="8" horiz-adv-x="1441" d="M1047 721q-9 -7 10 -16q4 -3 17.5 -9t15.5 -8q12 -8 24 -12q48 -19 51 -27q2 -5 27 -22q21 -21 29 -27q8 -9 25 -31t26 -32q18 -24 20 -27q9 -27 13 -31q4 -3 6 -19.5t6 -19.5q3 -1 5.5 -13.5t2.5 -18.5q3 -34 0 -80q0 -28 -6 -52q-16 -40 -16 -43q-1 -12 -17 -26 t-18 -17q-3 -10 -17 -29t-20 -18q-4 1 -18.5 -12.5t-16.5 -19.5q-1 -8 -22 -25.5t-33 -24.5q-7 -1 -26.5 -16t-20.5 -16q-2 -2 -33 -9t-33 -14q-1 -3 -27.5 -8.5t-33.5 -5.5q-5 2 -22 -3.5t-21 -11.5q0 -1 -62 -16q-83 -9 -121 -2q-27 4 -111.5 10t-127.5 17q-24 6 -64 14 l-71 27q-1 5 -35 22q-4 2 -25 16.5t-28 16.5q-17 2 -46 31q-1 1 -8 5t-8 7q0 9 -16 25q-46 49 -62 108q-16 50 -22 102q-1 10 1 30t1 28q0 36 8 47q4 7 14.5 29t18.5 32q20 25 53 58q2 3 5.5 9t5.5 9t5.5 8t8.5 9t12 8q13 8 33 26t34 25q3 2 32 10t46 19t13 28 q-3 8 -12.5 14t-23.5 11.5t-18 7.5q-6 3 -16 10.5t-16 9.5q-34 21 -46 37q-3 3 -9 13.5t-12 18.5t-11 11q-3 2 -9 14t-12 13q-3 14 -15.5 32t-14.5 25q-6 42 -7 45q0 2 -6.5 14.5t-9 20t1.5 15.5q4 4 6.5 11t3 17.5t1 18t0 19t-0.5 15.5q0 18 12.5 43t14.5 33t7.5 17 t17 23.5t12.5 15.5q28 36 45 53q20 20 28 30q3 3 13 8.5t12 8.5q4 5 23.5 15t23.5 16q13 15 72 28q6 2 35.5 15.5t42.5 13.5q16 -1 40.5 3t36.5 3q17 -1 48.5 1.5t42.5 2.5q15 0 42.5 -3.5t36.5 -4.5q23 0 90.5 -9.5t67.5 -19.5q0 3 29.5 -3.5t38.5 -10.5q51 -25 53 -27 q30 -23 57 -34q3 -2 12 -10.5t16.5 -16t10.5 -6.5q6 1 16 -10t18.5 -23.5t10.5 -13.5q4 -4 9.5 -13.5t9.5 -13.5q7 -7 12.5 -20.5t10.5 -32.5t7 -25q15 -34 15 -65l2 -31q3 -31 3.5 -50t-3.5 -26q1 0 -3.5 -11.5l-9 -23t-4.5 -12.5q-1 -2 -4.5 -15t-8 -23.5t-9.5 -14.5 q-3 -3 -27 -33q-3 -4 -11 -18t-13 -17q-8 -5 -26 -20t-34.5 -27t-27.5 -16q-1 -1 -3.5 -2.5l-7.5 -4.5t-8.5 -5t-3.5 -1zM815 1278q-63 25 -188 0q-58 -13 -76 -33q-4 -4 -22 -21t-25 -24.5t-17 -22t-14 -26.5q-7 -21 -16 -74q-11 -62 2 -73q3 -3 11.5 -21t8.5 -22 q0 -7 12 -20t13 -15q49 -71 102 -78q2 -1 10 -7t11 -5q6 0 20 -7q9 -3 34.5 0t35.5 0q32 -9 84 2q7 2 35.5 5t44.5 10q6 0 20 14q6 8 27 18.5t26 18.5q2 3 8 9.5t7 6.5q4 2 6.5 14t5.5 15q4 3 9 13t5 16q0 3 5 7t6 5q19 42 10 111q-3 25 -20 60t-35 52q-3 4 -17 8 q-4 5 -17.5 13.5t-17.5 13.5q-3 4 -12.5 7.5t-11.5 8.5q-5 10 -18.5 14.5t-30.5 5t-21 1.5zM686 657q-18 -3 -76 -20q-59 -10 -71 -21q-4 -4 -18 -10t-17 -8q-2 -2 -10 -8.5t-11 -9.5l-12 -14q-12 -13 -18 -17q-9 -3 -18 -17.5t-11 -25.5q-1 -9 -8.5 -50t-9.5 -63 q-1 -12 1 -23t6 -24t5 -22l9.5 -19t8.5 -20q-1 -5 7.5 -13t9.5 -14q0 -13 21 -31t36 -24q26 -13 33 -19q24 -18 49 -22q11 -2 33 -9t39 -8q25 0 65 7q12 3 33.5 -0.5t32.5 -1.5q100 22 139 53q19 13 37 35q2 2 10.5 8.5t16.5 12.5t8 7q14 33 18 35q4 1 18 72q2 20 -5.5 55 t-8.5 45q-4 34 -47 84q-17 21 -26 31t-27.5 21.5t-38.5 13.5q-14 1 -42 16t-40 16q-94 5 -121 2z" />
<glyph unicode="9" horiz-adv-x="1363" d="M963 713q-11 3 -45.5 -22.5t-45.5 -39.5q-5 -8 -19.5 -18t-18.5 -15q-5 -6 -16 -12t-25.5 -12t-18.5 -8q-5 -4 -25.5 -10.5t-23.5 -10.5q-5 -6 -61 -20q-47 -15 -70 -15q-74 -4 -113 7l-39 10q0 1 -6 1.5t-13 1t-9 1.5q-1 1 -32.5 12t-35.5 23q-2 3 -19.5 11t-19.5 11 q-9 9 -30 25t-31 26q-6 6 -21 15.5t-20 15.5l-3 4q-3 5 -6.5 9t-7.5 6q-4 1 -18 20.5t-14 24.5q0 3 -8.5 17.5t-10.5 14.5q-12 10 -18 52q-16 49 -15 59q1 15 -0.5 68t2.5 69q3 21 21 76q0 1 6 11.5t6 17.5l13 26q1 2 12 26.5t18 31.5t20 26t21 27q46 63 122.5 105.5 t162.5 56.5q23 4 106 14q27 2 76.5 -4t69.5 -6q10 0 27.5 -7.5t27.5 -7.5q19 3 57 -22q18 -14 55 -31t42 -20q13 -8 32.5 -29t24.5 -25q21 -21 23 -24q4 -4 12 -13.5t12 -13.5q4 -8 10 -14q9 -8 21 -40.5t18 -43.5q5 -10 23 -44.5t26 -53.5q9 -18 13 -45q0 -5 -2 -13.5 t-1.5 -14.5t5.5 -11q11 -12 12 -32t-1.5 -43.5t-0.5 -35.5q2 -14 4.5 -27t6 -28.5t5.5 -26.5q7 -29 11 -84q2 -16 3 -31.5t0.5 -32.5t-0.5 -28t-2.5 -31t-3 -27t-4.5 -31t-4.5 -29t-5.5 -33.5t-6 -32.5q-3 -21 -16 -50t-23 -36q-6 -7 -20.5 -33.5t-20.5 -32.5 q-9 -9 -12.5 -34.5t-11.5 -34.5q-16 -20 -52.5 -54t-39.5 -37q-4 -6 -21.5 -22t-21.5 -16q-3 1 -8.5 -4t-12 -11t-10.5 -8q-31 -19 -68 -35q-4 -1 -33 -16q-24 -12 -28 -12q-2 -1 -13.5 -2t-21.5 -3t-12 -6q-5 -12 -88 -12q-22 -2 -75.5 -0.5t-74.5 0.5q-19 0 -55 12 q-6 1 -41 11q-3 0 -13.5 4.5t-13.5 5.5q-3 0 -23.5 8t-23.5 12q-5 7 -16 15t-24.5 16t-18.5 12q-49 33 -88 78q-13 13 -26.5 49t-20.5 47q-21 40 -18 88.5t20 92.5q8 25 26 43q3 3 11.5 8t16 9t7.5 5q-1 6 41.5 13t79 7.5t41.5 -8.5q37 -22 43 -28q1 -1 16 -8.5t23 -15 t8 -15.5q0 -3 5 -11t5 -10q9 -21 12 -43q0 -51 -4 -55q-4 -3 -9 -14t-5 -17q0 -24 -41 -47q-2 -1 -14.5 -7.5t-16.5 -13t-2 -16.5q1 -5 10.5 -7.5t12.5 -6.5q27 -20 41 -25q6 -2 30.5 -7t45 -11t22.5 -10q3 -3 43 -1.5t47 3.5q33 4 58 12q14 6 32.5 18.5t24.5 20.5 q24 18 33 29q12 15 22 22l31 31q2 3 13.5 14.5t21.5 23t14 19.5q1 2 2.5 11.5t4 17.5t5.5 10q5 3 10 28.5t11 26.5q7 3 14 34t12.5 61t8.5 30q4 -1 5 41.5t-1.5 89t-7.5 54.5zM844 1223q-1 0 -16 7t-17 7q-8 2 -27 17t-32 16q-3 0 -30 6t-46 9t-25 -1q0 -1 -19.5 -4 t-41.5 -7t-27 -7q-2 -1 -10 -3.5t-14 -5t-7 -2.5q-3 1 -18 -9t-20 -11q-11 0 -28 -20.5t-20 -22.5q-18 -18 -34.5 -50.5t-22.5 -58.5q-17 -57 -14 -118q0 -96 12 -103q4 -2 12.5 -20.5t12.5 -22.5q24 -31 20 -35q-1 -6 21 -19t49 -25l26 -13q33 -23 92 -28.5t99 3.5 q16 3 63 31q4 2 15.5 8t19 10t16.5 10.5t13 12.5q2 3 30.5 39t36.5 57q27 68 21 93q-1 5 -3 18t-3 18q-1 6 0.5 29.5t-4.5 24.5q-2 2 -5.5 18t-5.5 19q-3 10 -10.5 26.5t-9.5 22.5q-6 11 -27 37q-5 6 -10.5 23t-11.5 24z" />
<glyph unicode=":" horiz-adv-x="466" d="M274 -10q-23 -13 -70 -8t-61 30q-4 6 -19 22t-18 21t-9.5 37.5t-6.5 36.5q0 8 3 28t7 21q3 1 13 17t10 18q28 35 78 49q41 15 96 -14q38 -22 63 -74q27 -59 2 -108.5t-88 -75.5zM274 510q-23 -13 -70 -8t-61 30q-4 6 -19 22t-18 21t-9.5 37.5t-6.5 36.5q0 8 3 28t7 21 q3 1 13 17t10 18q28 35 78 49q41 15 96 -14q38 -22 63 -74q27 -59 2 -108.5t-88 -75.5z" />
<glyph unicode=";" horiz-adv-x="499" d="M365 231q12 -20 16 -32q18 -41 18 -76q3 -76 -28 -129q-6 -10 -19.5 -31t-19.5 -31q-1 -2 -9.5 -10t-16.5 -15t-7 -9q0 -4 -7 -10.5t-11 -8.5q-18 -11 -31 -16q-47 -22 -78 -27q-18 -3 -33 2q-2 1 -12.5 2.5t-15.5 7.5q-9 9 -13 35q-6 32 -2 39q3 4 12.5 6.5t12.5 5.5 q23 14 31 17q39 20 45 49q3 7 -4.5 9.5t-16.5 2.5q-3 2 -11.5 8.5t-14.5 8.5q-3 4 -12.5 10.5t-12.5 9.5q-7 7 -23 31q-30 45 21 129q14 24 35 39q16 8 22 16q6 10 33 10q33 0 63 -6q5 -1 14.5 0t14.5 0q20 -4 33 -14q4 -4 13.5 -11.5t13.5 -11.5zM307 520 q-22 -13 -68.5 -7.5t-60.5 30.5q-4 6 -19 22t-18 21q-4 5 -10 36.5t-6 36.5q0 8 3 28.5t7 21.5q3 1 13 16.5t10 17.5q29 36 78 50q39 14 96 -15q23 -13 36 -29t25 -44q29 -59 4 -109t-90 -76z" />
<glyph unicode="&#x3c;" horiz-adv-x="772" d="M596 1018q3 5 8 8q21 -8 27 -16q4 -5 8 -25q1 -6 1 -18t1 -17q1 -3 1 -16t3 -19q2 -6 4 -20t2 -16q0 -23 2 -33q4 -21 2 -33q0 -4 -1.5 -7.5t-3.5 -5t-6.5 -4.5t-6.5 -5h-12q-9 -6 -15 -9q-8 -4 -32 -12q-12 -5 -34.5 -16.5t-33.5 -16.5q-3 -2 -68 -30 q-12 -5 -35.5 -12.5t-35.5 -12.5q-13 -5 -31 -16q-6 -5 4 -11q1 0 2 -0.5t2 -1.5q20 -10 66 -22q94 -32 141 -56q8 -3 28.5 -10.5t30.5 -11.5q21 -10 29 -12q25 -4 27 -19q2 -9 -8 -28q-1 -5 -0.5 -8t3 -8.5t3.5 -8.5q1 -5 5.5 -11t6.5 -9q1 -5 -2.5 -9.5t-3.5 -9.5 q0 -7 1.5 -20t1.5 -23t-3 -18q-1 -2 -1.5 -7t-1.5 -8.5t-3 -5.5q-3 -6 -10.5 -9t-12.5 3q-3 6 -10 10.5t-12.5 6.5t-15.5 5.5t-13 4.5q-29 9 -72 28q-32 13 -110.5 43t-120.5 47q-78 34 -125 48q-35 9 -55 32q-7 7 -7 29q0 27 -2 41q0 4 -3 13t-3 14v30q0 6 -3 16.5t-3 16.5 q2 13 14 25q10 5 29 15t29 15q34 15 69 33q10 7 52 25q8 3 24.5 11t24.5 11q19 8 50 26.5t42 24.5q27 13 94 52q39 22 47 28q4 3 11.5 9.5t11.5 9.5q8 4 8 6z" />
<glyph unicode="=" horiz-adv-x="888" d="M795 784q0 -5 1 -17t1 -20.5t-2 -18t-7 -15.5q-8 -14 -24 -11q-19 3 -37 0q-51 -10 -131 -10h-74q-26 2 -76 -2q-5 -1 -11 -1t-13 0.5t-10 0.5q-7 0 -20 -1t-19 -1q-24 -2 -76 2q-12 0 -52 1.5t-61 0.5q-5 0 -14 -1t-14 -1q-38 0 -43 2q-1 0 -3.5 0.5t-3.5 1t-1.5 2 t-0.5 4.5q0 6 -3 16.5t-3 16.5q-5 25 -2 33q2 14 -2 70q-6 28 0 38q1 2 5 5.5t5 5.5q3 2 25 2q16 0 49 1t51 1h99q9 0 27 -1t26 -1t24.5 1t24.5 1q15 -2 43 2h47h49q10 -1 47 4h50q4 0 9.5 2t8.5 2q4 0 11.5 -2t11.5 -2q8 -1 34.5 1.5t28.5 2.5q7 1 12 -1.5t7 -8t3.5 -10.5 t2 -12t0.5 -9q3 0 1 -37zM795 504q0 -2 1.5 -21t-0.5 -31t-8 -20q-8 -11 -24 -8q-12 2 -37 -2q-55 -8 -131 -8l-37 -1q-37 -1 -37 1q-26 0 -76 -4q-7 -1 -19 0.5t-15 1.5q-28 -4 -39 -4q-12 0 -37 1t-39 1q-94 5 -113 4q-10 -2 -28 -2q-2 0 -11.5 -1t-18.5 -1t-13 2l-4 2 l-3 1.5t-1.5 2t-0.5 4.5q0 5 -3 15.5t-3 15.5q-4 27 -2 34q3 15 -2 68q-6 31 0 41q1 1 5 4t5 4q4 4 25 4q16 0 49 1t51 1q17 0 50 -1t49 -1h53h49q7 0 21.5 1t21.5 1q14 2 47 2t49 -2q8 0 24 2t23 2q34 0 50 2q4 0 9.5 1t8.5 1q4 0 11.5 -2t11.5 -2q28 0 63 7q7 1 12 -2 t7 -8.5t3 -10t2 -11.5t1 -9q2 -11 2 -24t-1 -28.5t-1 -23.5z" />
<glyph unicode="&#x3e;" horiz-adv-x="770" d="M174 1010q1 -3 8 -6q4 -3 11.5 -9.5t11.5 -9.5q36 -22 49 -29q47 -29 92 -51q11 -6 42 -24.5t50 -26.5q8 -3 24.5 -11.5t24.5 -11.5q47 -21 52 -24q35 -18 69 -33q10 -5 29 -15.5t29 -15.5q12 -12 14 -24q0 -6 -3 -16.5t-3 -16.5v-31q0 -5 -3 -13.5t-3 -12.5 q0 -7 -1 -20.5t-1 -20.5q0 -22 -7 -29q-21 -24 -55 -33q-54 -16 -125 -47q-38 -16 -114.5 -45.5t-114.5 -44.5q-4 -2 -31 -13t-41 -16q-3 -1 -14 -4t-16 -5t-12 -6.5t-11 -10.5q-3 -6 -11.5 -3t-11.5 9q-2 2 -3 5.5t-1.5 8t-1.5 6.5q-3 8 -3 18.5t1.5 23.5t1.5 20 q1 5 -2.5 9t-1.5 9q1 4 5 10.5t5 10.5q1 3 3.5 8t3.5 8t0 8q-10 21 -9 29q2 14 27 18q5 1 29 13q10 4 30.5 11.5t28.5 10.5q47 24 141 56q46 12 66 22q1 1 5 3q5 2 5.5 3.5t-2.5 5.5q-25 15 -29 17q-13 5 -36.5 12t-36.5 12q-59 26 -68 31q-11 5 -33.5 16.5t-33.5 16.5 q-25 8 -31 12q-11 4 -15 8h-14q-2 1 -4.5 3t-3.5 3t-3 2.5t-3 3l-2 3t-1.5 3.5t-0.5 5q-2 11 2 33q1 5 2 16t2 16q0 27 4 37q3 6 3 19t1 16q1 5 1 17t1 18q4 18 8 24q8 10 29 17q4 -4 6 -8z" />
<glyph unicode="?" horiz-adv-x="1052" d="M954 1081v-22q0 -21 -4 -21v-51q-16 -32 -26 -47q-4 -8 -12 -19t-13 -20q-1 -2 -1 -11.5t-3 -15.5q-6 -8 -18 -16q-2 -5 -7 -15t-7.5 -14t-8.5 -9t-16 -9q-13 -13 -23 -16q-16 -16 -29 -11q-6 -3 -10 -10.5t-8 -11.5q-16 -14 -49 -33q-14 -14 -33 -22q-3 -1 -6.5 -6 t-5.5 -5q-2 -2 -5.5 -4.5t-4.5 -9.5q-2 0 -7.5 -7.5t-10.5 -15t-7 -6.5q-3 -6 -7 -12.5t-7 -15.5q-16 -13 -23 -33q-1 -2 -2 -7t-2 -7q-4 -9 -8 -23v-6q-1 -4 -3.5 -7.5t-2.5 -6.5q-3 -9 -2 -11q-4 -7 -3.5 -11t-0.5 -9q-2 -6 -12 -3l-9 3q-12 6 -39 6h-41q-1 0 -5 -2t-7 -3 l-7.5 -2.5l-7.5 -2.5t-6 -1t-4.5 1.5t-1.5 3.5q0 8 -4 16v10q0 2 -1 6t-1 9t1 8.5t1 7.5q-4 19 2 33q2 5 4.5 12t4.5 12.5t6 10.5q3 4 6.5 17.5t7.5 19.5q12 16 16 20q0 4 1 12.5t1 12.5q3 15 6 24q10 25 21 35q14 8 27 29q2 4 7 10t7 10q3 2 6 9t6 10q14 8 21 20 q0 17 12 25q1 5 7.5 14.5t8.5 13.5q8 4 17 23t14 24q2 16 23 48q-1 6 2.5 20.5t3.5 20.5q1 6 6 63q-7 22 -8 27q0 1 -4 5t-2 9q-3 1 -4.5 4.5t-4 9t-4.5 9.5q-9 9 -12 20q-1 3 -5 6.5t-3 9.5l-13 13q-2 2 -28 20q-3 1 -8.5 3t-8.5 3q-2 0 -7.5 3t-8.5 3q-3 1 -10 5.5 t-10 5.5q-4 0 -18 2.5t-23 3.5q-19 4 -58 -2q-22 0 -26 -2q-50 -13 -54 -13q-28 -12 -45 -26q-8 -16 -26 -25q-7 -4 -21 -33q-2 -4 -3.5 -11t-2.5 -9t-8.5 -13t-9 -16.5t3.5 -13.5q4 -3 7.5 -0.5t9.5 8t9 6.5q9 1 18 -0.5t13 0.5q5 3 7 2.5t5 -2.5t4 -2t3 1t5 1.5t7 -0.5 q2 0 12 -1t17 -3t12 -6q5 -2 13 -2t11 -2q7 -3 13 -14t10 -15q12 -5 18 -20q1 -3 1.5 -13.5t2.5 -19.5q2 -5 2 -13.5t3 -15.5q7 -41 -7 -79q2 -5 -8 -15q-1 -3 -5.5 -5.5t-6.5 -6.5q-2 -5 -4 -6.5t-8 -2.5t-7 -1q-3 -3 -6.5 -6t-5.5 -5q-5 -7 -14 -14q-6 -7 -13 -10.5 t-19 -5t-15 -2.5q-6 -1 -17.5 -4.5t-15.5 0.5q-8 -2 -12.5 -1.5t-14 3.5t-16.5 4q-4 2 -18.5 3.5t-24.5 8.5q-2 2 -3.5 5t-3 5t-3.5 2q-12 6 -15.5 17t-11.5 18q-1 3 -16 14q-2 3 -4 4t-2.5 1.5t-1 1.5t-0.5 4q-10 2 -15 6q-16 19 -26 45q-1 5 -2.5 17.5t-2.5 17.5 q-4 39 -2 53q0 4 -3 8t-3 8q1 8 -0.5 16.5t-1.5 14.5v11t4 16q5 14 4 16q8 28 19.5 63t15.5 48q3 6 21 36q1 0 16 21l12 10l4 6q5 2 9 11q2 0 6 4q1 1 3.5 7.5t4.5 8.5q17 12 20 11q1 0 3 3q6 3 8 9q11 0 16 8q9 1 24 5t23 5q18 11 51 25q30 5 33 8q1 0 32.5 6t47.5 6 q11 0 23 4.5t20 5.5q5 1 14 0l9 -2q2 1 7.5 -0.5t6.5 -1.5q11 -4 29.5 -5t19.5 -1q6 -6 12 -6q5 -3 19 2q3 -2 6 -3.5t6 -2.5t4 -2q3 -1 25 -3.5t33 -8.5q12 -3 19 -10t19 -13q28 -5 37 -8q22 -6 47 -25q3 -1 5.5 -3t6 -5t5.5 -4q3 -6 16 -10q8 -8 10 -9q3 -6 9 -6 q5 -7 16 -16q2 -2 4 -5t4 -5l4 -6l3 -4.5t1 -2.5q3 -1 2.5 -6.5t1.5 -9.5q7 -2 6 -5.5t1 -10.5q4 -3 10 -17q3 -4 4.5 -13.5t3.5 -12.5q1 -4 3 -11.5t3 -11.5q2 -8 2.5 -21t1.5 -18q1 -8 3.5 -21t3.5 -20t0.5 -18t-3.5 -21zM659 223q4 -9 5 -18t2 -21.5t2 -21.5q4 -11 0 -37 q-3 -3 -4.5 -11.5t-4.5 -13.5q-4 -6 -12 -22q-2 -3 -6 -10.5t-6 -10.5q-2 -2 -8 -14q-4 -4 -13 -14t-12 -13q-3 0 -8 -4.5t-8 -5.5q-2 -1 -12.5 -4t-12.5 -6q-2 0 -10.5 -3.5t-9.5 -4.5q-7 -1 -15 -1t-14 -1q-5 -1 -10.5 2t-9.5 2q-23 0 -29 4q-4 3 -9.5 1.5t-15.5 2.5 q-10 10 -18 14q-2 1 -9 7t-12 6q-37 0 -41 65q0 61 4 96q2 11 11 39q13 29 28 39q-1 3 3.5 6t5.5 4q2 9 12 19q2 2 7 4t7 4q3 1 15.5 8.5t23.5 9.5q1 0 8 2t11 1q6 -2 9 -0.5t9 0.5q30 0 70 -21q10 -5 27 -19t24 -18q5 -3 9 -12t5 -10q3 -3 12 -19z" />
<glyph unicode="@" horiz-adv-x="1607" d="M1528 864q12 -70 12 -104q-1 -19 -5 -53.5t-5 -51.5q-3 -67 -14 -106q-3 -10 -17 -43q-9 -22 -22 -45t-24 -38t-30 -40.5t-28 -38.5q-50 -48 -168 -80q-74 -19 -131 -4q-50 14 -105 59q-24 32 -73 -4q-6 -5 -16 -15.5t-18 -17.5t-14 -10q-56 -25 -98 -28q-117 -9 -207 84 q-21 24 -49 78q-34 62 -41 90q-8 86 -8 122q0 21 14 93q14 80 49 139q72 111 146 164q84 60 184 57q93 -15 148 -55q1 -1 4.5 -8t7 -13t6.5 -6q5 12 12 40t15 38t26 6q11 -2 30.5 -5.5t36 -6.5t32.5 -6q51 -9 58 -16.5t1 -47.5q-8 -51 -31 -112q-44 -130 -59 -205 q-2 -9 -6.5 -33.5t-6 -35t-4 -32t-2.5 -35t2 -31.5t7 -34q15 -72 63 -72q26 0 62 25q27 21 49 52.5t28 58.5q2 11 13 135q9 115 6 162q-15 151 -64 223q-33 63 -133 112q-96 49 -172 60q-10 1 -29.5 -0.5t-25.5 -1.5q-12 0 -37.5 4t-38.5 4q-25 -1 -71 -10.5t-56 -10.5 q-87 -11 -113 -18q-18 -5 -36 -14t-43 -26.5t-33 -22.5q-5 -3 -16.5 -13.5t-18.5 -13.5q-49 -46 -103 -131t-61 -141q-29 -180 -12 -302q18 -126 90 -217q96 -123 219 -161q57 -17 191 -29q62 -6 209 -2q63 2 178 55q93 42 131 29q30 -10 43 -45q25 -73 -13 -103 q-17 -14 -102 -49q-45 -23 -106 -33q-34 -5 -100 -7.5t-97 -6.5q-17 -2 -53.5 -5t-53.5 -5q-9 -1 -116 6q-5 1 -88 14q-12 2 -49.5 4.5t-55.5 8.5q-42 15 -94 51q-12 8 -56.5 27.5t-64.5 41.5q-5 5 -15 14.5t-13 12.5l-10 10t-10 10.5t-9 10t-10 12.5t-10 14.5t-13 18.5 q-16 24 -28.5 49.5t-26 57.5t-23.5 53q-35 76 -53 145q-16 58 -16 143q0 78 8 117q21 113 65 205q36 79 95 151q48 59 112 111q84 66 180 105q75 30 185 47q102 13 192 8q55 -5 133 -19q4 -1 36 -7.5t48 -14.5q10 -4 40 -15t48 -20q83 -44 148 -115q64 -64 70 -71 q30 -38 53 -92q12 -26 19.5 -54t15.5 -74t10 -55zM858 451q7 7 13 19t13 30.5t9 23.5q23 50 39 138t21 144.5t5 76.5q0 17 -27.5 25t-62.5 1q-72 -15 -104 -78q-28 -54 -41 -86q-40 -97 -49 -161q-7 -59 4 -101q12 -48 57 -71q17 -9 30 -12t21.5 -4t19 6t15 10.5t18 18 t19.5 20.5z" />
<glyph unicode="A" d="M1759 45q0 -1 -6.5 -6t-14 -11t-9.5 -8q-2 -4 -17 -10t-16 -8q0 -4 -25 -4q-32 -4 -55 4q-47 8 -83.5 7t-98 -5.5t-88.5 -3.5h-123q-39 -6 -52 -2q-9 4 -18 4.5t-21 -1t-18 -1.5q-12 0 -45.5 -0.5t-52.5 0.5t-42.5 8.5t-37.5 22.5q-18 18 -14 41q0 8 -3 23.5t-5.5 28.5 t-2.5 26.5t6.5 21t20.5 8.5q115 0 166 -2q15 -2 44.5 -2.5t39.5 -1.5q14 -1 19 10.5t3 23t-6 23.5q-7 21 -25.5 70.5t-27.5 75.5q-1 2 -7.5 22t-12.5 35t-9 15q-2 0 -4.5 10.5t-4.5 22t-3 12.5q-1 6 -8 10l-8 4q-3 6 -16.5 8t-26.5 2t-31 -1t-23 -1q-26 1 -80.5 -3t-78.5 -3 q-24 2 -54.5 2t-67 -1t-54.5 -1q-47 4 -58 -23q-3 -6 -12 -51q0 -9 -19 -47q-3 -8 -11.5 -40t-16.5 -44q-20 -34 -21 -45q0 -1 -5 -12.5t-10 -22t-7 -12.5q-8 -5 -11 -18.5t3 -22.5q3 -4 11 -4.5t19.5 1t12.5 1.5q69 3 137 12q44 5 123 -4q-1 -5 2.5 -17t3.5 -16 q1 -10 -2 -30q0 -2 -1 -23.5t-4 -38t-8 -18.5q-1 -1 -4.5 -11t-5.5 -12l-18 -6q-8 -3 -26.5 -7t-26.5 -7q-2 -3 -24 -0.5t-26 2.5q-16 1 -45.5 2t-44.5 2q-43 0 -96 -6q-61 -2 -75 -2t-64.5 3.5t-73.5 4.5q-71 5 -84 4q-50 -7 -80 2q-8 1 -24 1t-29 2t-23 9q-5 5 -12 39 q-4 7 -1 43.5t3 44.5q0 21 11 29.5t23.5 7t33 -6.5t28.5 -5q16 -2 50 -2q8 -1 22 1.5t21 2.5q14 2 24 14q4 4 10.5 5t16 0t12.5 -1q14 2 23.5 24t11.5 24q6 7 9 31t9 28q5 5 16.5 31t18.5 34q3 4 11.5 11t11.5 13t2 15q0 2 -1.5 9.5t-2 11t0 10t3.5 12.5q7 13 15 36t13 34 q17 52 21 55q9 7 15 28t14 28q10 8 24 65q1 8 6 23.5t6 23.5q1 3 8 15t7 16q-1 6 15.5 29.5t17.5 33.5q0 16 7.5 35t19.5 41t16 31q19 40 32 72q11 22 11 34q0 6 4 15t10 19t6 11q4 6 31 60l37 55q8 9 29.5 33t29.5 33q8 8 20 26t15 29q3 8 16 22.5t21 20.5q9 6 19 24.5 t15 22.5q7 5 12.5 20.5t12.5 20.5q6 5 16 6.5t26 0.5t17 -1q3 0 35 -4q6 -3 16.5 -0.5t16.5 2.5q10 0 17.5 -1.5t13.5 -5.5t9.5 -6.5t7.5 -11.5t5.5 -12t5.5 -15.5t5 -16.5q2 -6 2 -14t-1 -18.5t-1 -15.5q0 -20 14 -34q23 -23 33 -70q0 -11 16 -47q4 -5 9 -22.5t9 -20.5 q11 -12 16.5 -23.5t6.5 -19t4 -31.5q6 -35 23 -74q6 -18 20 -55t24.5 -66.5t16.5 -54.5l59 -164q1 0 13 -35.5t14 -43.5q1 -5 5 -16t6.5 -19.5t2.5 -12.5q-2 -12 9.5 -32t11.5 -29q0 -7 9.5 -23t10.5 -20q10 -30 11 -31q4 -4 14 -24q1 -3 5 -30t9 -30l17 -34q11 -35 26 -66 q1 -2 4 -11t6 -15t7 -7q6 -2 54.5 -6t53.5 -6q25 -9 43 -5t37.5 3t32.5 -16q9 -9 20 -53t-4 -52zM1034 717q-2 14 -14 47t-19 37q-3 3 -6 18.5t-6 18.5q-8 8 -24 65q-5 13 -16 54t-19 57q-17 39 -21 57q-8 49 -18 59q-9 10 -19 0.5t-19.5 -26t-12.5 -17.5t-6 -11t-6 -22.5 t-3 -13.5q-15 -41 -16 -45l-18 -54t-23 -64q-1 -4 -7 -17.5t-7 -19.5q-2 -11 -14.5 -33t-12.5 -33q-4 -26 -31 -74q-15 -27 17 -27q13 0 42 5q21 4 27 4q123 -6 144 -4q11 2 25.5 0t30 -1t28 3t19.5 11.5t5 25.5z" />
<glyph unicode="B" horiz-adv-x="1714" d="M1260 733q0 -21 77 -31q16 -3 40 -13.5t32 -18.5q5 -7 15.5 -15.5t17.5 -9.5q6 0 14 -4.5t17 -13t16 -15t15 -15t9 -9.5q100 -100 89 -230q-17 -141 -52 -200q-17 -34 -77 -76q-9 -6 -31.5 -13t-30.5 -10q-5 -3 -17 -11.5t-22.5 -14t-17.5 -4.5q-1 0 -6 -3t-7 -3 q-21 -7 -73 -15q-91 -14 -115 -14q-21 -1 -70.5 2.5t-74.5 1.5q-24 -3 -80 -0.5t-80 0.5q-71 -5 -162 -2q-5 0 -67.5 -1.5t-65.5 1.5h-158q-18 0 -52 -2.5t-60.5 -2.5t-49.5 5q-2 0 -10 -0.5t-15.5 -1t-16 -0.5t-14.5 1.5t-7 4.5l-18 18q-15 10 -7 41q2 9 -3.5 32t-4.5 32 q4 34 46.5 43.5t90.5 3t88 -5t41 21.5q1 10 3.5 30.5t2.5 30.5t-1 32q-5 29 -5 69q0 8 3.5 44t-0.5 42q-6 30 -5 82t0 82q-4 24 -1.5 100.5t1.5 102.5q-3 54 2 98q5 17 2 82t-2 82q4 106 -4 178q-2 16 -11.5 24.5t-20.5 -1.5q-6 -11 -31 -15q-7 -1 -25 -2t-24 -2 q-47 -3 -86 4q-18 3 -25 4.5t-14.5 9t-9.5 21.5q-17 108 22 133q13 9 29.5 11.5t30.5 1t32 0.5q15 3 42 -0.5t38 -2.5q10 1 31 4.5t31 4.5q183 6 335 -4q51 -4 74 0q81 13 90 2q7 -12 47 -2q36 4 76 2q21 -2 60 -1.5t55 -0.5q2 -1 19 2t18 -2q7 -7 24 -7q38 0 80 -20 q4 -2 14.5 -7.5t18.5 -8.5t12 -3q6 -1 15.5 -9.5t15.5 -8.5q7 -1 15 -6.5t17 -14t11 -10.5q3 -2 18 -11t23 -17q1 -1 15.5 -17t21.5 -26q24 -35 22 -37l11 -23q8 -8 16 -47q1 -6 5.5 -25.5t6 -28.5t3.5 -28.5t-1 -25.5q-2 -8 -3 -26.5t-3 -27.5q0 -1 -3.5 -13.5t-6.5 -22 t-6 -9.5q-5 -2 -11.5 -27t-17.5 -28q-3 -1 -9 -10t-13.5 -19.5t-10.5 -13.5q-5 -4 -16 -14.5t-16 -14.5q-1 -1 -19.5 -15.5t-19.5 -16.5q-1 -5 -13 -11.5t-28 -13t-17 -6.5q-4 -1 -22.5 -5.5t-32.5 -10t-18 -13.5zM717 815q152 -6 201 2q10 1 32.5 -1.5t30.5 -2.5q23 0 59 8 q17 4 47 6.5t46 6.5q41 17 51 28q8 13 24.5 27t24.5 29q4 9 13.5 24.5t13.5 24.5q25 66 -13 161q-20 46 -55 78q-3 3 -35 27q-9 8 -39.5 15.5t-38.5 15.5q-3 4 -33.5 1.5t-35.5 6.5q-5 6 -41 2t-41 -10q-9 -9 -74 -9q-11 -1 -45.5 -1t-46.5 -1h-4h-7.5h-9.5h-9.5t-8.5 0.5 t-6 1.5t-2 2q0 5 -12 9t-26 1t-18 -14q-4 -21 -4 -29.5t3.5 -29.5t3.5 -27q0 -31 -11 -37q-8 -4 -14.5 -10.5t0.5 -13.5q21 -7 25 -23t2 -45q-1 -10 1 -58.5t-3 -57.5q-2 -9 2.5 -31t3.5 -31q-3 -20 0 -31q2 -6 5.5 -9.5t9.5 -4.5t10.5 -1t12.5 0.5t11 0.5zM715 174 q12 3 114.5 -0.5t145.5 -5.5q11 -1 21 0.5t16 3.5t8 2q18 0 49.5 5.5t48.5 4.5q8 -1 30 6.5t28 8.5q3 1 26 12q29 15 39 27q4 4 14.5 13t14.5 13q6 5 12 19t12 18q13 11 13 57q0 2 2.5 18t3 23t1.5 20.5t-1 23.5t-6 18q-6 13 -15 38t-18 42t-25 30q-1 1 -10 6.5t-17 11 t-8 7.5q-22 12 -24 12q-10 3 -30.5 5t-29.5 5q-4 2 -15 10.5t-19 10.5q-14 4 -45 4q-74 -3 -101 -10q-24 -6 -67 -6q-56 0 -62 -6q-3 -2 -35 0t-56.5 4t-29.5 -4q0 3 -9 -2.5t-18 -12.5t-9 -8q-11 -11 -11 -20q0 -7 7 -16t8 -13q0 -5 2.5 -18.5t2.5 -24t-5 -14.5 q-1 -3 -0.5 -9t1.5 -15l1 -9q6 -49 -2 -60q-6 -13 -6 -20t4.5 -22.5t5.5 -20.5q0 -9 1 -25t1 -24q0 -7 -2.5 -25.5t-3 -33t2 -30t13.5 -22t31 -2.5z" />
<glyph unicode="C" horiz-adv-x="1585" d="M1225 1233q7 4 8 12t-1.5 20t-2.5 15q-1 6 3 21.5t3 23.5v43q0 50 6 66q18 12 39.5 14t55 -3t42.5 -5h66q13 0 20.5 -14.5t-0.5 -26.5q-7 -8 -7 -39.5t-1 -36.5q-3 -11 -8 -45q0 -86 2 -102q5 -12 4.5 -86.5t-0.5 -85.5v-16.5v-20t-0.5 -19t-1.5 -21t-2.5 -19t-4 -20 t-6.5 -16.5t-9 -16q-9 -10 -36 -14t-36 2q-8 6 -52 4.5t-49 3.5q-24 20 -32 41q-5 10 -12.5 30.5t-12.5 30.5q-12 34 -20 43q-2 1 -6.5 11t-6.5 12q-2 5 -10 14.5t-10 14.5q-4 8 -15.5 21.5t-15.5 23.5q-19 38 -29 43q-3 3 -22.5 27.5t-34.5 29.5q-38 19 -41 27 q-3 7 -21.5 17.5t-27.5 12.5q-25 5 -31 11q-10 10 -38 12t-37 6q-12 5 -28.5 5.5t-37 -1t-31.5 -0.5q-21 0 -52.5 -14t-43.5 -17q-9 -2 -18.5 -7t-20.5 -12.5t-18 -13t-19.5 -15.5t-15.5 -13q-9 -8 -15.5 -17.5t-14 -24t-11.5 -20.5q-20 -30 -25 -51q-2 -6 -12 -24t-10 -27 q-1 -7 -8.5 -22t-8.5 -23q-1 -2 -5.5 -24t-8.5 -29q-12 -32 -12 -60q-1 -18 -5 -50t-5 -50q-1 -37 0 -52t5 -52.5t5 -51.5q3 -31 10 -73q2 -10 11 -23.5t10 -17.5q3 -8 8 -21.5t9 -25t7 -21.5q1 -5 7 -17.5t7 -17.5q0 -9 16 -32t15 -29q-1 -3 2.5 -8t9 -11t11 -11l11 -10 t7.5 -7q8 -8 19.5 -20.5t15.5 -16.5q13 -13 27 -23t36 -23.5t31 -19.5q8 -8 37 -12q9 -2 32.5 -9.5t33.5 -8.5q3 0 12 -3t10 -3q12 -1 66 4q92 0 100 14q2 3 28 9.5t31 10.5q12 12 33 19q52 24 107 90q40 49 63 102q19 44 21 60q0 2 6 20q3 10 2.5 29.5t1.5 30.5 q10 32 155 22q25 -3 31.5 -14t3.5 -37q-1 -14 -7 -41t-7 -35q-17 -74 -55 -162q-3 -8 -7.5 -16t-7.5 -14t-9 -13.5t-8.5 -11t-10 -11.5t-9.5 -10l-10.5 -10.5l-9.5 -9.5l-53 -53q-15 -15 -72 -53q-35 -25 -43 -29q-7 -3 -29 -9t-32 -12q-21 -6 -41 -16l-27 -12q0 -1 -12 -2 t-24 -3t-13 -5q0 -1 -17 -2.5t-36.5 -3.5t-22.5 -3q-10 -4 -37 -4q-95 -4 -141 0q-18 1 -78 19q-44 9 -57 16q-52 22 -60 25q-15 4 -59 26q-1 1 -6.5 5t-10.5 7t-8 3q-3 -1 -16 7t-16 11q-13 15 -44.5 37.5t-39.5 30.5q-10 10 -33.5 36t-32.5 35q-40 46 -37 62q1 9 -19.5 38 t-25.5 44q-3 12 -18 41q0 1 -9 14t-10 20q0 9 -5 31.5t-9 28.5t-6 17t-3 25.5t-1 18.5q-2 10 -3.5 34.5t-4.5 37.5q-4 9 -0.5 35.5t2.5 36.5q0 12 -3.5 34t-3.5 27q-1 18 3.5 45.5t5.5 38.5q7 96 39 162q16 27 16 45q1 9 13 29t14 26q5 16 19 39.5t26 34.5q-2 6 2.5 14.5 t10 14.5t14 13.5t9.5 8.5q4 5 11 10t11 10t7 13q5 11 43 39q3 2 10 6t12 7.5t7 6.5q14 16 57.5 35t57.5 29q6 3 71 26q10 3 23 11t18 10q1 1 11.5 3l21 4t10.5 3q0 4 49 7t60 1q39 -6 53 -2q11 2 35 -0.5t33 0.5q3 2 8 1t6.5 -2t6.5 -4.5t7 -4.5q10 -6 32 -8t30 -4 q1 0 11 -4t19 -7.5t9 -1.5q0 -4 11.5 -8t12.5 -8q1 -5 25 -16t28 -17q4 -5 26.5 -20t40.5 -30t17 -23q0 -3 26.5 -37.5t31.5 -34.5z" />
<glyph unicode="D" horiz-adv-x="1796" d="M156 172q7 8 25 9.5t43.5 -1t29.5 -2.5q14 0 34 1t34 1q5 0 21 -1.5t25.5 -1.5t19.5 5t13 17q5 13 5 43v94q0 10 0.5 29.5t0.5 35.5t-1 31q-1 3 -1.5 11.5t-1.5 15t-4 10.5q-2 5 -1.5 14t2 23t1.5 16q0 8 2.5 21.5t2.5 21.5q0 1 3 12.5t3.5 19t-2.5 9.5q-4 0 -4 31 q-5 53 -9 139q0 20 4 80t2 92q-2 17 3 121q1 16 -5 145q-1 6 -2 14t-2 18.5t-2 15.5q-4 4 -10 5t-13.5 0.5t-11.5 0.5q-54 6 -57 6q-18 1 -40 4t-38 4q-7 1 -25 -1t-29.5 0.5t-16.5 12.5l-5 10t-6 14t-4.5 14t-1.5 14t6 10q4 5 2.5 23t-4.5 20q-3 4 -3 7t2.5 8t2.5 7 q9 23 74 23q23 2 119 2h92q6 0 46 -2.5t48 0.5q25 -4 84 -4q18 0 50.5 -0.5t58.5 -0.5t49 1q16 0 45 3.5t39 4.5q51 0 82 -2q4 0 43 -2.5t45 0.5q73 5 98 -4q64 -21 98 -25q28 -4 71.5 -23.5t62.5 -25.5q6 -2 22.5 -18.5t24.5 -16.5q17 0 43 -26q20 -20 32 -27q4 -2 7.5 -9 t5.5 -9q13 -12 34 -39t31 -37q9 -9 25.5 -32t15.5 -30q-1 -4 7.5 -18.5t9.5 -18.5q2 -5 11 -22t9 -21q0 -6 8 -16t8 -12q2 -3 5 -17.5t6 -27t6 -13.5q5 -1 11.5 -21t6.5 -28q-1 -4 1.5 -22.5t2.5 -24.5q0 -43 7 -55q3 -3 5 -12t3.5 -21t1.5 -14q0 -8 -1.5 -34t-0.5 -40 q6 -56 -4 -78q-3 -8 -6.5 -30t-2.5 -29q2 -3 -6 -19q-1 -9 -2 -22t-2.5 -24t-5.5 -21q-3 -7 -22 -33t-19 -37q0 -41 -18 -61q-3 -3 -6 -13t-7 -14q-20 -20 -32 -35q-4 -3 -12.5 -18t-14.5 -21q-4 -5 -10 -18t-10 -18q-9 -12 -32 -30t-32 -28q-2 -2 -21.5 -11t-21.5 -15 q-1 -3 -12 -10t-13 -9q-17 -12 -47 -22q-16 -5 -51.5 -20t-63 -23.5t-51.5 -10.5q-7 0 -49 -8t-55 -2q-2 4 -13.5 1t-13.5 -3q-25 2 -73 2q-15 0 -40.5 -3.5t-33.5 -4.5q-9 0 -26.5 3t-26.5 3q-8 1 -23.5 -2.5t-21.5 -3.5q-18 -1 -56.5 0t-58.5 0q-44 -2 -101 1t-87 3 q-13 0 -37.5 -1t-44 -1t-35.5 2q-14 2 -36.5 -1.5t-37.5 1.5q-15 2 -39.5 -1t-32.5 -3q-17 -1 -33.5 1t-31 11.5t-12.5 26.5q1 8 -1.5 31.5t-0.5 37.5v35q-1 7 2.5 18t3.5 15zM758 174q47 0 95 3t113 9.5t95 8.5q91 5 168 61q25 15 26 16t14 13t18.5 18.5t13 18t8.5 20.5 q2 11 22 31q15 23 21 51q65 258 14 522q-15 90 -72 180q-4 7 -13.5 20t-12.5 19t-28 24.5t-28 16.5q-3 0 -13.5 10.5t-18.5 10.5q-6 0 -13 2.5t-15.5 6.5t-10.5 5q-42 13 -80 19q-72 14 -119 14l-51 8q0 4 -32 -0.5t-44 -7.5q-51 -4 -78 0q-48 5 -57 -21q-14 -41 -12 -71 q2 -42 4 -137.5t4 -139.5q0 -19 2.5 -67.5t1.5 -73.5q0 -1 -6 -49q-1 -12 2 -35.5t2 -36.5q-4 -26 -4.5 -55t1 -68.5t1.5 -56.5q0 -1 -1 -23t0 -37t5 -20q6 -4 2 -22.5t-2 -24.5q4 -18 -0.5 -58.5t-1.5 -56.5q1 -3 3 -13t3 -13q3 -8 8.5 -12.5t15.5 -6.5t15.5 -2.5t19 0 t15.5 0.5z" />
<glyph unicode="E" horiz-adv-x="1699" d="M1489 1419q1 -15 8.5 -43t7.5 -47q-2 -7 3 -30.5t10 -24.5q4 -2 4 -76q0 -10 -3 -39t-1 -47q0 -6 2.5 -26t5.5 -21q6 -3 6 -43q4 -53 -14 -76q-7 -10 -14 -16t-11.5 -10t-12.5 -6t-12.5 -2.5t-16.5 -1t-19 -1.5q-27 0 -37 -6q-6 1 -17.5 4t-17.5 4q-7 1 -22 -3t-27 -4 t-19 9q-14 20 -14 52q0 2 -0.5 13.5t-0.5 22.5t0.5 23.5t2.5 21t6 9.5q-7 20 -8.5 45.5t0 58t0.5 47.5q-1 10 0 21.5t-2 23t-12 15.5q-2 2 -12 4t-19.5 3.5t-9.5 2.5q1 1 -24.5 1.5t-63.5 0t-76.5 -1.5t-71 -1.5t-39.5 -0.5q-20 1 -58.5 3.5t-57.5 3t-58 -0.5 q-123 0 -123 -8q0 9 -31 -19l-6 -6q-3 -13 4.5 -38.5t8.5 -32.5q1 -12 1 -35t1 -35q0 -7 3 -22.5t3 -22.5q0 -3 -1.5 -12.5t-0.5 -12.5q4 -7 5 -17.5t0 -27.5t-1 -20q0 -61 2 -92q0 -65 12 -70q10 -3 34 -3.5t34 1.5q49 0 59 -2t7 1l-3 3h62q13 -4 32 -2.5t23 18.5 q7 21 -2 52q-6 18 0.5 54t20.5 46q15 6 19.5 6t15.5 -7t16 -9q8 2 20.5 12t16.5 12q68 29 79 8q15 -10 17 -10q4 -2 4 -11.5v-10.5q10 -20 6 -37q-1 -4 -3 -9.5t-3 -8t-1.5 -7.5t1.5 -8q9 -35 6 -45q-6 -22 -0.5 -70.5t2.5 -68.5q-1 -8 -2 -26.5t-2 -24.5q0 -9 -10 -29 q-3 -9 -3 -13.5t3 -14.5t4 -13q4 -13 4.5 -27t-1 -32t-1.5 -27q0 -5 2 -16t2 -17t-1.5 -13.5t-7 -12.5t-14.5 -7q-20 -7 -34 -2q-37 9 -68 2q-32 -5 -61 2q-9 4 -15 13t-7.5 17t-2.5 23.5t-2 20.5q-1 7 0.5 32t0 45.5t-8.5 27.5q-2 1 -8.5 3.5t-11.5 5t-5 5.5q-8 2 -25 10 t-30 8q-7 0 -40.5 -4.5t-33.5 -5.5q-45 -14 -51 -14q-21 -1 -28 -12.5t-9 -36.5q0 -9 1.5 -41.5t0.5 -49.5q-1 -9 -5 -36.5t-3 -44.5q1 -12 3.5 -37t3 -37t-0.5 -33q-1 -17 -2.5 -43t6.5 -51t25 -27l30 2q29 1 29 -2q8 -1 13.5 -8.5t11.5 -9.5q1 -6 5.5 -7t10.5 3t9.5 7 t7.5 7q11 11 22 11.5t25 -3.5q62 -13 123 -10q26 1 133 10t159 8q20 -1 28 8t7 20t-3.5 28t-0.5 26q1 4 5.5 17.5t8 25t2.5 22t-10 13.5q-4 2 -6.5 14t-5.5 13q-5 3 -3.5 20t5.5 23q3 7 2 17t-3.5 25.5t-2.5 18.5q-3 60 8 109q2 10 12.5 15.5t25.5 6t29 0t30 -2t22 -1.5 q73 0 88 -2q51 -9 53 -37q1 -14 2 -41t2 -41q0 -4 -0.5 -18.5t-1 -28.5t0 -29.5t3 -26t7.5 -13.5q6 -7 4.5 -29t-4.5 -31q-4 -10 -3 -50t0 -50q0 -5 -5.5 -33.5t-8.5 -28.5l-4 -26q-5 -26 -14 -53.5t-21 -30.5q-14 -4 -25.5 -20.5t-25.5 -18.5q-10 -2 -63 -2q-11 0 -32 -4 t-24 -4q-4 0 -30.5 5.5t-26.5 6.5t-22 3.5t-29 2.5q-20 0 -78 -8q-11 -1 -35 2t-35 2q-17 -2 -44.5 -2.5t-37.5 -1.5q-85 -3 -174 0q-101 5 -119 4q-30 0 -92 -4h-23h-18h-12t-14 1.5t-14.5 2.5t-22.5 4q-14 1 -40 -3.5t-38 -4.5q-40 -3 -72 8q-49 14 -59 2q-10 -10 -70 -10 q-31 0 -55 17.5t-31 47.5q-8 20 -2 54t29 39q9 1 23.5 7.5t21.5 8.5q20 4 68 4q6 0 25 -2.5t28.5 -2t23.5 3t21.5 12.5t9.5 26q4 40 -6 131q-2 11 -2.5 34t-1.5 30q-1 8 4 53q0 12 -2 37t-2 39q0 9 1.5 27t1.5 32.5t-3 26.5q-3 15 -3 33t1.5 40.5t1.5 34.5q0 19 -2.5 72 t-1.5 82q1 24 1 72t1 73q0 3 0.5 15t1 21t-1.5 18t-6 12q-5 8 -4.5 12t7 13.5t7.5 11.5q6 16 -3.5 54t-8.5 48q4 37 -80 37q-2 0 -24.5 -1.5t-22.5 1.5q-24 4 -37 4q-39 5 -55 14q-5 3 -7.5 6t-4 8t-1.5 6.5v9.5v9q-2 29 4 42.5t29 21.5q1 0 7.5 3t9.5 5t7 6t5 8q4 14 22 19 q16 5 86 10q45 4 66 -2q5 -5 39 -3t41 1q9 -1 27.5 -3t27.5 -3q73 -4 96 0q3 1 74 6q40 7 72 2q7 -1 30.5 0.5t30.5 -2.5q24 -4 61.5 3.5t53.5 6.5q24 -2 52 -3t62 -1.5t52 -1.5q14 0 53 1.5t59 0.5q9 -1 27 -1t31 -1.5t26 -5.5q10 -3 29.5 1.5t28.5 0.5q4 -2 49 -17 q8 -2 21 0.5t18 1.5l22 -1q21 0 33 -5z" />
<glyph unicode="F" horiz-adv-x="1615" d="M1542 1419q4 -4 6.5 -17t4.5 -28t3 -20q6 -30 5 -33q-1 -8 1.5 -20.5t0.5 -22.5q-4 -8 -2.5 -35t0.5 -35q-1 -26 1.5 -74t2.5 -67q1 -15 3 -57t2 -57t-1 -56q0 -4 -0.5 -15.5t-1.5 -19.5t-4 -16.5t-9 -11.5q-9 -8 -16.5 -13t-17.5 -7.5t-16 -3.5t-20.5 -2.5t-23.5 -2.5 q-19 0 -39 4q-10 1 -36.5 0.5t-36.5 1.5q-12 2 -17.5 7t-7 9.5t-2 15t-2.5 17.5q-7 29 -2 53q8 37 6.5 112.5t1.5 117.5q11 82 -4 112q-5 9 -21.5 14.5t-32.5 6.5t-37.5 1.5t-25.5 0.5q-8 0 -19 -3t-22 -1q-30 6 -63 6q-65 0 -191 -4q-75 0 -112 2h-82q-3 1 -10 2.5t-10 2 t-9 1t-10 -1t-9 -4t-10 -6.5q-12 -12 -12.5 -32.5t4.5 -39.5q5 -7 1.5 -47t-3.5 -47q1 -15 3 -43t3 -43q0 -5 1 -25t0 -33t-5 -22q-4 -8 2 -47q2 -7 -0.5 -31t2.5 -31q1 -3 4 -10t4 -8.5t4 -5.5t6 -5t9 -2t14 -1l34 -1q34 -2 34 1q13 2 39 -1t33 -3q3 0 27 -2t42 -1t23 7 q12 16 15 61t3 47q1 2 1.5 13t2.5 20.5t6 11.5q13 19 15 23q13 3 25 3.5t28.5 -0.5t24.5 -1q5 0 21.5 1t28 0.5t21.5 -5.5q11 -4 13 -16.5t-1 -24.5t0 -23q5 -19 5 -73v-93q0 -1 -1.5 -13.5t-2 -21t1.5 -12.5q4 -3 4.5 -18t-0.5 -28.5t0 -20.5q0 -15 -1 -47.5t-1 -49.5 q0 -5 -0.5 -15.5t-1.5 -17t-2.5 -15t-5 -14.5t-9.5 -9q-16 -10 -33 -11.5t-40.5 0.5t-38.5 1q-16 -4 -37.5 -3t-26.5 17q-4 8 -4 38v34q-2 16 -2 55q4 35 -25 35q-11 0 -41.5 -0.5t-48 -0.5t-42.5 1.5t-44 5.5q-40 7 -58.5 -3t-15.5 -48q2 -20 0 -78t5 -76q2 -9 1.5 -30.5 t2.5 -30.5q5 -26 0 -105q0 -5 -2 -21t-2 -24t2 -19t10 -16t22 -4q20 1 57.5 3t68 3t57.5 0q5 0 18 1t21 1t18 -3t16 -9q5 -5 7.5 -14t2.5 -16t-0.5 -19.5t-0.5 -15.5q0 -1 1 -30t-3.5 -48.5t-18.5 -20.5q-5 0 -15 -6.5t-12 -7.5q-1 0 -10 1.5t-14.5 1t-5.5 -4.5 q0 -2 -14 -2.5t-35 -0.5h-41.5t-39 0.5t-20.5 0.5q-55 3 -145 3t-146 3q-6 0 -19.5 -1t-18.5 -1q-32 4 -48 4q-19 2 -81 -3t-80 5q-35 8 -45 27q-2 3 -5.5 15.5t-5.5 14.5q-6 4 1.5 51.5t13.5 57.5q7 12 22.5 17t28 5.5t34 -1t27.5 -1.5q4 0 40 -5t60.5 -2.5t28.5 18.5 q2 6 2 13.5t-1 15.5t-1 12v51q1 36 -0.5 103.5t-1.5 88.5q0 8 3 37t1 43q-6 37 -4 66q1 15 4 48.5t3.5 50t-1.5 48.5q-3 26 -3.5 53.5t0.5 65.5t1 53q0 54 -8 160q-1 25 0.5 68.5t1.5 56.5q0 38 -35 35q-1 0 -8 -0.5t-15 -1t-16 -0.5t-13 1t-5 3q1 7 -21.5 7t-50.5 -3 l-28 -4q-22 -3 -39 13t-15 34q1 9 -5.5 34t-4 43t20.5 25q1 8 29.5 9t54 -1.5t34.5 0.5q4 2 12.5 3t19 2t14.5 2q12 2 61 2q5 0 22 4t25 2q9 -3 15.5 -3.5t16 0.5t15.5 1q27 2 87 -3.5t85 3.5q33 6 98.5 4t96.5 4q12 4 41 0q12 -1 34 -1t33 -1q12 -2 43 2t43 -2 q27 -11 37 -6q18 11 27 6q6 -3 34 1t29 -3q1 -9 19 -1.5t24 5.5q6 -1 25.5 -7.5t25 -6t25.5 3.5q21 7 43 -4q4 -3 8 -3.5t6 0t7 2.5t8 3q7 3 13.5 3t12.5 -1.5t9 -1.5q10 -1 36 0.5t37 -0.5q53 -8 78 -17z" />
<glyph unicode="G" horiz-adv-x="1765" d="M1245 1239q10 5 12 26.5t-1 52t-3 32.5q0 6 0.5 18t1 18t2 14.5t5 14t8.5 10.5q15 15 69 9q4 0 42.5 3t60.5 -3t26 -27q4 -29 2 -41q-3 -13 0 -36.5t0 -35.5q-3 -1 -1.5 -27.5t1.5 -27.5q-1 -6 2 -35t-2 -35q-9 -18 -2 -72t2 -75q-3 -10 0.5 -31.5t2.5 -27.5 q0 -4 2.5 -39.5t-3 -56.5t-22.5 -23q-113 -12 -193 2q-15 16 -21 55.5t-13 52.5l-9 14q-9 13 -14 23t-4 15q1 1 -1.5 6t-6 11.5t-4.5 8.5q-9 18 -23 39q-12 25 -63 76q-27 31 -39 37q-4 1 -18 10.5t-15 9.5q-7 9 -31 23q-4 2 -14.5 6t-20 8.5t-14.5 9.5t-12.5 7.5t-23.5 4.5 t-19 3q-68 15 -82 16q-47 4 -97 -5t-75 -34q-5 -5 -13.5 -10.5t-20 -11t-15.5 -7.5q-9 -6 -22 -28.5t-21 -26.5q-7 -3 -15 -17.5t-10 -25.5q-1 -10 -12 -29t-12 -24t-21.5 -63t-19.5 -87q1 -32 -6 -112.5t-3 -124.5q7 -128 31 -207q3 -10 8 -38.5t11 -39.5q2 -5 5 -18.5 t7 -24t8 -14.5q7 -6 15.5 -24.5t15.5 -24.5t15.5 -17.5t12.5 -15.5q48 -42 56 -47q90 -52 186 -55q51 0 76 2q38 0 43 8q1 1 37 10q39 6 49 14q5 3 24.5 11t22.5 8q6 -1 28.5 9t30.5 17q5 4 11 9.5t12.5 13t9.5 10.5q5 5 14 17.5t11 13.5q1 1 3.5 6t5 9.5t3.5 4.5 q3 -1 7.5 16.5t8.5 37t5 20.5q8 6 9.5 21.5t-0.5 36.5t-1 28q0 21 -16 30t-35 8t-45.5 -4.5t-36.5 -2.5q-33 0 -47 2q-9 1 -42 -3t-42 3q-28 10 -23 57q0 49 -2 62q-5 55 23 61q23 3 34.5 2.5t34 -4t33.5 -4.5q123 -10 369 -2q33 1 82.5 -2.5t62.5 -3.5q39 0 72 2 q6 0 21.5 3t26 4.5t21.5 -2.5t15 -15q12 -33 8 -95q0 -15 -6.5 -41.5t-14.5 -31.5q-9 -5 -19 -5.5t-26.5 2t-23.5 3.5q-13 1 -28 0t-28 0q-14 1 -25.5 2t-25.5 2q-5 0 -16.5 0.5t-16 0.5t-11 -2.5t-8.5 -9.5t-3 -18q-1 -28 2 -84.5t2 -83.5q-1 -22 0 -67t0 -68 q0 -21 2.5 -71t1.5 -77q-1 -15 -5 -24t-12.5 -12.5t-15.5 -4t-20.5 0t-20.5 0.5q-49 -5 -63 10q-2 2 -8 11.5t-9 12.5q-6 6 -12.5 14.5l-13 17t-8.5 11.5q-55 51 -123 27q-5 -2 -13.5 -6t-13.5 -6q-5 -4 -13 -5.5t-18 -3t-16 -2.5q-35 -12 -72 -38q-73 -47 -102 -43 q-6 1 -20 -5.5t-21 -5.5q-2 0 -8 -3t-8 -3q-3 -1 -18 0t-28 0.5t-16 -4.5q-5 -5 -42 -6.5t-40 4.5q-2 4 -15 6t-30 2.5t-20 1.5q-17 3 -32.5 7t-36 10.5t-30.5 9.5q-8 1 -24.5 8.5t-22.5 7.5q-8 0 -15.5 4.5t-16 12.5t-11.5 10q-5 4 -21 13.5t-22 17.5q-12 17 -47 32 q-26 14 -59 56q-94 101 -131 215q-3 6 -9.5 15t-9.5 15q-5 12 -9 37t-9 37q-19 64 -21 68q-4 8 -2.5 28t-1.5 31q-3 15 -1.5 46t-2.5 44q-2 6 -0.5 28t4.5 25q4 5 -0.5 21.5t0.5 19.5q4 4 4 41q1 10 1.5 30t3 35.5t8.5 27.5q1 2 6.5 15t10 24.5t3.5 11.5q4 0 8.5 19 t8.5 40.5t4 22.5q9 25 20 37q8 6 16.5 27.5t16.5 25.5q4 3 10.5 19t11.5 22q6 8 17.5 26.5t17.5 26.5q10 18 47 55q42 42 52 39q6 -1 12 10t12 11q8 0 23 16.5t24 17.5l13 9q4 3 10 5t14 4l12 3q22 5 60 20t49 19q17 7 41 10.5t55 5.5t45 4q23 2 60.5 -3.5t48.5 -6.5 q43 -3 86 -22q2 -1 38.5 -11t53.5 -24q79 -59 102 -80q7 -8 20.5 -21.5t18.5 -19.5q3 -3 10 -14.5t14 -19t15 -5.5zM1171 109q-2 12 -12.5 15t-13.5 -13q-3 -18 11 -20q12 -2 15 10q1 4 0 8z" />
<glyph unicode="H" horiz-adv-x="1992" d="M944 1425q6 -4 7 -13.5t-1 -22.5t-2 -15q0 -12 -2 -38t-2 -38q1 -9 -2.5 -21t-3.5 -17q-1 -8 -20 -12t-48.5 -4.5t-57.5 1t-54 3t-31 1.5q-4 0 -22 1t-30.5 0t-19.5 -5q-3 -3 -5 -8t-3 -9.5t-1 -12t0.5 -11t1.5 -11t1 -9.5q6 -10 2 -89t-4 -89q0 -21 2 -71t2 -73 q0 -2 -1 -10.5t-1 -13.5t3.5 -11t11.5 -8q10 -3 25 -3t33.5 1.5t27.5 1.5q55 -2 168 2.5t161 3.5q11 0 30.5 0.5t35 0.5t29.5 -1q44 -6 90 -6q22 0 33 2t20.5 12t11.5 31q3 90 0 183q-1 17 1 83.5t-5 83.5q-4 23 -15.5 29t-39.5 6q-70 0 -84 -2q-14 -1 -37.5 0.5t-32.5 1.5 q-6 0 -25 -4t-28 -2q-27 4 -27 55q0 4 -3.5 39t-0.5 57t17 29q20 12 63 8t66 3q13 4 39 -4.5t40 -2.5q17 8 37.5 12.5t40.5 -0.5t25 -24q2 -9 7 -11.5t10.5 0t11 6.5t10.5 7.5t8 3.5l14 4q3 7 58 7q21 -2 44.5 1t41.5 3q11 0 35 1.5t41.5 1t33.5 -4.5q34 -7 72 -7 q4 0 15 0.5t17.5 0.5t14.5 -2t14 -7q5 -4 12.5 -10.5t9 -8.5t6.5 -8t4 -9t1.5 -12.5t-0.5 -18.5q-6 -69 -12 -80q-3 -3 -15.5 -11t-15.5 -8q-11 -4 -20.5 -5t-26 0t-22.5 1q-59 0 -74 4q-25 6 -49 -2q-8 -4 -13.5 -9.5t-7.5 -15t-2.5 -14t0 -18.5t0.5 -16q3 -44 0 -84 q-9 -70 -4 -76q3 -4 4.5 -19.5t-0.5 -19.5q0 -6 0.5 -18t0.5 -21.5t-1 -17.5q0 -8 2.5 -28t1.5 -30q0 -11 2 -10l1 1q1 0 1 -3q0 -8 -2.5 -13t-8 -10.5t-7.5 -9.5q-4 -8 4.5 -27.5t7.5 -27.5q-1 -10 1.5 -30.5t2.5 -28.5q-1 -18 0.5 -49.5t1.5 -41.5q0 -23 -4 -69 q-4 -11 -1.5 -42t1.5 -42q0 -13 4.5 -80t-0.5 -78q-7 -45 -4 -82q0 -43 21 -47q11 -3 24.5 -3.5t23 0t26.5 2t24 1.5q12 1 35.5 3.5t38 4t31.5 -2.5t28 -15q19 -21 16.5 -67t-20.5 -64q-4 -4 -12.5 -16.5t-17.5 -19.5t-23 -9q-18 -4 -85 0t-85 4q-72 0 -86 2q-32 5 -39 4 q-18 -3 -25.5 -3.5t-19 0.5t-25.5 1q-33 1 -92 -0.5t-78 -1.5q-21 0 -57 4q-3 1 -19 9.5t-22 6.5q-38 -10 -64 -8q-27 2 -35.5 9.5t-11.5 33.5q-7 23 -5.5 71.5t26.5 51.5q48 7 182 2q4 0 37 -3t37 1q9 4 16.5 19.5t-0.5 23.5q-6 5 -6 21.5t3 37t3 25.5q0 12 -3.5 42.5 t-2.5 47.5v119q0 12 2.5 38t2.5 46.5t-5 34.5q-9 20 -37 20q-14 -1 -41 -1t-41 -1q-27 -2 -75 -1.5t-72 -0.5q-12 -1 -45.5 3t-46.5 3q-6 -1 -17.5 -3.5t-17.5 -3t-19 0.5q-31 4 -68.5 5.5t-82.5 1.5t-64 1q-58 0 -51 -69q1 -11 5.5 -59.5t4.5 -62.5t-2 -59q-3 -27 2.5 -80 t4.5 -75q-2 -27 -2.5 -47t13.5 -30t46 -7q3 0 29.5 6t42.5 6q29 -2 88 -2q3 0 12 0.5t15 0.5t14 -1t13.5 -4.5t8.5 -9.5q5 -11 5.5 -23t-1.5 -27.5t-2 -23.5q1 -27 -1.5 -38t-14.5 -32q-5 -9 -22 -12t-37 -3t-25 -1q-13 -3 -37.5 5.5t-30.5 8.5q-9 0 -33.5 -5t-35.5 1 q-33 5 -47.5 4t-42.5 -4.5t-48 -3.5q-2 0 -22 -2.5t-37 -2.5t-21 5q-10 6 -23 5t-36 -5t-29 -4q-27 0 -84 2t-84 2l-28 4q-4 1 -12.5 11.5t-10.5 15.5q-13 1 -21.5 9t-12.5 23.5t-5 23t-2 24.5q-1 32 19.5 41.5t56.5 9.5q14 -1 40 1t38 1q29 -4 43 -2q15 0 27 6q8 0 20 -4 q9 2 15 9t8 19t2.5 20t0 23t-0.5 17q-7 70 -4 131q0 31 -2.5 94t-2.5 92q-1 11 5 70q0 6 -2 28.5t-1 35.5q3 18 -5.5 62.5t-0.5 64.5q5 7 3 40.5t-1 40.5q0 14 -1 42t-1 44q0 1 0.5 69t-0.5 69q-4 56 -8 86q-1 22 -19 26.5t-38 -0.5q-96 -10 -133 -2q-25 5 -38 13t-20 28 q-8 16 -4 49q1 2 2.5 8.5t3 12.5t2.5 6q2 0 5 5l2 5q2 3 4 5.5t3.5 4t4 2.5t3.5 1.5t4.5 1.5t4.5 1t5.5 0.5t6.5 0.5q4 0 24 5t38.5 12t17.5 11q0 3 35.5 7t40.5 2q35 0 66 8q6 1 18 0t18 0q6 0 23.5 -3t24.5 -3q7 1 23.5 3t27.5 2t24 -5q27 -3 39 -2.5t51.5 6.5t59.5 8 q21 2 62 -4.5t63 -3.5q5 0 24 2t27.5 2t23 -3.5t25.5 -11.5z" />
<glyph unicode="I" horiz-adv-x="1081" d="M940 1409q0 -112 -49 -137q-17 -9 -55 -4q-9 2 -34 0.5t-36 -0.5q-8 1 -22 -0.5t-31 -4t-23 -3.5q-22 -2 -22 -52q-2 -27 -2 -86.5t-2 -85.5q-1 -17 3 -46.5t5 -39.5q0 -10 -3 -44t-1 -52q2 -19 0 -59.5t0 -59.5q2 -24 -2 -73q-4 -33 -2 -41q8 -21 8 -52q2 -1 1 -42 t-1 -42q-8 -30 -4 -41q4 -7 4.5 -20.5t-1 -31.5t-1.5 -23q0 -45 -4 -111q0 -7 0.5 -15t2 -22t5 -23.5t9 -18.5t13.5 -9t19 6q5 4 15.5 5t25 0t16.5 -1h90q2 0 12 -0.5t13 -1t11.5 -1t11.5 -2t9.5 -3.5t9 -5t6.5 -6.5t6 -9t3 -12.5q2 -11 0 -11q-4 0 -4 -3q0 -7 2 -18.5 t2 -18.5t-8 -31q-9 -31 -21 -43q-5 -6 -12 -14.5t-10 -11.5t-9 -6.5t-14 -3t-20 3.5q-45 9 -129 10t-113 4l-28 6q-54 -6 -60 -6q-23 -1 -45 2t-43 2h-162q-58 0 -80 9q-14 6 -32 18q-9 7 -13.5 20t-5 23t0.5 28t1 23q-4 49 31 57q17 4 38.5 4t47.5 -2t39 -2h86q1 4 7 8t7 7 q2 7 4 22t2 16q0 9 -3 26.5t-3 27.5q0 7 -2 27t-2.5 32t2.5 25q4 9 5 21.5t0.5 28t0.5 23.5q4 36 0 54q-5 19 1 56.5t6 47.5q1 7 -5 64q-2 16 3 98q0 7 -2 19t-2 23t4 21q12 16 14 27q2 14 1.5 18t-4.5 15.5t-5 15.5q-8 30 -8.5 62.5t3.5 77t5 63.5q0 11 -2 39t-2 41 q5 57 0 73q-4 16 -20.5 19t-33.5 -1t-30 1q-8 4 -18.5 4.5t-23.5 -1t-16 -1.5q-6 1 -24.5 -5t-24.5 1l-24 4q-6 1 -20 1t-20.5 4t-11.5 15q-4 8 -5 16t0 20.5t1 15.5v32q1 13 5 19.5t13 12t13 9.5q8 7 21.5 10t36.5 4.5t30 2.5q13 2 90 2q2 0 29 -1t35 -5q10 -6 39 -5.5 t38 9.5q9 6 48 -4q12 -7 19 -7.5t21 1.5q33 7 58 4q19 -3 63 4q9 1 27.5 -1.5t24.5 -2.5t25.5 -1t25.5 -1q5 0 15 2.5t17 1.5q16 -5 43 -6.5t35 -2.5q20 -4 19 -4q1 -1 2.5 -4t4 -6t5.5 -4z" />
<glyph unicode="J" horiz-adv-x="1210" d="M942 1272l-9 9t-8 7t-10 4t-14 0q-30 -9 -27 -41q2 -24 -4.5 -75t-3.5 -78q2 -20 -1 -62.5t-3 -54.5q0 -20 2.5 -46t3.5 -38q1 -19 1 -55.5t1 -67t4 -55.5q5 -72 5 -86q-1 -7 -3.5 -28.5t-2.5 -30.5t1 -29q5 -23 2 -104.5t-2 -104.5q0 -9 -1.5 -33.5t-0.5 -38.5 q2 -4 1 -25t-5 -22q-5 -3 -7.5 -21.5t-6.5 -21.5q-5 -5 -12.5 -18t-7.5 -19q2 -12 -33 -47q-12 -13 -25.5 -22t-31.5 -19.5t-31 -19.5q-23 -13 -49 -21q-9 -2 -32.5 -11.5t-37.5 -10.5q-18 -1 -123 -17q-12 -2 -45 -2q-39 0 -53 6q-12 3 -51 9q-3 1 -16.5 1t-25 1.5 t-14.5 5.5t-21.5 11t-25.5 7q-11 1 -33.5 14t-23.5 13q-48 30 -56 41q-8 10 -21 22.5t-21.5 23t-16.5 25.5q-24 39 -25 107.5t27 110.5q39 52 95.5 72t136.5 -5q27 -10 43.5 -21.5t27.5 -33.5q22 -44 15 -62q-1 -3 -2 -31t-13 -40q-6 -6 -27.5 -21.5t-27.5 -21.5 q-10 -12 2.5 -26t22.5 -17q5 -1 22.5 -8.5t28.5 -8.5q4 -1 18.5 -4.5t20.5 -3.5q8 -2 34 1.5t29 8.5q2 3 19 10.5t20 6.5q1 0 37 24q11 7 33 45q1 1 1.5 5t1.5 7t3 3q6 -1 10.5 34t6.5 82t3.5 84t1.5 50q-6 153 -6 157q0 15 1 46t1 46q0 10 -1.5 32.5t-1.5 41t3 31.5 q4 14 5 29.5t0 41.5t-1 31q0 14 2 42.5t2 43.5q0 6 -2 25t-2 26q-1 7 1.5 16.5t2.5 14.5q-1 13 -1 40.5t-1.5 48t-5.5 40.5q-5 21 -56.5 25t-72.5 -2q-55 -6 -104 0q-33 5 -33 53v63q3 33 39 33q37 0 39 4q1 4 16.5 7.5t22.5 3.5q29 6 51 4q9 0 26.5 1t26.5 1q5 0 15.5 -4 t15.5 -4t25 4t26 2q12 -6 72 -6q37 0 37 6q4 6 34 -4q16 0 44 1t38 1q6 2 51.5 1t51.5 -1q84 0 127 -6q11 -1 18 -6.5t10.5 -10.5t5 -17.5t1.5 -16.5v-19q0 -4 1 -27t-2.5 -38t-15.5 -21q-32 -18 -82.5 -19.5t-81.5 11.5z" />
<glyph unicode="K" horiz-adv-x="2007" d="M922 1423q8 -50 2 -75q-3 -12 -2 -30t-2 -30q-4 -11 -16 -14.5t-30 -3.5t-24 -2q-17 0 -21 -4q-9 -8 -28.5 -5.5t-47.5 7t-34 2.5q-4 -2 -25 -2q-4 0 -9 -4l-5 -5q-6 -4 -9 -16t-3 -22.5t1 -26t1 -18.5q-10 -107 -6 -267q4 -114 4 -209q0 -19 2 -26q4 -10 18.5 -4 t16.5 12q2 4 8.5 11t15.5 15t10 9q16 12 68 71q50 47 70 62l16.5 11t22 15t19.5 15.5t17.5 18.5t8.5 18q2 7 13 16t13 16q3 7 23 27q36 36 69 59q18 14 56 52q16 16 38 37.5t51 48.5t42 39l4.5 4.5l6 6t6 6.5t5 7.5l3 7t-0.5 6.5t-6 5q-6 2 -11 1.5t-11 -2t-7 -1.5 q-18 0 -52.5 -0.5t-63.5 -0.5t-54 1q-41 0 -61 4q-3 0 -10.5 3t-9.5 3q-14 1 -17.5 18t-1 34t-0.5 26q-4 12 -4.5 35.5t6.5 33.5q16 16 51 17.5t60 -2.5q37 -2 101 -0.5t101 0.5q4 0 35 -4t35 2q20 7 82 2q22 -1 75 4t81 2q29 -5 84.5 -7t68.5 -3q5 0 20 0.5t24 0.5t19.5 -3 t16.5 -9q9 -9 10 -20.5t-2.5 -27.5t-3.5 -25q0 -2 2 -15.5t2 -24.5t-4 -14q0 -6 -0.5 -9t-1.5 -4.5t-2 -2t-2.5 -2t-3.5 -4.5t-14.5 -3.5t-14.5 -2.5q-12 -6 -25 -5.5t-33.5 3.5t-27.5 2q-23 -2 -71.5 -3.5t-71.5 -3.5q-31 0 -66 -40q-6 -5 -21.5 -22t-19.5 -21 q-8 -8 -22 -17t-18 -14l-21 -21q-7 -8 -26 -28t-27 -29q-40 -40 -58 -53q-5 -4 -18 -14t-21.5 -18.5t-13.5 -18.5q-3 -7 -14 -16t-12 -11q-34 -29 -45 -37q-19 -15 -27 -27q-3 -5 -5.5 -9.5t-2.5 -9.5t-0.5 -7.5t1.5 -7.5t3 -7l4 -8l4 -8q2 -6 28 -30.5t25 -30.5 q-1 -5 10 -18.5t26 -28.5l17 -17l8 -10q8 -10 13 -12q2 0 11 -10t9 -13q4 -10 35 -47q2 -3 17.5 -19t28 -30.5t12.5 -18.5q-2 -5 6.5 -14.5t19.5 -20t13 -14.5q22 -33 40 -51q6 -5 19.5 -19.5t21.5 -23.5q31 -31 31 -39q-1 -1 6.5 -14.5t10.5 -16.5q40 -46 47 -55 q4 -4 18 -23.5t21 -25.5q3 -3 8.5 -12.5t7.5 -12.5q0 1 4 -3t8 -9l4 -4h74h27q3 0 25 -5t28 -1q2 5 20 4.5t21 -0.5q46 9 78 -8q11 -11 14.5 -56.5t-8.5 -50.5q-4 -2 -10.5 -14.5t-10.5 -15.5q-38 -29 -51 -33q-19 -5 -34.5 -5t-39.5 2.5t-34 2.5q-13 0 -32 -2t-30 -2 q-6 1 -20 4.5t-21 4t-22 -2.5q-1 -4 -20 0t-23 4q-36 -4 -47 -4t-35 6q-3 4 -23.5 1t-23.5 -3q-30 -3 -68 4q-8 3 -16 3.5t-14.5 0t-16.5 0.5h-115q-29 0 -47 2q-17 1 -25 0.5t-24 -3t-25 -3.5t-45 4q-8 0 -24 -1.5t-27.5 -0.5t-23.5 6q-11 5 -16.5 18t-6.5 24.5t-1.5 31 t-0.5 24.5q-7 58 16 66q30 6 35 6q10 0 38.5 -5t41.5 -3q20 4 59 4h48q5 0 14.5 -1t13.5 -1t11 2t6 8.5t0 18.5q-1 10 -10.5 27t-10.5 22q-1 9 -8.5 20.5t-14.5 20t-17.5 20t-12.5 13.5q-13 13 -21 32q-5 17 -34 41q-21 21 -39 45q-5 5 -17 21t-18 22q-46 46 -57 68 q-5 10 -19 27.5t-18 23.5q-3 3 -8.5 11.5t-10.5 12t-14 5.5q-9 1 -29.5 -23t-25.5 -26l-13 -6q-13 -7 -20 -13t-10 -12q-3 -5 -14 -12.5t-17 -8.5q-7 -2 -20.5 -12.5t-12.5 -15.5q0 -8 -47 -55q-6 -6 -24 -19.5t-26 -25t-9 -29.5q-1 -13 -3 -19.5t-5.5 -15t-6.5 -18.5 q-3 -9 3.5 -21.5t5.5 -17.5q0 -5 8 -29q4 -7 4 -17t-2 -22t-2 -18q0 -33 37 -27q26 0 36 4q17 8 45.5 -3t32.5 -11q2 0 11.5 -1.5t14.5 0.5t9 9q9 12 39 8q28 -3 33 -24.5t-4 -47.5q-3 -14 -3.5 -36t-1.5 -34.5t-12.5 -22.5t-36.5 -11q-10 0 -41 -1t-52.5 -0.5t-39.5 5.5 q-8 1 -43 -4q-14 0 -43 1t-43 1q-8 0 -31 -3t-34 -1q-25 3 -45 2h-92q-57 0 -66 2q-79 14 -115 10q-1 0 -7.5 -2t-9.5 -2.5t-10 -1.5t-11.5 -1t-10.5 0.5t-10 3t-7.5 6.5t-4.5 10q-2 6 -6 17.5t-6.5 18.5t-4.5 18t-2 21q1 7 5.5 19t4.5 22q5 2 8.5 9.5t12.5 7.5q5 1 13.5 4 t13.5 4q54 11 116 8q28 -4 41 -4q28 -2 37 8t8 39q0 26 4.5 91.5t3.5 97.5q0 15 -4 41.5t-4 39.5q0 33 4 103q6 70 0 139q-2 22 2.5 68.5t4.5 62.5q0 24 -4 79t-3 85q0 14 7 31q1 6 6 12.5t5 10t-7 18.5q-7 11 -12.5 31t-0.5 32q1 3 8 11t14 16.5t13 18t5.5 18t-9.5 12.5 q-75 39 -111 37q-125 -6 -155 24q-14 14 -23 45q-10 23 4 66q3 9 5 13t5.5 7t7 3.5t11.5 2.5t16 5q7 2 54 2q12 1 44 -1t46 -1q6 0 35 3t37 2.5t36 -3.5q8 -1 24 1.5t23 2.5h97q28 -4 41 -4q3 0 19.5 2.5t19.5 -0.5q36 -13 118 -8q2 0 26.5 3t33.5 3t27.5 -0.5t31 -4.5 t21.5 -12z" />
<glyph unicode="L" horiz-adv-x="1605" d="M950 1397q-1 -7 0 -36t0 -50t-12.5 -39t-34.5 -17q-7 0 -61.5 2.5t-63.5 -0.5q-27 -2 -76 -2q-9 0 -14.5 -4.5t-7.5 -13.5t-3 -16.5t-1 -18v-14.5q0 -8 -1.5 -35t-0.5 -41q0 -10 2.5 -35.5t1.5 -40.5q-2 -9 -0.5 -28.5t0.5 -28.5q-2 -10 2 -28t2 -27q-1 -10 1.5 -35.5 t0.5 -36.5q-1 -3 -3 -12t-3.5 -16t-1.5 -11q9 -47 0 -145q-3 -64 -3 -92t3 -92.5t4 -90.5q1 -32 -4 -176v-12t2 -9t3 -7t5 -4.5t5.5 -2.5t7.5 -1.5t7.5 -0.5h10h10.5q18 0 44 -1t42 -1q1 0 70 6q68 0 78 -2q10 -3 29 -0.5t26 8.5q4 0 16 -5t19.5 -7t13.5 2q4 6 23 7.5 t38.5 0.5t40 -2.5t23.5 -1.5q28 -4 47 -4q23 -3 47 4q4 6 5.5 14t1.5 19t1 16q0 5 6 134q1 29 -2.5 81.5t-3.5 75.5v12v12v10.5t1 11t2 10t3 9.5t4.5 8t6 8.5t8 6.5t10.5 6q11 4 27 5.5t29 1t28 0.5h25q7 0 24 1.5t29.5 1t23.5 -4.5q17 -9 17 -15q-1 -5 5 -21t1 -26 q0 -20 -4 -20q-3 -2 4 -28.5t13 -50.5t-1 -36q-1 -2 -3 -17t-3 -18q0 -7 2.5 -29.5t1.5 -35.5q0 -13 1.5 -47t0.5 -54q-1 -14 1.5 -38t2.5 -33q-1 -9 -3.5 -15t-2.5 -14q-4 -65 -18 -86q-11 -16 -31 -19q-89 -16 -131 -14q-15 0 -60 -4t-69 -2q-5 0 -16 -1.5t-15 -0.5 q-11 4 -27.5 5t-27.5 -3q-8 -5 -45 4q-7 4 -28.5 0.5t-28.5 -2.5q-49 7 -131 -0.5t-121 -5.5l-25 2.5t-20.5 2t-24.5 -0.5q-63 -4 -84 0q-20 8 -37 8q-7 0 -15 -2t-13.5 -1t-12.5 7q-5 6 2 18t4 19q-7 12 -21 12t-18 -16v-7.5v-8t-0.5 -6t-2 -6t-3.5 -4.5t-5.5 -4.5 t-8.5 -2.5q-18 -6 -35 -4q-5 0 -18 -3t-21 -3q-5 0 -42 5t-42 -1q-3 -4 -19.5 -2.5t-21.5 0.5q-15 -6 -22.5 -1.5t-9 8t-3.5 14.5t-6 18q-5 -2 -9 -19.5t-7 -21.5q-3 -3 -8 -4t-8.5 -0.5t-10 2.5t-8.5 2q-19 3 -41.5 21.5t-34.5 37.5q-7 8 -3.5 35.5t-2.5 38.5 q-11 21 8.5 33t40.5 12q54 0 152 4q4 1 16 1.5t21.5 2t13.5 4.5q8 5 10 20t0.5 34t-0.5 24q0 7 -2.5 37t0.5 33q4 29 4 86q-4 126 -2 192q0 10 1.5 38t2 43.5t0 38.5t-3.5 42q-1 9 0.5 27t1.5 22q1 10 -3 31t-3 31q4 59 2 92q0 12 8 36t7 36q0 12 -8.5 35.5t-6.5 39.5 q6 49 0 95q-1 23 -12.5 29.5t-36.5 6.5h-61q-41 -2 -125 2q-15 0 -21 35q-1 19 -1 26t2 25l3 27v10.5t1.5 8.5t2 6t3 5t4 4t6 5t6.5 6q11 9 23.5 11.5t33.5 0.5t25 -2q9 1 35 6t41 3q18 -3 63.5 1.5t63.5 -1.5q26 -5 43 -2q2 0 10.5 2.5t15.5 4.5t8 1q4 -4 20 -4.5t38 1 t26 1.5q24 -1 71.5 -1t70.5 -1q133 -6 137 -6q13 0 31 -11l7.5 -7.5l10 -10t6.5 -4.5zM279 88q6 -1 6.5 -4t13.5 -2q7 1 8.5 8.5t-4.5 13.5q-9 8 -17.5 1.5t-6.5 -17.5z" />
<glyph unicode="M" horiz-adv-x="2297" d="M809 1409q6 -24 39 -92q4 -9 8 -21t8.5 -26.5t7.5 -22.5q1 -4 7 -19.5t6 -21.5q0 -7 11.5 -53.5t14.5 -46.5q2 -1 6 -10.5t5 -10.5q0 -2 3 -10.5t3 -11.5l12 -14q10 -23 20 -62.5t17 -58.5q5 -13 15 -33.5t12 -24.5q16 -32 16 -45q1 -12 18 -44t19 -44q0 -1 26 -75 q40 -119 58 -121q3 -1 7.5 7t9 20t8.5 25t7 22.5t5 11.5q4 2 8.5 13t8.5 24t5 16q2 5 9 18.5t8 18.5q0 9 16.5 60.5t19.5 51.5q1 0 3.5 8.5t5.5 18t4 10.5q5 8 19 22t18 21q2 9 2 26.5t2 25.5q1 5 6.5 16.5t5.5 13.5q26 81 29 88q16 35 18 47q0 1 2.5 13t5.5 22.5t6 12.5 q4 4 6 15t3 25t2 19q3 9 15 31t13 32q4 25 25 39q1 5 5.5 16t7.5 20.5t3 14.5q1 7 31 27q7 2 29.5 10t23.5 9q2 5 30 5t63 -2.5t36 -2.5q13 2 62 1t63 -1q33 0 92.5 1t107 1t89.5 -2q17 0 29.5 -4t19 -12.5t11.5 -15.5t5 -22v-22.5t-4 -26t-5.5 -23.5t-6.5 -24 q-9 -34 -57 -27q-11 1 -38 -3t-42 -1q-17 8 -68.5 6.5t-54.5 -22.5q-6 -40 -6 -170q0 -13 -4 -39t-4 -39q0 -15 3.5 -43t4.5 -37q1 -16 -3 -69.5t1 -69.5q4 -18 5 -40.5t0.5 -36t-2 -43t-1.5 -38.5t-9 -40t-3 -46l6 -12t6 -14t2 -13q-1 -14 -1 -41t-1 -41q-2 -24 -2 -53 t1 -64.5t1 -52.5q0 -46 8 -59q5 -10 25 -14t28 4q2 2 20 2.5t21 1.5q2 3 19.5 1.5t19.5 -1.5q7 0 48 4.5t67.5 -0.5t32.5 -27q6 -28 2 -88q0 -12 -7 -29.5t-14 -23.5q-9 -12 -41 -12q-28 2 -98 0.5t-98 -0.5q-93 7 -160 2q-13 -1 -27 -5t-21 -5t-30 4q-34 10 -90 10 q-14 0 -52.5 -4t-68 -2.5t-51.5 12.5l-10 2.5t-11 -2t-12 -2.5q-8 0 -15.5 2.5t-11.5 3.5q-9 1 -13 9t-3.5 17.5t2.5 22.5t2 17q0 10 -3 32t-1 37q4 24 30.5 32.5t55.5 5.5t51 1t58.5 -2t56.5 -4q19 0 26 9t9 30q0 9 -0.5 29.5t-0.5 37t1 29.5q0 61 2 92q0 10 -1.5 33t-1 40 t4.5 32q12 48 -6 113q-3 18 0 36q3 12 1.5 44t4.5 44q3 11 -1 36.5t-3 35.5q2 13 0 36t0 36q1 20 -1 56t-1 56q1 6 -2.5 39.5t-4.5 55.5t5 30q4 2 3 19q-3 23 -22 4q-2 -2 -9 -13t-9 -12q-3 -1 -10 -20.5t-9 -28.5q-10 -51 -22 -63q-3 -3 -12.5 -31.5t-18.5 -54.5t-12 -25 q-43 -109 -43 -121q-4 -21 -11 -43.5t-18 -52.5t-16 -43q-1 -1 -4.5 -12t-7 -20.5t-5.5 -10.5q-4 -2 -9.5 -34.5t-14.5 -35.5q-1 0 -5.5 -14.5t-10 -32t-5.5 -18.5q-10 -34 -36 -109q-19 -64 -35 -100q-7 -19 -26 -61.5t-32.5 -78.5t-17.5 -65q-5 -35 -30.5 -46t-71.5 -13 q-16 0 -33.5 12.5t-18.5 26.5q0 9 -10.5 30t-11.5 25q-4 16 -23 63q-11 28 -33.5 82.5t-39 99.5t-27.5 87q-2 7 -8.5 23t-7.5 20q-6 16 -13.5 49t-13.5 49q-3 7 -11 19t-10 18q-3 5 -14 49q-1 7 -6.5 23.5t-12 33t-10.5 15.5q-53 149 -55 157q-6 20 -35 93q-5 15 -37 90 q-1 3 -9.5 34t-17.5 47.5t-22 16.5q-9 -9 -8 -30t-2 -33q-4 -7 -0.5 -38t2.5 -40q0 -34 2 -101.5t2 -101.5q-1 -59 -1 -175.5t-1 -174.5q0 -11 1.5 -52t0.5 -63q-9 -93 -6 -141q0 -26 16.5 -32.5t47.5 -4.5q3 0 16 2.5t14 5.5t14 3t30 -1.5t18 -1.5q14 0 42.5 4.5t43.5 3.5 q36 -3 43 -17.5t2 -55.5q-1 -10 1 -27.5t3.5 -31t-0.5 -26.5t-12.5 -20.5t-30.5 -7.5q-14 0 -49 -4t-56 -2q-112 10 -157 -2q-4 -3 -33 -0.5t-33 2.5q-14 -1 -43 3t-43 -1q-17 -4 -40 -5t-36 -0.5t-43 2t-36 1.5q-9 0 -36 -1.5t-45.5 -1.5t-37 8t-21.5 25q-2 8 -2 41 q0 2 10 31q4 8 29 8q11 4 14.5 10.5t3.5 19.5t3 22q7 21 47 26q8 3 25.5 5t21.5 -3l37 -4q4 1 16.5 2t17 2t12.5 4.5t11.5 10t5.5 16.5q3 20 -2.5 65.5t-3.5 63.5q12 74 4 229q-2 54 2.5 159.5t3.5 152.5v307q4 14 2 36t-18 27q-5 1 -16 0t-17 0q-16 2 -51 2q-13 -1 -26.5 1 t-31 5.5t-26.5 4.5q-10 1 -21.5 0t-20.5 3.5t-9 16.5q0 10 5.5 22t2.5 25q-5 26 -1 37.5t20.5 25t25.5 25.5q10 13 25.5 17.5t26 3t31 -6.5t26.5 -6q26 -2 66.5 4t53.5 7q26 2 82 -2q15 -1 46.5 0t47.5 0t60.5 2.5t58.5 -0.5q12 -2 14 -4t7 -4q24 -12 51 -21z" />
<glyph unicode="N" horiz-adv-x="1847" d="M1776 1419q4 -15 4.5 -40.5t3.5 -37.5q1 -5 5 -18t3 -20q-1 -15 -12 -27.5t-25 -15.5q-6 -1 -20 -5t-25.5 -6t-21.5 -2q-6 0 -15 2t-10 2q-13 2 -39.5 2.5t-34.5 1.5q-59 7 -65 -14q-6 -18 -6 -59q1 -16 -0.5 -35.5t-3.5 -42t-3 -33.5q0 -11 4 -32.5t5 -28.5 q1 -9 -1 -24.5t-1 -24.5q2 -13 -0.5 -42t0.5 -42q3 -15 3.5 -30.5t-0.5 -37t-1 -29.5q-1 -29 2 -122t-2 -121q-2 -19 4.5 -59.5t3.5 -59.5q-10 -54 -6 -164q1 -26 -2 -78t-2 -76q2 -29 -0.5 -43t-16.5 -28q-11 -13 -25 -21t-33.5 -10.5t-31.5 -3t-37.5 1.5t-32.5 2 q-70 3 -102 10q-7 2 -19.5 4.5t-19 4.5t-15 7.5t-14.5 14.5l-8 10t-6.5 8t-5.5 8t-6 11q-4 10 -18 29.5t-19 31.5q-9 18 -25 58q-2 4 -6.5 15.5t-9.5 22t-10 15.5q-18 17 -35 62t-27 59q-29 43 -78 142t-79 144q-19 38 -21 43q-4 9 -19.5 34.5t-19.5 39.5q-10 25 -34.5 69.5 t-34.5 69.5q-5 13 -20 42t-19 42q-3 6 -11.5 25.5t-17.5 36.5t-16 24q-5 5 -15 26.5t-10 25.5q1 6 -7 8q-16 4 -20 -10q-1 -5 0 -11q5 -22 5 -106q-1 -52 1.5 -169.5t0.5 -180.5q0 -14 -2.5 -92t0.5 -93q0 -1 -1 -20t0 -31t5 -20q5 -8 6.5 -41.5t-2.5 -42.5t-3.5 -30.5 t-0.5 -33.5q-9 -38 2 -86q2 -10 9.5 -14t15 -3t20 4t18.5 3q71 0 92 4q4 4 39 1t41 -3q20 1 26.5 -10.5t8.5 -34.5q5 -72 -10 -96q-10 -15 -25.5 -20.5t-41.5 -6.5t-34 -2q-13 -1 -20 -0.5t-20.5 3t-20.5 3.5q-8 1 -20.5 -1.5t-14.5 -2.5q-15 2 -39 -2t-35 -4t-35.5 5.5 t-37.5 4.5q-22 -2 -56.5 -2.5t-46.5 -1.5q-8 0 -31 1.5t-36 0.5q-7 0 -29 4t-31 0q-20 -7 -70.5 1t-47.5 30q0 1 -1.5 5t-3 7.5t-0.5 3.5q-1 0 -5.5 21.5t-4.5 25.5q-7 39 22 54.5t70 11.5q12 -1 38.5 1.5t39.5 0.5q25 -4 33 -2q24 2 34 8t13 25q4 30 0 75q0 12 1 25 t2.5 28.5t2.5 24.5q0 6 -2.5 27t-1.5 29q2 27 2 79q0 15 3.5 41.5t4.5 36.5q3 29 -4 62q-2 9 0 28.5t0 28.5q-2 7 1.5 24t0.5 25t-4 19t-0.5 19.5t2.5 21.5t2 18q1 10 0.5 38t1.5 38q1 3 6.5 16t8 21t-1.5 16q-4 3 -5.5 19.5t-5.5 21.5q-4 4 -2 19t-2 20q-4 6 -5.5 20.5 t-0.5 26.5t0 22q0 16 -4 62.5t-2 69.5q2 20 -11 28.5t-40.5 10.5t-32.5 4q-14 4 -49.5 2t-52.5 2q-4 1 -14.5 2t-15.5 2.5t-11 6.5t-8 15q-5 31 10 62q5 13 14 22t21 18t18 15q7 7 13.5 9t17 2.5t18.5 2.5q17 4 88 9q20 2 56 -2q5 -2 19 -0.5t19 0.5q28 -10 48 -3q19 5 94 5 q9 0 21.5 0.5t17.5 0.5t13 -1t15.5 -3.5t18.5 -7.5q12 -5 25 -8.5t22 -7.5q23 -8 26 -16q19 -48 29 -58q2 -3 21 -41q2 -5 8 -16.5t10.5 -21.5t5.5 -15q0 -10 9.5 -28.5t17.5 -26.5q16 -19 20 -35q5 -19 19 -33q6 -4 14.5 -21.5t11.5 -21.5q25 -40 33 -63q2 -3 7.5 -12.5 t6.5 -12.5q2 -5 12 -21.5t11 -23.5q1 -12 4 -18t11 -11.5t12 -9.5q13 -11 30 -57q1 -2 13.5 -17.5t13.5 -21.5q0 -6 2.5 -12t8.5 -13l5 -6l7 -15q6 -15 12 -27.5t8 -12.5q7 -3 19 -27t16 -37q5 -15 16 -37q2 -2 5.5 -10.5t4.5 -9.5q6 -4 13.5 -20.5t11.5 -22.5q3 -5 20 -39 q38 -86 48 -100q3 -4 6.5 -11t7.5 -16.5t6 -13.5q7 -17 23 3q14 18 8 30q-6 0 -5 40.5t1 42.5q0 6 1 23t0.5 28.5t-3.5 20.5q-6 23 8 74.5t6 77.5q-1 4 -7 13l-5 9q-4 5 -5 19.5t-4 19.5q-4 3 -0.5 24.5t3.5 22.5q1 8 1.5 31.5t2.5 36.5q7 14 3 76t-3 77q1 14 3 39t3 45.5 t0 38.5q0 6 1 22.5t1 30t-2 21.5q-5 16 -22.5 18t-30.5 -2q-10 -3 -22.5 -4t-28 -1t-23.5 -1q-81 -13 -105 4q-1 1 -10.5 4t-15 7t-6.5 10q0 3 -6 8t-7 8q-6 21 -6 53q0 57 25 74q19 13 51 10q2 0 11.5 2t15.5 3t10 -2q14 -5 33 -4.5t51 3.5t37 3q2 0 13.5 -0.5t20.5 -0.5 t18 1t11 4q3 4 18.5 3.5t20.5 0.5q4 2 8.5 1.5t11.5 -2t9 -1.5q14 -1 37.5 0.5t31.5 1.5q21 0 62.5 -4.5t66.5 -3.5h125q3 -1 10.5 -4t14.5 -3q6 1 17 -3t16 -3z" />
<glyph unicode="O" horiz-adv-x="1656" d="M1393 1190q2 1 10.5 -10t15.5 -23.5t6 -15.5q-1 -6 17 -27.5t20 -28.5q5 -17 19 -51.5t18 -52.5q15 -60 23 -63l8 -29q0 -15 14 -43q10 -18 10 -82q-5 -107 -4 -127q1 -13 -2 -27.5t-9.5 -37.5t-8.5 -29q0 -3 -4 -11t-6 -10q-1 -6 -0.5 -23t-1.5 -24q-4 -9 -13.5 -29.5 t-13.5 -29.5q-11 -28 -21 -41q-12 -17 -51 -92q-6 -11 -13.5 -21t-18 -20t-17 -16t-18.5 -16.5t-15 -12.5q-5 -6 -13.5 -18.5t-16.5 -22.5t-15 -17t-23 -20.5t-24 -22.5q-9 -10 -40 -25t-44 -26l-18 -12q0 -4 -25 -9.5t-26 -9.5q-1 -3 -6.5 -6t-13 -5t-14.5 -3t-14.5 -2.5 t-9.5 -1.5q-5 -2 -30 -12.5t-35 -10.5q-9 -1 -34.5 -4.5t-39.5 -3.5q-7 0 -27 2.5t-30 1.5q-14 -2 -45 -2q-27 7 -48 4q-57 -4 -94 25q-7 7 -24.5 8.5t-22.5 3.5q-4 1 -16 1.5t-21.5 2t-13.5 4.5q-4 5 -15 11.5t-12 7.5q-23 6 -26 10q-23 23 -31 23q-4 0 -28 11t-25 15 l-15 8q-4 -1 -8.5 2.5t-10.5 11.5l-7 7q-9 6 -23.5 20t-17.5 17q-6 4 -20.5 19.5t-20.5 19.5q-4 2 -11 12t-10 12q-4 2 -8.5 8.5t-7.5 8.5q-6 4 -25 31t-18 32q0 4 -13 26.5t-18 26.5q-2 3 -10 27.5t-16 26.5q-10 3 -15 36t-10 37q-8 5 -9 26.5t-5 27.5q-5 6 -7 21t-1 28 t0 24q-3 46 -3 97q-4 67 0 100q2 16 9.5 43.5t9.5 42.5q1 6 9 29t7 39q-1 6 3.5 13t5.5 11q1 7 4 7.5t4 2.5q4 8 8 37q1 12 13.5 27.5t13.5 25.5q0 8 15 24.5t13 23.5q0 7 31 38q6 4 11.5 14.5t6.5 12.5q23 23 27 29q9 16 33.5 35.5t29.5 25.5q32 37 43 45q3 2 12 4.5 t13 5.5q1 1 21 11q10 0 21.5 11t18.5 13q8 3 24 11.5t24 11.5q1 1 10 3.5t17.5 5.5t8.5 5q1 2 9.5 5t18.5 6t11 4q8 3 26.5 6t25.5 6q16 9 57 4q23 0 63 16q22 7 56 0q22 -4 63.5 -4.5t61.5 -3.5q81 -16 84 -27q1 -3 57 -22q5 -3 15 -7t17 -8t11 -8q12 -12 43.5 -26 t42.5 -23q5 -6 17.5 -16.5t19.5 -13.5q30 -15 39 -33q3 -6 12.5 -11.5t11.5 -7.5q3 -3 12 -15t15 -17q2 -2 14 -12t17 -17zM1159 303q6 7 16.5 25t18.5 26q3 3 9.5 34.5t10.5 33.5q6 2 19.5 43t9.5 47q-4 4 -4 12.5t2 18.5t2 14q0 3 -1.5 9t-1.5 10.5t3 7.5q2 3 3.5 9.5 t2.5 14t2 10.5v33q0 5 1.5 19t0.5 22q0 12 -3 38t-3 40q1 16 -4.5 46t-5.5 44q0 20 -6 47q-4 16 -6.5 49t-7.5 50q-3 15 -16.5 43t-16.5 34q-1 2 -9.5 20.5t-15.5 31t-12 16.5q-5 3 -10 10t-11 10q-3 0 -6 3.5t-5 8t-3 5.5q-4 4 -15.5 14t-17.5 17q-4 3 -20 13t-21 13 q-10 6 -32.5 15t-34.5 16q-27 14 -80 18q-10 1 -31.5 3.5t-34 4t-30.5 1t-33 -4.5q-16 -3 -55 -17.5t-60 -16.5q-44 -6 -98 -56q-13 -17 -17 -24q-2 -4 -22.5 -20t-20.5 -31q-2 -7 -24 -29q-4 -4 -10 -22t-6 -25q0 -4 -2.5 -11.5t-7 -16t-5.5 -11.5q-1 -5 -8.5 -15t-7.5 -14 q-1 -11 -9.5 -41.5t-7.5 -46.5q0 -34 -8 -108q-2 -40 2 -125q0 -4 -1 -13.5t-1 -16t2 -14.5t8 -14q6 -9 5 -19.5t-3.5 -27t-1.5 -22.5l5 -10t4 -11q0 -8 3.5 -18.5t9 -23.5t7.5 -19q6 -22 39 -107q4 -9 12.5 -25.5t12.5 -25.5q2 -5 11.5 -13.5t10.5 -13.5q0 -11 9.5 -20.5 t19.5 -13.5q8 -3 22 -18.5t17 -18.5q6 -3 19 -9t16 -8q36 -21 47 -22q7 0 23.5 -10t25.5 -11q15 -1 44 -7t44 -7q58 -5 82 2q9 4 31.5 8t29.5 6q45 12 64 23q5 5 20 12.5t21 7.5q20 10 39 29q19 13 38.5 38.5t28.5 47.5z" />
<glyph unicode="P" horiz-adv-x="1648" d="M664 623q-13 -20 -15 -45.5t2 -60t4 -46.5q1 -14 -0.5 -38.5t-1.5 -31.5v-71q-3 -33 6 -127q4 -41 82 -33q14 2 55.5 2t61.5 4q30 9 60 -14q8 -8 10 -16.5t0 -24t-2 -21.5v-21.5t0.5 -18.5t-2.5 -16t-9 -15q-28 -23 -57 -23q-19 0 -69 -2.5t-78 -1.5q-25 1 -70.5 -1.5 t-73.5 -0.5q-64 8 -137 2q-6 0 -21 -2.5t-19.5 -2l-22.5 2.5q-58 10 -68 2q-5 -4 -63 -4q-44 0 -62 10q-3 2 -11.5 6.5t-12.5 7t-8 10t-5 17.5q-1 20 5.5 56t7.5 45q2 24 53 18q15 -2 43.5 2t38.5 4h94q9 1 14 5.5t7 12t2 13.5t-0.5 16.5t-0.5 14.5q0 14 2.5 43t2.5 43 q0 40 -3 81q-4 25 -4 74l3 19q3 19 2.5 22t-3.5 19q-6 19 -5 33.5t4.5 39t2.5 37.5q0 27 1.5 83t1.5 85q0 17 -4 53t-3 58q1 14 -0.5 39.5t-1.5 35.5q0 9 0.5 26t0.5 30.5t-1 25.5q-1 10 -5.5 33t-4.5 37q0 77 -6 90q-4 9 -26 10t-42 -1t-20 -1q0 -1 -40 -3.5t-48 -2.5 q-18 4 -41 15q-8 4 -9.5 12.5t1 22t2.5 18.5q0 4 -1.5 24.5t0 33t7.5 18.5q1 1 5.5 7.5t9.5 12t9 6.5q4 0 5.5 1t2.5 3t3 4q1 1 26 7q42 6 47 6q12 1 36 -2t36 -2q61 5 72 4q13 0 40.5 -5t47.5 -4q17 1 40.5 3t34 2.5t35.5 -0.5q10 0 20 -5.5t17 -5.5q1 0 28 0.5t38 5.5 q2 6 40.5 2t41.5 -4q33 -2 102 -2q17 0 51 2.5t62 2.5t51 -5q8 -1 28 0.5t25 1.5q59 0 105 -14q83 -22 133 -43q33 -14 55 -29q3 -2 12.5 -6.5t15.5 -8t13 -9t10 -10.5q7 -10 20.5 -25t20.5 -25q1 -2 12.5 -17t18.5 -26.5t6 -15.5q-1 -3 2.5 -11.5t8 -19t5.5 -14.5 q16 -52 17 -59q11 -51 6 -115.5t-27 -106.5q-41 -80 -73 -112q-4 -6 -15 -17t-18 -14q-6 -2 -26.5 -19t-28.5 -18q-4 0 -12 -4.5t-13 -5.5q-10 -2 -43 -21q-4 -2 -35 -4t-33 -8q-4 -4 -63 -4q-35 -2 -102 -2q-109 0 -160 -10q-25 -5 -75.5 0.5t-74.5 1.5q0 -1 -19.5 -0.5 t-21.5 0.5q-12 1 -24 -0.5t-28 -5t-23 -4.5zM674 805q8 -2 24 -2t38.5 1t31.5 1q1 0 50 -0.5t50 0.5q8 0 22.5 -0.5t23 -0.5t20.5 1t22 4q3 3 32 0.5t32 -2.5q18 -1 51.5 1.5t46.5 2.5q25 0 58 14q29 10 32 19q2 5 18.5 15.5t16.5 19.5q0 2 14 22t17 21q5 2 8 7.5t5.5 14.5 t3.5 15t2 15.5t1 10.5q9 116 -37 164q-5 5 -12 18.5t-12 18.5q-11 9 -37 20q-22 13 -47 23q-3 1 -25 12.5t-37 11.5q-24 0 -85 1t-87 1q-102 4 -170 -6q-10 -1 -29.5 3.5t-31.5 6t-29 -5.5q-12 -8 -14 -24.5t0.5 -38.5t1.5 -31t0.5 -34.5t-2.5 -34.5q-2 -12 -3.5 -49.5 t3.5 -43.5l2 -61v-74q0 -17 7.5 -35.5t23.5 -21.5z" />
<glyph unicode="Q" horiz-adv-x="1656" d="M1430 43q18 14 75 20q23 1 34 -10.5t13 -38.5q0 -13 -0.5 -25t-2.5 -25.5t-3.5 -22.5t-5.5 -24t-6 -21.5t-7.5 -23.5t-6.5 -22q-7 -37 -19 -63q-4 -9 -11 -17t-15.5 -17t-12.5 -13q-31 -50 -67 -74q-1 0 -11.5 -11t-15.5 -11q-4 -1 -25 -15q-5 -3 -19.5 -6.5t-16.5 -5.5 q-12 -17 -55 -21t-60 1q-120 13 -123 24q-1 4 -14 11.5t-15 9.5q-4 5 -14.5 11t-13.5 13q-1 1 -4 5t-6 7.5t-5 4.5q-7 3 -20 27.5t-19 25.5q-8 1 -20.5 31t-15.5 43q-3 12 -6.5 23.5t-8.5 25t-8 22.5q-6 12 -6 31q-1 26 -9.5 33.5t-35.5 7.5q-16 -2 -51 2q-4 0 -24.5 0.5 t-36 3t-23.5 8.5q-5 4 -11.5 5t-17.5 0t-12 -1q-4 0 -12 4t-11 5q-13 0 -29.5 8t-27.5 10q-7 1 -53 16q-6 2 -30 17.5t-32 15.5q-4 -1 -14 5t-21.5 13.5t-15.5 8.5q-13 6 -30.5 21t-22.5 18q-5 4 -17.5 12t-21.5 15.5t-15 17.5q-8 13 -28 33.5t-27 29.5q-20 25 -24 33 q-1 3 -5 11.5t-7 15t-5 8.5q-19 19 -16 30q1 6 -10.5 22.5t-12.5 20.5q-2 9 -10 26t-10 26q-39 124 -45 151q-4 16 -6.5 50t-6.5 49q-4 12 -4 45q0 24 2 34q2 7 -0.5 23t0.5 20q4 8 6.5 18t4 23t2.5 19q2 7 8 51.5t14 65.5q25 73 45 110q2 2 16.5 27t16.5 26q1 0 9 13 t16 25.5t8 11.5q-1 6 4.5 13t15.5 15l9 8q21 31 20 35q4 -1 9 3.5t12 12.5t8 9q13 13 34 31q58 46 64 45q4 0 17.5 8t15.5 10q4 5 41 27q6 3 22 12t29 15t18 5q10 -2 53 7.5t46 15.5t63 6q6 0 19 4t18 4q40 4 63 4q22 0 61 -4.5t50 -5.5q54 -4 74 -10q3 -1 9 -5t9 -5 q5 -3 30 -8.5t28 -8.5q5 -7 33.5 -16.5t29.5 -16.5q1 -3 20 -12.5t21 -9.5q7 1 25 -12t24 -21l21 -14t26 -21q2 -1 10.5 -10t16.5 -16t12 -6q13 -11 17 -15q11 -19 20 -26q2 -2 9.5 -7.5t13 -10.5t6.5 -9l10 -20q4 -6 12.5 -15.5t12.5 -15.5q3 -6 7.5 -18.5t10.5 -20.5 q35 -50 45 -92q3 -11 11 -35t12.5 -42.5t5.5 -35.5q2 -12 12 -43q3 -8 8 -67q8 -96 -10 -222q-14 -109 -68 -227q-7 -16 -26.5 -45.5t-24.5 -46.5q-4 -9 -21.5 -25t-19.5 -18q-8 -6 -20 -23q-4 -6 -13 -21.5t-16 -21.5q-1 -1 -29 -24q-2 -1 -11.5 -9.5t-17 -15t-16.5 -12 t-12 -4.5q-2 1 -21 -11l-20 -12q-5 -7 -19.5 -17t-19.5 -9q-13 2 -26.5 -24.5t0.5 -35.5l8 -28q2 -5 6.5 -21t9.5 -24q14 -33 49 -54q2 -2 10 -6.5t15.5 -8.5t7.5 -5q0 -4 19 -4.5t40 2t27 6.5q33 16 53 49q14 18 19 29l5 15t8 22t7 12q4 3 4 49q-1 10 4 25t5 18zM1163 295 q34 36 56 147q32 140 26 267q0 79 -4 102t-8 71.5t-8 71.5q-5 37 -15 62q-1 4 -2.5 14t-3 16.5t-5 14.5t-9.5 14q-7 9 -11.5 30t-11.5 28q-11 10 -22 24t-24.5 33.5t-18.5 26.5q-4 6 -16 13t-27.5 14.5t-20.5 10.5q-34 17 -45 19q-1 0 -8.5 1.5t-14 3.5t-14.5 4.5t-13.5 5 t-6.5 5.5q-3 15 -82.5 15.5t-97.5 -6.5q-28 -3 -68.5 -17.5t-66.5 -30.5q-6 -4 -19 -11.5t-24 -15t-19 -14.5q-28 -30 -78 -106q-4 -6 -10 -28t-12 -27q-12 -8 -31.5 -59t-21.5 -68q0 -8 -5 -69t-6 -89q-4 -56 7.5 -141.5t11.5 -87.5q-1 -13 3 -35.5t3 -30.5q0 -5 4.5 -27 t7.5 -22q2 -1 6.5 -13t9 -25.5t5.5 -14.5q8 -41 41 -78q2 -2 5.5 -13.5t6.5 -13.5q4 -1 8.5 -5.5t7.5 -8.5t7 -10l6 -9l12 -12t15 -14t16 -10q22 -13 23 4q0 8 -5 27q-4 15 -4 20q0 19 -4 47q-2 15 2.5 41.5t5.5 36.5q1 8 8 23.5t8 23.5q0 4 12.5 18t12.5 25q0 4 14 17.5 t17 13.5q4 0 13.5 10.5t14.5 11.5q3 1 11 8t12 6l69 19q1 3 27 9.5t33 6.5q49 0 57 -14q3 -3 15.5 -8t15.5 -4q5 0 17.5 -5t27 -12t16.5 -8q36 -20 68 -65q3 -3 6 -13.5t6 -11.5q4 0 16.5 -14.5t12.5 -16.5q-1 -6 7 -19.5t9 -15.5q1 -3 4 -13q14 -54 27 -55q5 0 10 5z M909 141q3 5 6.5 14.5t4.5 12.5q10 40 16 43q5 5 7 21.5t2 36.5t1 24q2 15 -2 41q-9 38 -41.5 59t-79.5 21q-38 0 -62 -41.5t-24 -85.5q0 -35 27 -74q6 -6 14 -13t18 -15t15 -13q21 -19 51.5 -32.5t46.5 1.5z" />
<glyph unicode="R" horiz-adv-x="1894" d="M1214 766q-1 -9 16 -18.5t39 -18t25 -10.5q5 -3 26 -23.5t30 -21.5q7 -1 32 -33q2 -1 11 -10q7 -5 30 -43q2 -5 8 -11t9 -10q1 -1 1.5 -6.5t2.5 -7.5q8 -6 13 -29.5t9 -27.5q4 -3 8.5 -14.5t8 -29.5t4.5 -20q3 -9 7 -40.5t11 -39.5t5.5 -31t0.5 -34q2 -6 6 -19t7.5 -21.5 t9.5 -17.5q11 -13 31 -20l5 -1q6 -1 10.5 -1t4.5 2q0 -2 10 1t20.5 7t12.5 6q6 6 10 15t6.5 21t4.5 17q5 18 7 34t2.5 42t0.5 35q0 30 15 40.5t48 12.5q26 3 54 1t43 -15q20 -20 20 -84q0 -120 -12 -127l-8 -29q-14 -57 -25 -73q-18 -32 -29 -45q-12 -12 -27.5 -30.5 t-28 -30t-32.5 -21.5q-4 -2 -42.5 -6.5t-41.5 -10.5q-1 -4 -8 -5.5t-18 -1t-23.5 1.5t-26 3.5t-23.5 4t-19.5 3.5t-10.5 2q-59 10 -67 21l-11 3q-11 3 -16 7q-4 2 -12.5 11.5t-11.5 9.5q-3 -2 -21 16q-27 22 -31 23q-15 3 -25 27t-14 28q-7 7 -12 17t-9 24t-6.5 22.5t-6 27 t-4.5 22.5q-2 11 -10 25t-13 23t-4 19.5t12 18.5q12 6 13.5 12t-7.5 20q-3 6 -13 21t-15 27t-4 24q0 2 1 7.5t1 10.5t-2 9q-8 15 -7 16q0 5 -7 29.5t-11 25.5q-6 2 -7.5 15t-2.5 14q-4 4 -9.5 18t-9.5 19q-6 8 -14.5 16t-11.5 12q-62 62 -103 70q-35 7 -75 11t-65 4.5t-76 1 t-72 0.5q-40 0 -37 -54q2 -1 1 -13.5t-1 -14.5v-138v-172q0 -3 -1.5 -20t-2 -33.5t0.5 -34.5t7 -29.5t16 -11.5q6 -3 13.5 -4.5t13.5 -2.5t15 -0.5t13.5 0.5t15 2t13 2.5t14.5 3.5t13 3q37 2 49.5 2t49.5 -4.5t48 -5.5q1 -6 6.5 -33t7 -45.5t1 -41.5t-11.5 -36t-31 -14 q-10 0 -48 -3t-49.5 -2.5t-48.5 3.5q-20 5 -33.5 3t-36.5 -6.5t-36 -4.5q-99 0 -146 2q-19 1 -44 -2.5t-44 0.5q-16 2 -56 2t-59 2q-32 4 -43 4q-28 4 -38 4q-6 0 -10 1t-6.5 2t-5 4t-3 4.5t-3 6.5l-3.5 7q-4 13 -22.5 12.5t-22.5 5.5q-2 4 -6 11.5t-6.5 12t-5 11.5t-3.5 14 q-1 10 -0.5 26.5t9 31t22.5 12.5q1 0 14 3t19 3q53 0 80 2q13 1 35.5 -0.5t42 -0.5t34.5 9q11 28 6 91q0 13 3.5 37t3.5 38q0 4 -3.5 30.5t-3.5 41.5q0 5 3.5 39t-1.5 37q-1 6 2 36.5t3 56t-7 28.5q-3 3 -2.5 12t2 22t0.5 15v90q0 10 3 37t2 41q-1 5 1.5 22t0.5 21 q-6 17 -2 53q1 9 -0.5 40t2.5 40q8 13 0.5 67.5t-7.5 67.5q3 43 0 90q-1 24 -16 30.5t-43 4.5q-101 -5 -135 6q-11 3 -23 1.5t-25 2.5t-18 17q-5 10 -4 49.5t8 50.5q8 13 17 19t16 7.5t25 2.5q6 0 19 2t18 2q14 -1 46.5 0.5t43.5 1.5q22 0 64.5 -5.5t74.5 -0.5q42 6 70 0 q10 -1 18 -0.5t18 -1t17 -5.5q6 -1 8.5 -1t9 2.5t8.5 3.5q11 4 58 4q10 0 38.5 -1.5t45.5 -0.5q23 2 69 2q6 0 42.5 -5t60.5 -1q15 2 32.5 -2.5t30.5 -4.5h33q26 0 70 7q14 1 65 -9q13 -2 45.5 -10t53.5 -8q5 -1 13.5 -5.5t12.5 -4.5q3 0 8.5 -5t8.5 -6q34 -5 45 -8 q4 0 11 -4.5t14.5 -11t10.5 -8.5q2 -1 4 -2.5l4 -3t3 -1.5q5 -3 11 -7t11 -7q5 -4 13.5 -13t13.5 -13q26 -19 24 -25q-1 -4 6 -11t17 -13.5t12 -8.5q1 -3 6.5 -21t12.5 -26q4 -4 4 -24.5t4 -24.5q3 -3 5 -10.5t2 -14t-0.5 -16.5t-0.5 -12q3 -33 -25 -97q-6 -15 -18 -32 t-21.5 -26.5t-29.5 -29t-25 -24.5q-7 -6 -21 -21.5t-24.5 -23t-23.5 -11.5q-9 -3 -28 -13.5t-28 -14.5q-3 -1 -14.5 -4.5t-20.5 -6.5t-19.5 -7t-17 -9t-8.5 -10zM668 1264q-8 -3 -10 -29.5t1 -32.5q1 -16 -0.5 -46.5t-1.5 -37.5t3 -26t2 -29q-2 -12 1.5 -40t0.5 -40 q-6 -21 4 -51q3 -6 2.5 -15.5t3.5 -13t18 -4.5q15 -1 45 -2t45 -2q16 -1 101 4q19 0 66 -1.5t78.5 0t66.5 7.5q12 2 24 6.5t26.5 12t22.5 10.5q2 1 9 8.5t15 13.5t13 7q7 0 17 14l10 14q8 8 14.5 29.5t5.5 34.5q-1 8 -1.5 34.5t-2.5 40.5q0 2 -4 10t-4 11q-1 11 -7 20 t-18.5 19.5t-13.5 11.5q-4 3 -13 16t-19 22.5t-21 10.5q-19 0 -59 12t-60 13q-26 1 -67 -1t-66 -1q-29 2 -101.5 0.5t-101.5 -0.5q-19 0 -24 -10z" />
<glyph unicode="S" horiz-adv-x="1431" d="M752 1409q22 4 49 2q9 -2 22.5 -11t22.5 -11q2 -1 14 -6t22.5 -9.5t10.5 -7.5l17 -9l20 -11q4 -4 30.5 -22t34.5 -34q1 -2 8.5 -15t15 -20t17.5 -10q21 5 21 41q0 7 -3 35t-0.5 47t13.5 31q10 10 23.5 12t36.5 -2t24 -4q5 -1 21.5 -0.5t29 -0.5t15.5 -5q3 -7 14 -21 q2 -5 5 -41.5t5 -44.5q2 -3 1 -14.5t-5 -11.5v-45q-7 -38 -8.5 -90t0.5 -93t0 -90q-2 -29 -14 -55.5t-33 -22.5q-1 0 -9.5 -2t-9.5 -2q-7 -4 -14 -0.5t-10 2.5q-9 0 -31.5 11.5t-22.5 19.5q0 2 -15.5 14.5t-18.5 12.5q-8 0 -20 19.5t-15 21.5q-2 2 -9.5 25t-9.5 24 q-3 0 -10.5 13.5t-9.5 19.5q-4 7 -13 19l-10 13q-13 21 -36 47q-2 4 -12 12l-11 9q-19 24 -29 29q-37 24 -39 28q-18 18 -57 27q-8 2 -25.5 15t-27.5 12q-15 0 -43.5 12t-46.5 12q-67 0 -133 -18q-33 -10 -58.5 -43t-34.5 -73t0 -71q17 -61 80 -106q12 -7 60.5 -26t62.5 -29 q18 -11 42 -19.5t61 -18t47 -12.5q8 -3 29 -11.5t34 -10.5q6 -3 17 -9t19 -9.5t15 -2.5q11 1 27 -4t27 -10t31 -15.5t26 -13.5q7 -3 23.5 -9.5t25 -10t21 -11t22.5 -16.5q27 -24 92 -65q7 -4 14 -12t14 -18.5t11 -14.5q11 -11 17 -31q5 -33 38 -70q23 -29 27 -61 q23 -87 0 -178q-1 -11 -8.5 -31t-9.5 -27q-4 -21 -13 -30q-2 -3 -5 -10.5t-7 -15t-10 -13.5q-3 -3 -8 -15.5t-11 -21.5t-12 -10q-3 -1 -8.5 -11t-11.5 -8q1 -1 -1.5 -3t-6.5 -4t-8 -3.5t-7 -3t-4 -2.5q-4 -5 -12.5 -15t-13 -15.5t-13.5 -11.5t-18 -9q-5 -2 -23 -11t-18 -10 q-15 -1 -33.5 -15t-34.5 -14q-54 0 -69 -4h-60q-44 6 -72 6q-5 1 -26.5 5.5t-34.5 3.5q-13 0 -90 16q-1 0 -10.5 6.5t-12.5 7.5q-33 8 -51 15q-5 2 -18 11.5t-21 10.5q-10 0 -23 8.5t-20 16.5q-3 5 -26 17.5t-25 21.5q0 -1 -3.5 1t-6.5 4l-4 3q-9 7 -25 31q-20 35 -39 37 q-3 -12 -12 -39q-1 -6 -2 -22t-2 -23q1 -8 0 -17t-3 -19.5t-3 -15.5q-1 -6 -6 -16.5t-5 -15.5q-2 -9 -12 -13.5t-19.5 -6.5t-9.5 -3q0 -2 -18.5 -2t-39 1.5t-25.5 4.5q-31 3 -41 23q-8 15 -12 41t-4.5 44.5t0.5 54.5t1 44q2 41 2 123q1 20 2 58.5t2 58.5q1 8 -0.5 27.5 t0.5 27.5q0 3 1 22t3.5 31t8.5 19q6 10 28 24t31 2q4 -4 14.5 -5t23 -0.5t15.5 -0.5q6 -2 39 -2q26 -2 41 -10.5t25 -30.5q7 -12 13.5 -47.5t14.5 -50.5q4 -9 21 -36t20 -38q3 -7 8.5 -12.5t13 -11t9.5 -7.5l10 -10q1 -1 6 -8t9.5 -13t10 -13t11 -11t8.5 -4q9 -1 21.5 -18 t17.5 -19t17 -11.5t16 -10.5q3 1 10 -5t11 -6q1 0 14 -6t25.5 -13t11.5 -9q1 -7 20.5 -13t26.5 -6q19 -1 52.5 -8t49.5 -8q22 0 92 16q5 1 26.5 17t29.5 16q3 1 12 1.5t14 2.5q9 5 25.5 23.5t17.5 27.5q1 11 5 25.5t4.5 21.5t-0.5 27q0 12 -6.5 24.5t-8.5 22.5 q-1 14 -16.5 35.5t-28.5 32.5q-5 5 -25.5 15t-27.5 19q-4 4 -10.5 7t-16 5t-12.5 3q-2 1 -10 7.5t-16.5 11t-14.5 3.5q-3 0 -11 9t-12 8q-3 0 -17 3.5t-17 6.5t-22.5 6.5t-22.5 7.5q-3 6 -23.5 10.5t-23.5 6.5q-10 7 -30 23.5t-30 23.5q-15 5 -33 -4q-16 -4 -23 -1.5t-21 11 t-23 10.5q-8 3 -32 16t-32 15l-12 3l-14 3.5t-11 5.5q-10 10 -22 10q-6 1 -13 4.5t-16.5 10t-13.5 8.5q-13 10 -38 25t-40 30q-11 13 -37 34.5t-39 43.5q-26 44 -32 57q-27 44 -31 76q-12 138 16 215q3 12 13.5 11t13.5 -13q5 -24 13 -25q3 0 7 3q11 6 11 39q1 5 0 31.5 t6 31.5q9 14 20 26.5t26.5 28.5t24.5 27q16 18 39 35q4 4 11 6.5t15.5 4.5t12.5 3q2 0 43.5 13t52.5 14q12 3 51.5 7.5t51.5 4.5q5 0 14.5 -4t13.5 -4q8 -1 28 0.5t26 -0.5q4 -1 25 -2.5t30 -7.5q5 -3 14 -12t11 -13z" />
<glyph unicode="T" horiz-adv-x="1556" d="M1309 823q-24 53 -27 70q-2 2 -1 25.5t1 25.5q0 4 3.5 21t2.5 24v60q-1 10 -5.5 42.5t-4.5 47.5q0 51 -10 73q-1 2 -3 18.5t-8 22.5q-4 -1 -13.5 4t-14.5 5q-15 -3 -31 -7q-73 -10 -160 -2q-4 0 -22 2.5t-31.5 3t-29.5 0t-25 -6.5t-10 -17q-1 -4 -2.5 -17t-2.5 -18 q-10 -33 -6 -82q5 -134 2 -174q-2 -27 -1.5 -66.5t-0.5 -66.5q0 -23 2 -77t2 -77q0 -12 -2 -36.5t-2 -45t4 -36.5q3 -13 0 -41t0 -41q9 -50 7 -70q-2 -23 2.5 -68t3.5 -65q0 -4 -1.5 -14t-1.5 -15v-13t2 -14.5t5 -11.5q19 -12 84 -6q8 0 45 2t61.5 0t42.5 -10q22 -10 27 -31 q10 -30 2 -96q-2 -10 -5.5 -14.5t-10.5 -7.5t-11 -7q-5 -5 -22 -7.5t-39.5 -3.5t-26.5 -1q-9 -1 -59 4q-4 0 -12.5 -3.5t-12.5 -4.5q-1 0 -30 -1t-43 -5q-11 -2 -36 3t-28 5h-49q-22 0 -56.5 -1t-58.5 -1h-76q-3 0 -14 1.5t-17.5 2t-11.5 -1.5q-18 -5 -32.5 -3.5t-38.5 5.5 t-33 4q-31 0 -63 19q-23 13 -26 47.5t15 54.5l16 11q16 12 30 20t14 4q5 -2 18.5 -0.5t33 4t21.5 2.5q16 2 42.5 1.5t41.5 0.5q25 0 35 10l10 35q-5 5 -3.5 52.5t5.5 60.5q3 7 1.5 35t-5.5 32q-5 1 -3.5 30t1.5 32v125q0 3 2 21.5t2.5 30.5t-2.5 19q-7 4 -2.5 33t0.5 33 q-7 2 -3 27.5t3 29.5q0 1 -3.5 13t-3.5 16t3 12q3 5 2.5 11t-2.5 15t-2 11q0 12 1.5 39.5t0.5 44.5q-1 5 2 34.5t-2 31.5q-6 12 -6 47v108q5 58 2 76q-4 17 -21 20.5t-48 -0.5t-37 -4q-15 0 -49.5 -0.5t-63.5 -0.5t-51 1q-5 0 -16 1.5t-20.5 2t-19.5 0t-17 -5t-9 -12.5 q-5 -18 -6.5 -41.5t-0.5 -60t1 -41.5q0 -150 -13 -234q-3 -14 -4.5 -20t-8.5 -13.5t-19 -9.5q-23 -4 -69.5 -4.5t-66.5 -3.5q-29 -3 -46.5 3t-24.5 22.5t-8.5 31.5t-1.5 42t-2 42q-1 10 -0.5 23t1.5 36t1 33v127q-1 6 7.5 42.5t0.5 43.5q-8 5 -9 40t3 42q4 15 34 45 q3 4 23.5 14t24.5 15q7 9 20 11.5t36 0.5t25 -2q17 -1 53.5 5.5t57.5 3.5h5q6 -1 12 -1h12.5t10.5 1.5t5 3.5q4 1 16.5 0.5t31 -1.5t20.5 -1q86 8 129 4q0 -3 38.5 -1.5t41.5 1.5q61 5 82 -2q13 -6 36.5 -2.5t36.5 0.5q18 -3 50.5 0.5t52.5 -0.5q39 -8 147 2q18 2 56.5 -1.5 t56.5 -2.5q20 1 58.5 -4.5t57.5 -4.5q5 0 35.5 7t46.5 2q7 -1 19 1t18 1q6 0 19 -3.5t14 -3.5l29 -3q30 -3 49 -10t22 -21q0 -3 2.5 -6t6 -7t4.5 -6q8 -23 12 -69q1 -17 -2 -50.5t-2 -48.5q5 -70 2 -90q-3 -19 -1 -51t-1 -51v-37q1 0 0.5 -33t-2.5 -41q-5 -14 -4 -40t-4 -40 q-3 -6 -6.5 -9t-10.5 -5t-10 -4q-42 -11 -93.5 -4.5t-90.5 22.5z" />
<glyph unicode="U" horiz-adv-x="1785" d="M842 1274q-9 -10 -35.5 -11.5t-63 2t-41.5 3.5q-42 3 -75 -2q-31 -2 -31 -70q1 -12 3.5 -49t2.5 -52t-2 -51q-2 -25 1 -78.5t3 -68.5q0 -10 1.5 -38.5t0.5 -45.5q-1 -9 2 -29t2 -28q-10 -78 -10 -92q5 -66 4 -78q-3 -48 2 -86q3 -22 0.5 -66.5t3.5 -66.5q16 -72 27 -88 q3 -3 8 -11.5t10.5 -15t10.5 -10.5q11 -8 25.5 -21.5t27.5 -23t29 -15.5q32 -16 63 -16q14 0 49.5 -4.5t48.5 -5.5q30 -5 115 10q8 2 24 4.5t29 5.5t23 8q10 6 33.5 18.5t33.5 18.5q3 3 12 8t11 7q3 2 13.5 19t19.5 19q4 0 10.5 13.5t12 29.5t7.5 19q17 26 17 106 q0 22 -3.5 51t-4.5 42q-1 12 2 57t-2 57q-4 14 -1.5 55.5t1.5 55.5q0 8 0.5 22t0.5 26t-1 23q0 8 2.5 31.5t1.5 34.5q0 2 -4 31.5t-4 39.5t4 33q4 8 5 18t0 28t-1 22q0 57 4 61q2 3 1.5 12t-1.5 18l-2 9q1 0 -2.5 35.5t-5.5 42.5q-5 17 -20 19.5t-32 -2.5q-8 -1 -28.5 1.5 t-26.5 2.5q-3 0 -62 -1.5t-63 1.5q-18 1 -27.5 12t-9.5 25q-1 9 1.5 23.5t2.5 21.5q-4 48 4 67q14 33 113 6q24 -6 27 -6t10.5 1.5t13.5 0.5q4 -1 8 -6t7 -6t8.5 -6.5t9 -6.5t14.5 3q1 1 6 7t7 7q3 1 8 2l10 2t9.5 2.5t7.5 3.5t2 4q-1 8 32 6.5t63 -5.5t38 1q4 4 41.5 0 t46.5 -8q7 -4 20 -4t29.5 2t21.5 2q2 0 24 2t39.5 2t20.5 -4q1 -3 11.5 -10t23.5 -15t15 -10q5 -9 10 -22.5t10 -22.5q5 -7 4.5 -24.5t-10.5 -20.5q-2 -1 -12 -2.5t-18 -4t-9 -5.5q-4 -10 -47 -14t-60 -2q-60 12 -96 -11q-15 -10 -19 -30.5t-0.5 -54.5t3.5 -37 q0 -22 3.5 -73t2.5 -79q0 -8 -3 -53.5t-2.5 -56.5t3.5 -52q4 -10 1.5 -34t-1.5 -33q0 -1 2 -23.5t1.5 -39t-5.5 -19.5q-5 -8 -3 -31t4.5 -54.5t0.5 -37.5q-2 -9 0.5 -31t-0.5 -31q-2 -13 0 -39t0 -38q-1 -14 0 -44t0 -45q-1 -8 -5 -25.5t-5 -25.5q-2 -14 -11.5 -35 t-11.5 -30q-1 -4 -8.5 -23.5t-7.5 -25.5q-2 -4 -18 -21.5t-19 -17.5q-6 -1 -20 -15.5t-15 -15.5q-32 -32 -37 -35q-35 -20 -108 -43q-11 -3 -34 -7t-34 -7q-46 -6 -47 -6q-7 -1 -30 -4.5t-36 -6.5q-18 -8 -36 -8.5t-39 2.5q-39 0 -45 2q-15 3 -44 2t-44 2q-15 2 -54 6.5 t-61 8.5q-15 3 -19 6q-4 1 -16.5 1t-23 1.5t-15.5 5.5q-6 6 -31 14q-8 7 -33 16.5t-30 12.5q-18 9 -43 29q-4 4 -14 17t-19.5 23t-15.5 13q-13 5 -39 66q-16 31 -27 84q-10 42 -9 114t-3 115q-5 36 -5 78t2.5 93t2.5 77q0 24 2 75t2 76q0 14 -3.5 47t-4.5 41q0 1 -3 36t1 36 q6 14 7 33.5t-0.5 34t-4.5 38t-4 33.5v45q-1 2 -4 2.5t-4 3.5q-3 11 -20 11t-26 -4q-11 -2 -43 0.5t-43 -4.5q-9 -4 -21 -5t-29 0.5t-23 1.5q-16 -1 -24 5.5t-10 14t-3 23.5q-1 9 -2.5 25t-1.5 22v25q1 3 1.5 10.5t2 14t4.5 10.5q1 1 6 3.5t9.5 5t4.5 3.5q3 13 48.5 9 t50.5 4q7 21 143 4q14 -1 38 -3.5t38 -4t34 -1t38 4.5q15 2 31 -1.5t26 -3.5q17 1 49.5 3.5t44.5 3.5q14 3 62 -7l26 -4q6 9 21 9q4 -1 24 0.5t27 -2.5q15 -4 37 -23q16 -13 16 -39q5 -17 3.5 -51t-19.5 -43z" />
<glyph unicode="V" d="M1014 12q-18 -22 -40.5 -25.5t-49.5 1.5q-17 1 -62.5 1.5t-75.5 2.5q-53 2 -82 13t-45 48q-9 25 -16 58q-1 3 -4.5 19t-7.5 29.5t-8 14.5q-10 4 -14.5 34t-4.5 50q1 7 7 14t4 9.5t-15 7.5q-21 9 -29 37q-15 61 -26 88q-1 3 -5.5 19t-9 29t-8.5 15q-6 2 -12 34t-10 38 q-6 5 -10 18t-7 15q-3 3 -10 30q-2 7 -10.5 28.5t-9.5 29.5l-9 16q1 0 -2 11t-6.5 22.5t-3.5 13.5q-2 19 -15 45.5t-16 42.5q-16 49 -20 51t-9.5 17t-10 35t-5.5 22q-39 90 -47 115q-7 17 -19.5 55.5t-17.5 52.5q-2 5 -6.5 25.5t-11.5 36t-18 26.5q-15 13 -70 7 q-76 -15 -131 -7q-17 1 -24.5 12.5t-7.5 23.5t1.5 31.5t1.5 27.5q0 24 -1.5 42.5t10 30.5t40.5 13q49 4 70 -4q9 -6 28.5 -2t26.5 2q8 -2 22 -7.5t23.5 -9t22 -3.5t22.5 7q32 21 58 17q12 -2 40 -0.5t40 0.5q16 0 38 -2t39 -2q31 0 81 1t81 1q6 0 29 2t42 2t40.5 -1.5 t34.5 -9.5t14 -22t-1 -39t-1 -37q4 -50 -2 -67q-29 -19 -111 -4q-10 2 -33.5 0.5t-33.5 -0.5q-56 5 -72 2q-18 -1 -20.5 -10.5t4.5 -22.5q1 -1 3.5 -11t6 -18.5t6.5 -9.5q1 -1 20 -76q18 -53 19 -53q3 0 26 -68q17 -39 44.5 -116.5t39.5 -108.5q6 -18 19.5 -51.5t23.5 -61.5 t17 -53q20 -58 22 -65q5 -15 23 -60q2 -3 6.5 -27.5t7.5 -27.5q10 -8 23 -60q16 -65 28 -77q9 -9 16 3.5t12 29.5t7 18q1 1 14.5 23.5t14.5 23.5q13 65 22 63q-2 0 8.5 25.5t21.5 51.5t11 28q0 6 9 22.5t10 18.5q2 8 8.5 21.5t7.5 15.5q4 18 15.5 48t15.5 46q3 9 14.5 34.5 t16.5 41.5q3 9 15.5 38t14.5 46q0 11 11.5 34.5t21.5 24.5q-5 35 12 78l19 47q1 0 6 10.5t10.5 23t5.5 13.5q17 34 21 62q0 7 4 17.5t10 22.5t8 17q6 14 -1.5 22t-25.5 10t-34 2t-36.5 -1.5t-24.5 -1.5q-19 -1 -55.5 -5.5t-53.5 -5.5q-59 -5 -61 27q-1 11 -3 30t-2 28v30 q0 3 1 18t3.5 26t6.5 15q17 9 78 9q14 -1 29.5 -1t36.5 0.5t34 0.5h170l37 -2q36 -3 63 -2t29 8q0 2 117 2q27 1 84 -2t84 -2q2 0 10 -4t8 -7l14 -30q8 -1 1.5 -22.5t-3.5 -24.5q7 -4 0 -52q-2 -14 -16 -28q-2 -2 -13.5 -7.5t-13.5 -7.5q-3 -4 -16.5 -4.5t-31.5 1t-19 1.5 t-44 -0.5t-44 0.5q-8 1 -24.5 4t-23.5 3t-24 -3q-7 -2 -11.5 -4.5t-7.5 -7t-4 -7t-3 -10t-3 -9.5q-3 -8 -11 -31.5t-13 -36.5q-38 -90 -54 -147q-14 -48 -46.5 -134t-41.5 -112q-2 -7 -12 -22t-12 -19q-4 -12 -10.5 -38t-10.5 -38q-6 -16 -19 -49.5t-22 -59t-16 -51.5 q-7 -21 -23 -45q-7 -10 -13 -36.5t-13 -37.5q-5 -8 -10 -19.5t-9.5 -26.5t-7.5 -21q-2 -3 -5.5 -10t-4.5 -9.5t-3 -8t-2.5 -11t-0.5 -12.5q0 -11 -10.5 -29.5t-10.5 -26.5q-1 -11 -4.5 -25.5t-8.5 -31.5t-7 -25q0 -8 -9 -29t-10 -24q-1 -4 -1 -8v-6.5t-1 -6.5t-4 -7 q-2 -3 -10.5 -6.5t-11.5 -6.5z" />
<glyph unicode="W" horiz-adv-x="2467" d="M1356 1257q-3 -18 5 -41t9 -32q0 -2 6.5 -19.5t12 -33t2.5 -15.5q-3 -5 -2.5 -13t7.5 -28t10.5 -29.5t6.5 -17.5q5 -11 12 -39.5t13 -42.5q14 -33 30 -99.5t31 -98.5q3 -6 14 -50q2 -9 14.5 -33t12.5 -34q2 -12 10.5 -38.5t12.5 -29.5q5 -5 7.5 -13t5 -23.5t3.5 -18.5 l16.5 -49.5t16.5 -59.5q0 -22 11.5 -56t31.5 -19q7 4 15.5 21t10.5 26q1 4 3.5 17t5 23.5t6.5 14.5q6 4 19.5 45t13.5 51q1 9 28 70q3 10 11 25.5t10 29.5q19 107 53 168q16 32 18 57q0 23 9 35q5 5 9 15.5t8 27t5 21.5q5 11 14.5 36t18 43.5t18.5 34.5q6 8 27 85t14 81 q-19 11 -39 9h-59h-72q-7 0 -21.5 4t-21.5 4q-17 -2 -26.5 8t-11 29t-0.5 37.5t3 39t2 27.5q-1 7 3.5 12t14 8t20.5 5t26 2.5t27 0.5t28 -1t25 -1.5t21 -1.5t14 -1q8 0 41 -2.5t40 -2t39 2.5q16 4 65 2.5t67 -0.5q14 1 42.5 2t43.5 2q1 0 15.5 1.5t27 1.5t14.5 -3 q6 -8 38 -7.5t44 -1.5l26 -10q1 4 8.5 -1t15.5 -12l7 -7q1 0 8 -8.5t7 -10.5q-1 -3 3.5 -8t4.5 -8q2 -7 2 -13.5t-1 -10.5t-4.5 -11.5t-4.5 -11.5q-10 -28 -24 -37t-46 -12q-21 -3 -76.5 -0.5t-75.5 -3.5q-14 -3 -25.5 -15t-19.5 -33.5t-13 -36t-10.5 -40.5t-6.5 -29 q-4 -10 -25.5 -58t-28.5 -73q-3 -11 -12 -35t-12 -35q-8 -34 -21 -71q-3 -8 -12 -24.5t-12 -27.5q-17 -61 -33 -86q-5 -8 -9 -17.5t-7 -22t-5 -17.5q-4 -10 -11.5 -38t-14.5 -44q-14 -31 -31 -92t-27 -86q-17 -37 -40.5 -118t-26.5 -91q-5 -15 -21 -47q-1 -3 -4.5 -20.5 t-7.5 -30.5t-8 -17q-3 -3 -11.5 -20l-9.5 -19q-5 -9 -12.5 -13t-22 -7.5t-20.5 -5.5q-19 -6 -90 4q-18 2 -63 -1t-60 7q-27 10 -37 33q-2 6 -15.5 26t-14.5 29q0 10 -13 43q-1 3 -5 8.5t-6.5 9.5t-2.5 7l-8 16q-4 1 -15 55q-1 1 -6 10.5t-8.5 19t-1.5 9.5q1 0 -5 19.5 t-12 41.5t-6 25q-6 24 -16 54q-10 31 -12 43q-2 7 -10.5 23t-8.5 22q-4 24 -18 67t-18 66q-25 112 -35 112q-7 0 -22 -47.5t-17 -68.5q-3 -17 -13 -52.5t-12 -54.5q-3 -13 -10.5 -39t-9.5 -43q0 -2 -3.5 -15t-4.5 -13t-2 -9t-2 -19t-3 -13q-7 -10 -11 -39.5t-7 -38.5 q-11 -25 -18 -58q-1 -7 -5.5 -20.5t-5.5 -20.5q0 -6 -7.5 -28t-10.5 -25q-6 -4 -15 -39t-20 -39q-1 0 -5.5 -5t-4.5 -7q-3 -3 -11 -13t-15 -17t-11 -9q-34 -15 -82 -12q-28 3 -65 -0.5t-65 -1t-58 19.5q-13 11 -33 52q-18 48 -29 61q-14 11 -20 45q-2 7 -16.5 36t-14.5 44 q-2 14 -25 53q-2 6 -5 17.5t-6 21t-7 16.5q-6 8 -10 29.5t-6 26.5q-13 50 -21 53q-6 4 -16 45q-12 55 -31 86q-3 4 -9.5 25.5t-12.5 40t-9 18.5q-4 0 -24 78q-2 6 -8.5 21.5t-8.5 21.5q-5 14 -12 41t-12 41q-7 16 -17.5 47.5t-17.5 48.5q-1 3 -6 16.5t-9 25.5t-6 13 q-2 2 -10 23t-8 24q-1 10 -13 33t-14 29q-30 76 -43 92q-12 14 -34 21t-34.5 7.5t-41.5 0.5q-1 0 -26.5 -2.5t-43.5 -1.5t-20 8q-5 10 -21 26q-6 9 -2 39q0 19 6 33.5t15 28.5q11 20 19 24q5 2 15 4q3 1 15 4t20 3q17 1 57.5 -4.5t61.5 -4.5q19 1 52.5 5t50.5 4.5t57 -4.5 q15 -5 47.5 -0.5t44.5 2.5q20 -2 121 -7q64 0 112 13q6 2 14.5 -1t10.5 -3q30 -8 38 -15.5t11 -36.5q3 -38 -2 -67q-12 -23 -10 -27q-44 -24 -162 -8q-44 6 -62 -15.5t-3 -60.5q34 -90 45 -114q7 -14 12 -29l14 -33q-1 -3 4.5 -10t5.5 -10q-1 -8 10.5 -37t12.5 -35 q7 -24 20 -47q3 -4 7.5 -20.5t7.5 -18.5q2 -2 10 -30t14 -29q4 -1 8 -10.5t6 -20t4.5 -22.5t2.5 -13q1 -15 24 -66q12 -19 37 -98q5 -15 13.5 -42.5t13.5 -41.5q1 -3 8.5 -22.5t7.5 -26.5q-2 -16 16.5 -57.5t20.5 -55.5q1 -5 10 -20t11 -21q9 -24 22 23l2 6q5 10 14.5 47 t18.5 51q9 18 14.5 49t8.5 42q11 35 27 91t28 91q10 41 18 92q0 1 6 14.5t11.5 25.5t7.5 13t5.5 17.5t6.5 19.5q5 9 8.5 24.5t7.5 22.5q11 17 18 54.5t15 54.5q17 34 11.5 85t-25.5 81q-8 13 -12 37.5t-15 31.5q-17 12 -36 15.5t-48.5 2.5t-38.5 -1q-2 0 -15.5 1.5t-26 3 t-26.5 4.5t-22.5 8t-7.5 11q1 7 -4.5 25t-5.5 20q0 49 6 76q4 19 34.5 22t43.5 -3q19 -5 41 2q7 1 19.5 0t19.5 0h4.5h8.5h11t11.5 -0.5t11 -0.5t9 -0.5t6.5 -1t1 -1.5q4 7 34 7.5t69.5 -2.5t44.5 -3h84q9 1 16 5.5t14 4.5q30 0 76 -8q13 -3 41.5 -1.5t42.5 -2.5q68 13 92 3 q12 -5 19 -14q6 -10 9.5 -48t-3.5 -40q-8 -35 -12 -41l-15 -10q-40 -16 -71 -18q-74 0 -89 -2q-9 -2 -24 0.5t-27.5 2.5t-19.5 -6z" />
<glyph unicode="X" horiz-adv-x="1816" d="M920 1423q10 -13 11 -34t-4 -52t-5 -37q-2 -18 -9 -26t-14.5 -9t-28.5 -1q-8 0 -30 -4t-35 -3q-3 0 -22.5 1.5t-38 2t-38.5 -1t-30.5 -8t-7.5 -18.5q1 -10 15 -27t24 -24q6 -5 15.5 -16.5t10.5 -12.5l10 -10q25 -25 27 -31q16 -32 43 -51q8 -7 21 -24t20 -23 q2 -3 12.5 -14.5t19 -21t7.5 -11.5q0 -8 18 -32q16 -22 23 -11q8 10 37 34.5t37 36.5q6 8 22 22.5t19 16.5q31 35 53 41q11 2 24.5 23t16.5 24q4 4 11 13.5t11 13.5q2 1 8 7.5t13 13.5l6 8q3 0 29 26q7 3 17 12.5t13 16.5q3 9 -5 14.5t-23.5 8t-31 3t-30.5 1t-18 0.5 q-20 3 -59 -1t-50 -4q-7 0 -37 5q-2 7 -4 22t-2 16v93v32q0 10 22 10t38 -3q14 -2 40.5 1t34.5 3q6 0 33 -2.5t33 0.5q25 3 51.5 -1t44.5 -4h55q17 -1 58 7t61 6q9 -2 30.5 -10.5t35.5 -8.5q8 -1 53 9q46 9 98 6h15h19.5t19 -1t20.5 -3.5t16 -6.5t13.5 -10.5t5.5 -15.5 q3 -32 5 -59t-12 -47t-46 -25q-19 -3 -60.5 -1.5t-60.5 -2.5q-11 -2 -32.5 1.5t-31.5 0.5q-7 -2 -26 -13.5t-19 -15.5q-2 -11 -35.5 -29.5t-33.5 -31.5q0 -5 -8 -13.5t-19.5 -17t-13.5 -10.5q-6 -5 -15.5 -16.5t-15.5 -16.5q-5 -5 -25.5 -21.5t-27.5 -25.5q-1 -2 -5 -8.5 t-10 -12.5q-2 -2 -9.5 -12t-10.5 -12q-28 -23 -82 -78t-64 -64q-5 -5 -21 -20t-21 -21t-14 -19.5t-8.5 -22.5t5 -23t16.5 -29q11 -12 32 -40t32 -40q9 -8 25.5 -26t19.5 -21q6 -6 22 -24t21 -23q6 -6 17.5 -20.5t17.5 -20.5q3 -4 11 -10.5t11 -9.5q8 -8 21 -27.5t22 -28.5 q3 -4 12 -20t13 -19q13 -11 24 -23t25 -28t25 -28q3 -4 14 -18.5t18 -20.5q7 -7 23 -25.5t16 -21.5q0 -2 12.5 -19t16.5 -18q4 -2 15.5 -12.5t23.5 -10.5q2 0 28 2t27 -4q3 -2 23 -1.5t26 -0.5q14 -1 38 1.5t34 2.5q3 0 7.5 0.5t6 0t5 -2.5t8.5 -6q5 -9 7 -20.5t2 -19.5 t-0.5 -22.5t-0.5 -21.5q2 -12 2 -31q0 -8 -2 -14.5t-5.5 -13t-4.5 -11.5q-5 -14 -41 -14q-17 0 -46 -2t-46 -2q-15 0 -47 2.5t-57.5 2t-47.5 -6.5q-8 -2 -15.5 2t-16.5 12t-13 10q-9 6 -23 -5.5t-16 -12.5q-10 -5 -60 -3t-61 1t-13 0.5t-13 -0.5q-33 -3 -70 8 q-10 3 -38 -1.5t-34 -4.5h-92q-6 0 -24 -1.5t-34 -2t-34 0.5t-30 6.5t-15 14.5q-4 8 -2.5 41t0.5 43q-4 45 0 60q2 7 8.5 11t12 5t14.5 1.5t12 0.5q9 1 22 0t31 -3l27 -3q3 0 25 -1.5t42.5 -2t43.5 1t37 7.5t14 16t-21 33.5t-20 27.5q1 9 -33 37.5t-33 38.5q1 5 -13.5 19.5 t-15.5 21.5q-1 4 -1 15.5t-3.5 18t-13.5 9.5q-5 1 -10 3.5t-10 6.5t-8.5 7t-9 9.5t-8 9t-8.5 10.5t-7 10t-7 11l-6 9l-14.5 14.5t-17 17.5t-11.5 17q-12 16 -24 16q-29 -6 -41 -16q-3 -3 -33 -39q-20 -16 -27 -23q-6 -6 -21 -22.5t-24 -24.5q-10 -8 -25 -23t-22 -20 q-13 -9 -65 -61q-15 -13 -70 -68q-2 -2 -16.5 -18.5t-22.5 -22.5q-9 -4 -16.5 -14t-5.5 -19.5t18 -11.5q37 -4 63 4q9 2 31 -2.5t29 0.5q12 4 20 3.5t23.5 -3t21.5 -2.5q26 0 72 4q15 -15 10 -67q-1 -6 2 -33.5t0.5 -47.5t-16.5 -20q-5 0 -15 -4t-12 -4q-16 -2 -51 -2h-67 q-77 0 -78 -2q-39 0 -49 2q-14 3 -29.5 3t-35 -1.5t-30.5 -1.5q-77 0 -92 -2q-31 -9 -51 0q-11 3 -21 3t-27 -2.5t-22 -2.5q-18 0 -32 1t-31 1q-9 0 -28 -2.5t-34 -2.5t-26 5q-1 4 -5.5 10.5t-4.5 14.5q0 24 2 34q2 12 -0.5 36.5t-3 40.5t9.5 29.5t33 14.5q26 2 88.5 -3.5 t87.5 3.5q6 1 14 9t14.5 15.5t14.5 18.5t10 13q11 11 43 47q11 11 40 44t48 52q93 103 172 176q2 3 21.5 15.5t21.5 19.5q6 13 19 28.5t24 16.5q10 1 28 21l17 20q2 1 12 9.5t12 11.5t6 10.5t0.5 14.5t-11.5 15q-15 14 -36.5 41t-27.5 33q-10 9 -23.5 27t-19.5 24l-4 4 q-4 3 -8.5 7t-9.5 9t-8 9.5t-3 7.5q0 5 -8.5 14t-20 18.5t-12.5 10.5q-2 4 -6 12.5t-9 15.5t-13 11q-9 4 -21 22.5t-22 24.5q-5 2 -8 8t-7 8q-1 1 -11 11.5t-11 11.5q-3 10 -12.5 22.5t-17.5 20.5t-21 20.5t-15 14.5q-23 26 -65 78q-23 27 -46.5 37t-60.5 8q-41 -2 -145 -2 q-1 0 -14 0.5t-19.5 3.5t-9.5 10q-4 5 -6 19.5t2 19.5q4 3 -2 24.5t-4 28.5q1 2 4 23t8 30q6 15 19 18.5t35 0.5t30 -2q17 2 58.5 -1t49.5 -3h99q25 2 69 2q14 -1 45 0t47 0q38 -4 81.5 -3.5t82.5 -0.5q3 0 21.5 1.5t33 1.5t17.5 -3q1 -8 30.5 -4t32.5 4q24 -4 37 -4 q4 0 10 2.5t9 1.5q11 -6 39.5 -5t36.5 -8z" />
<glyph unicode="Y" horiz-adv-x="1804" d="M864 1432q11 -24 6 -66q-1 -9 0.5 -36t-4.5 -36q-3 -8 -10.5 -12t-15.5 -4.5t-17 -1t-16 -0.5q-15 0 -45 -4t-47 -4q-11 0 -53 4t-54 0l-7 -2q-7 -3 -13 -6t-12.5 -7.5t-6 -9t5.5 -10.5q27 -18 27 -29q1 -8 12 -20t26 -25.5t19 -17.5q4 -5 24 -24t28 -31q15 -23 37 -43 q13 -13 24 -35q4 -5 18 -15t19 -18q25 -44 63 -82q2 -2 10 -13.5t15 -15.5q4 -2 12 -14t11 -14q4 -3 8.5 -11t9 -13.5t8.5 -4.5t18 20l13 19q4 4 11 18.5t11 18.5q60 69 66 78q20 35 33 45q8 6 15.5 14.5t15.5 19.5t14 17q19 22 52.5 62.5t53.5 62.5q6 6 14 15.5t16.5 24.5 t8 24.5t-11.5 15.5q-16 5 -37.5 5.5t-49 -1.5t-38.5 -2q-6 0 -24 2.5t-27 1.5q-23 -4 -72 -4q-23 3 -30.5 11.5t-6.5 31.5q0 8 -1.5 19t-1.5 19t3 17q1 5 1 14.5t1 15.5t6 11l19 12q3 7 26.5 6t32.5 -4q9 0 13 -4q7 -2 26 2q12 2 38 -1t38 -1q5 1 19.5 5.5t23.5 4.5 q7 0 65 5q11 2 30 -2t28 -3q5 1 16.5 2.5t21 3t15.5 1.5q28 2 75 -3.5t75 -3.5q11 0 39.5 3t44.5 2l24 -3t22.5 -2h22.5q10 1 20 -1.5t15 -5t16.5 -9.5t16.5 -10q32 -17 12 -62q-2 -9 -9.5 -24.5t-12.5 -18.5q-10 -3 -29 -6t-25 -4q-7 -2 -19 -2t-18 -2q-19 -8 -64 -5.5 t-61 -6.5q-5 -4 -10 -8.5t-10.5 -11.5t-9.5 -11q-2 -2 -13 -15.5t-14 -15.5l-16 -16q-15 -15 -15 -21q0 -4 -9 -12.5t-11 -11.5q-2 -5 -7.5 -12t-13 -14.5l-10.5 -10.5q-93 -112 -106 -131q-34 -42 -37 -57q-9 -9 -28 -26.5t-29 -27.5q-29 -29 -29 -45q2 -5 -6 -11.5 t-18.5 -12.5t-12.5 -8q0 -1 -6.5 -9.5t-11.5 -16t-10 -16.5t-5 -14t-9 -14t-11 -12q-1 -1 -2.5 -8t-3.5 -9q-4 -3 -9.5 -11t-9.5 -11q-2 -3 -9.5 -18.5t-14.5 -28t-11 -11.5q-10 0 -10 -264q-5 -67 -4 -80v-33t4 -40q5 -14 20 -16.5t19 -6.5q3 -2 31 -2q20 0 39 -8 q10 -5 23.5 -5.5t30 1t26.5 0.5q2 0 15.5 -2.5t14.5 -3.5q2 -5 23 -13t24 -18q6 -11 4 -34t-8 -34q-13 -20 -53 -30q-22 -4 -98 -13q-9 -2 -32 -3.5t-36 -4.5q-8 -2 -25 -2t-22 4q-1 6 -20.5 1t-20.5 -5q-39 0 -47 4q-1 4 -27.5 0t-29.5 -4h-111q-47 -2 -94 4q-14 2 -49 2.5 t-52 3.5q-18 3 -24 12.5t-6 34.5q0 16 5.5 37.5t12.5 30.5q3 3 10.5 13.5t16.5 18t22 11.5q28 9 72 6q51 -4 76 0q16 1 18 26t-2 40q-2 20 -2 45.5t1 57t1 46.5q0 37 4 55q1 8 0 21.5t0 21.5q0 2 3.5 17t5.5 27t0.5 24.5t-7.5 15.5q-12 41 -12 43q0 3 -8.5 14t-11.5 11 q-2 1 -6.5 8t-10 16t-6.5 11q-4 5 -15.5 14t-15.5 14q-9 13 -12 23q-4 8 -6 11.5t-9 7.5t-10 6q-22 15 -34 41q-2 7 -11 27.5t-12 21.5q-7 2 -22 17t-15 22q-1 7 -8 15t-17.5 16t-13.5 12q-4 6 -27.5 38.5t-35.5 43.5q-4 3 -8 13t-9 13l-8 7q-9 7 -15.5 13.5t-6.5 10.5 q0 6 -7 11.5t-16 9.5t-10 5q-11 10 -30 31t-25 27q-8 8 -19.5 27t-15.5 24q-8 9 -31 28t-29 25q-8 10 -24 21.5t-23 11.5q-8 1 -49.5 -1t-48.5 7q-9 4 -35.5 4.5t-36.5 10.5q-12 14 -12 53q3 29 21 56t40 28q8 0 29 -1t38.5 -1t31.5 2q9 1 32 -3t27 1q10 4 29 4.5t26 -6.5 q11 -6 28 -5.5t46 4t33 3.5q10 0 30.5 2t30.5 2q6 -1 21.5 -4.5t23.5 -3.5q15 1 41 0t39 0q26 2 64.5 -0.5t64.5 0.5q5 0 35 3t47 3q18 -1 30.5 0t26.5 -1t27 -7z" />
<glyph unicode="Z" horiz-adv-x="1488" d="M444 182q8 -7 16.5 -10t20 -3t19 1t22.5 4t21 4q4 1 24.5 -1.5t35 -4t18.5 1.5q4 5 31 5.5t34 -1.5q10 -1 32 1t34 1q13 0 43 -2.5t47 -1.5q13 0 42 2.5t46 1.5q23 -3 56 -3t72.5 1.5t55.5 1.5l10 13q7 27 2 88q0 8 1.5 35t0.5 42q-9 63 -2 70q3 7 2.5 16.5t-2.5 25 t-2 19.5v60q1 8 4 14t6.5 10.5t10 7.5t11 5t13.5 3t13 1.5t14 1t12 0.5q3 0 27.5 1.5t43 1.5t19.5 -3q0 -2 15.5 -2t34 -2t22.5 -6q10 -11 16 -27q22 -49 3 -149q0 -7 -1 -19.5t-1 -23.5t2 -21q11 -64 4 -82q-6 -13 -6 -28.5t2.5 -34t1.5 -29.5q0 -81 -9 -109 q-8 -26 -25 -40.5t-41.5 -18t-46.5 -3.5t-52.5 2t-47.5 1q-5 0 -170 6h-88q-2 0 -26.5 -1.5t-41.5 -1t-20 4.5q-4 2 -12 1.5t-19.5 -2t-13.5 -1.5q-14 -1 -39 -1t-39 -1h-53q-61 -4 -90 2q-10 2 -30.5 -1t-26.5 -3q-27 -2 -82 -2q-10 0 -30 3.5t-26 4.5q-10 0 -25 -3t-20 -3 q-18 1 -45 -2t-43 4q-4 1 -58 6.5t-71 22.5q-6 6 -7.5 13t-0.5 16t0 14v49q-5 74 12 96q29 33 41 55q5 7 19.5 21t21.5 14q6 -2 12.5 5.5t12 18t8.5 13.5q2 2 11 9t15 11.5t12.5 11.5t8.5 13q6 17 29 43q34 39 41 45q2 3 8 7.5t10 9.5q7 10 23.5 27.5t23.5 27.5q21 31 31 33 q8 1 18 17t19 20q12 5 22.5 16t21 24.5t15.5 18.5q18 20 53 55.5t62.5 65.5t50.5 57q18 20 46 49t38 39q5 5 13.5 14t15.5 16.5t12 16.5q34 50 45 58q8 5 17.5 13.5t20.5 19t16 14.5q5 5 15 16.5t15 16.5q38 47 45 47q10 0 28.5 25t8.5 32q-14 7 -42.5 14.5t-29.5 -0.5 q-1 -2 -26 1t-51.5 6.5t-28.5 3.5q-35 4 -47 0q-3 -1 -20 0t-29.5 1.5t-16.5 -1.5q2 5 -87 -4l-7 -1q-8 1 -25 -1t-26 -1q-57 3 -98 -2q-2 0 -31.5 0.5t-45 -4t-16.5 -18.5q-2 -12 -1.5 -42t-2.5 -42q-3 -5 -0.5 -29t2.5 -31q-4 -16 -4 -30q-1 -5 1 -29t1.5 -44t-6.5 -23 q0 -1 -4 -10.5t-4 -10.5q-2 -10 -24 -16t-23 -11q-1 -4 -68 -4q-50 -4 -77 0q-14 2 -22 12t-10 22.5t-3 27.5v6q1 59 -5.5 169t-5.5 169q0 22 1.5 35.5t6 29.5t15 26.5t27.5 16.5q27 11 102 11q29 -1 89 -1t89 -1q14 -1 44 -4.5t44.5 -4t42.5 3.5q10 2 34 1.5t36 1.5 q4 0 18 -3.5t21 -1.5t26 5l19 2q10 0 31 1t30 1q24 -4 72 0q5 0 21 -3.5t29.5 -3.5t19.5 7q2 1 11.5 0t21 -2.5t14.5 -1.5q4 0 25 -4.5t32 -2.5q15 4 21 2q36 -10 53 -9.5t52.5 7t53.5 7.5q109 0 123 -62q3 -12 2.5 -35t1.5 -37q5 -43 4 -49q-1 -3 -2.5 -13.5t-4.5 -15.5 t-9 -10q-13 -9 -30.5 -31.5t-24.5 -29.5q-17 -16 -45 -47t-43 -45q-18 -17 -56 -61.5t-61 -65.5q-45 -36 -43 -49q1 -6 -18 -24t-19 -26q-1 -4 -6.5 -9.5t-13 -11t-9.5 -7.5q-4 -2 -10 -8.5t-13 -15.5t-11 -13q-14 -14 -42 -44t-40 -42q-6 -6 -16 -18t-18.5 -20.5 t-17.5 -12.5q-24 -12 -53.5 -40t-44.5 -52q-13 -19 -31 -39.5t-42 -44.5t-35 -37q-1 -2 -5 -11t-8 -16t-8 -8q-10 -2 -24 -23t-15 -22q-52 -49 -74 -84q-3 -4 -13 -16t-14.5 -18t-9.5 -15.5t-6 -18.5z" />
<glyph unicode="[" horiz-adv-x="626" d="M197 -143q-53 -5 -68 10q-25 22 -20 82q0 19 3 68t3 59q0 3 -2 35.5t-3.5 63t-0.5 34.5q1 9 1 107t-1 106q-3 27 -3 56.5t1.5 65t1.5 56.5q0 26 -2.5 97.5t-2.5 99.5q0 6 5.5 41t-0.5 41q-3 9 -3.5 20.5t0 19t2 22.5t1.5 20q0 15 1.5 65.5t0.5 77.5v158q0 1 0.5 42 t-0.5 42q0 5 -2 19.5t-2.5 22.5t2 19t8.5 18q8 9 41 9q20 1 90 -0.5t88 2.5q7 1 25 0t22 0q9 2 31.5 0.5t31.5 -0.5q38 6 52 -2q3 -1 8.5 -8.5t7.5 -8.5q10 -8 8.5 -40t-6.5 -44q-2 -4 -1.5 -16.5t-2.5 -13.5q-1 -1 -3.5 -3l-5 -4t-3.5 -4q-16 -8 -99 -8q-27 2 -51.5 -7 t-21.5 -34q6 -115 6 -119q2 -27 -0.5 -79t-1.5 -76q0 -11 1.5 -42t2 -47.5t0 -41.5t-3.5 -45q-2 -15 0 -45t0 -43q-2 -29 -2 -111v-174q1 -28 0 -159t0 -159v-34t4.5 -56.5t15.5 -23.5q9 -1 30 2.5t28 3.5q8 1 38.5 -0.5t38.5 2.5q16 2 24 0t11 -15t3 -23t-0.5 -24.5 t-0.5 -19.5q1 -13 -1 -23t-8 -16.5t-11.5 -11.5t-16 -7t-17.5 -3.5t-20.5 -1t-20.5 0.5t-22 1.5t-20 1.5q-11 1 -37 -1.5t-39 -0.5q-25 4 -112 4z" />
<glyph unicode="\" horiz-adv-x="1024" d="M1114 4q-4 -13 -27 -20t-36 -4q-22 7 -47 2q-39 -9 -54 -7q-18 3 -28 11q-1 1 -7 10q-1 1 -7.5 9t-8.5 13q-10 15 -31.5 44t-23.5 32q-11 16 -32 50t-32 51q-2 3 -17.5 34t-29.5 47q-20 24 -52.5 75.5t-39.5 62.5q-26 39 -35 51q-3 5 -12 18t-12 21q-4 4 -8 9.5t-8 13.5 t-7 12q-14 21 -29 39q-12 15 -29 47t-28 47q-11 14 -31.5 45t-31.5 45q-48 74 -62 92q-5 7 -24 33.5t-27 42.5q-18 31 -56.5 82.5t-52.5 72.5q-20 31 -61.5 86t-58.5 80q-5 7 -24.5 35.5t-29 40.5t-27 31t-34.5 31q-5 4 -15.5 11t-16 11.5t-10 11t-1 14t15.5 15.5 q18 12 49 2q8 -2 25.5 2t22.5 4q55 5 57 6q13 1 17.5 0t14.5 -5t15 -5q5 -9 17.5 -24.5t17.5 -24.5q3 -5 7.5 -12t10 -15t8.5 -12q6 -9 23 -30.5t25 -34.5q7 -13 16.5 -27t21 -30t17.5 -25q3 -5 42.5 -66.5t61.5 -91.5q21 -29 61.5 -95t63.5 -98q102 -148 123 -176 q14 -20 39.5 -53.5t46.5 -62t37 -54.5q3 -4 23.5 -34.5t31.5 -47.5q5 -8 16.5 -24.5t16.5 -24.5q4 -5 13.5 -20.5t15.5 -22.5q15 -16 35 -49.5t28 -44.5q10 -15 31 -43.5t31 -42.5q12 -17 35 -49.5t34 -48.5q3 -4 12 -14t14 -17t9 -17.5t2 -19.5z" />
<glyph unicode="]" horiz-adv-x="626" d="M430 -150q-88 0 -113 -4q-13 -2 -38.5 0.5t-36.5 1.5q-4 0 -20 -1.5t-22 -1.5t-20.5 -0.5t-21 1t-17.5 4t-16.5 7.5t-11.5 11.5t-8 16.5t-1 23q0 5 -0.5 19.5t-0.5 24.5t3 23t11 15t24 0q8 -4 39 -2.5t39 0.5q7 0 27.5 -3.5t29.5 -2.5q11 0 15.5 23.5t5 56.5t0.5 34 q1 28 0 105.5t0 105.5v180q0 76 -2 105q-2 13 0 60.5t0 62.5q-6 43 0 217q1 23 -1.5 88.5t-0.5 93.5q2 24 4 75t2 54q2 17 -11.5 27t-30 12.5t-32.5 1.5q-89 0 -94 14q-1 2 -3.5 4l-5 4t-3.5 3q-3 3 -5 12t-3 12q-5 12 -6.5 44t8.5 40q2 1 7.5 8.5t8.5 8.5q14 8 51 2 q9 -1 32 0.5t32 -0.5q4 -1 22 0t25 0q18 -4 88 -2.5t90 0.5q33 0 41 -9q6 -7 8.5 -18t2 -19t-2.5 -22.5t-2 -19.5q-2 -1 -1 -42t1 -42v-168q-1 -27 0.5 -92t1.5 -78q0 -5 1.5 -20t2 -22.5t0 -19t-3.5 -20.5q-6 0 -1 -62l5 -61q0 -28 -2 -113.5t-2 -111.5q0 -20 1.5 -58 t1.5 -69t-3 -58q-2 -7 -2 -52t2 -54q1 -4 -0.5 -34.5t-3.5 -63t-2 -35.5q0 -10 3 -59t3 -68q5 -60 -20 -82q-16 -16 -68 -11z" />
<glyph unicode="^" horiz-adv-x="1024" d="M860 950q1 -1 2.5 -1.5t2.5 -1.5t1 -3q-7 -20 -16 -26q-4 -3 -27 -7q-5 -1 -17 0t-18 0q-25 0 -32 -4q-4 -1 -11 -1t-15 0.5t-11 0.5q-10 -2 -33 -2q-4 0 -11 -0.5t-12.5 -0.5t-9.5 1q-3 0 -6 1t-5.5 4t-3.5 4.5t-3.5 6t-3.5 5.5v14q-1 2 -3 7t-3 7q-2 5 -6.5 15.5 t-6.5 15.5q-10 38 -26 70q-8 19 -25 69q-3 9 -9.5 35.5t-12.5 40.5q-3 16 -13 29q-3 10 -10 -2q0 -1 -0.5 -2t-1.5 -2q-5 -9 -14.5 -31t-14.5 -31q-31 -83 -63 -139q-3 -4 -12.5 -25t-16.5 -30q-2 -5 -6 -15.5t-6 -15.5q-5 -23 -21 -23q-9 -1 -26 9q-2 4 -12.5 0t-12.5 -4 q-5 0 -12.5 -5t-9.5 -6q-5 0 -10 4t-9 4q-5 1 -31 -0.5t-30 3.5q-12 4 -21 10q-5 4 -7 10.5t5 11.5q6 3 10.5 9.5t6.5 11.5t5.5 15.5t4.5 12.5q4 8 16.5 32t18.5 38q12 25 48.5 102.5t57.5 118.5q40 82 58 125q11 32 34 53q8 5 31 5q7 -1 20.5 -2.5t20.5 -2.5q23 6 27 5 q15 3 30 -3q4 0 14.5 3t16.5 2q12 0 25 -17q21 -48 24 -57q18 -45 31 -72q10 -21 18 -51q5 -12 23 -53q5 -18 20.5 -50.5t20.5 -46.5q8 -15 47 -96q4 -8 12.5 -24.5t12.5 -24.5q11 -14 16 -25q2 -1 3 -4t3 -4z" />
<glyph unicode="_" horiz-adv-x="1024" d="M754 -195q-23 -2 -65.5 5t-61.5 6q-54 -4 -78 -4q-6 0 -20 -1t-19 -1q-22 -2 -49.5 -1.5t-54.5 -1.5q-13 -1 -37 4t-37 5q-4 0 -11.5 -1t-11.5 -1q-1 0 -14 -1t-14 1q-10 0 -38 -1t-38 -1q-19 0 -56 -1t-55 -1q-6 0 -24 2.5t-27 1.5q-23 -4 -72 -4q-23 3 -30.5 11.5 t-6.5 31.5q0 8 -1.5 21.5t-1.5 24t3 19.5q1 4 1 12.5t0.5 13.5t2.5 11.5t5 9.5l18 12q8 6 26.5 2.5t32.5 -8.5q9 0 13 -4q7 -2 26 2q13 2 38.5 0t37.5 0q5 1 19.5 6t23.5 5q20 0 66 4q11 2 29.5 -1.5t27.5 -2.5q48 6 53 6h52q20 0 32 -4q27 -6 88 -2q6 0 14 1t9 1 q10 0 30.5 2t30.5 2q7 -1 22 -5t23 -4q15 1 41 -4t39 -4q25 2 85 -0.5t85 0.5q5 0 35 3t47 3q9 -1 23 -1t21.5 -0.5t18.5 -2.5t21 -6q10 -23 6 -63q-1 -9 0.5 -40t-4.5 -40q-4 -10 -13.5 -12.5t-24.5 -0.5t-21 1q-15 0 -45 -4.5t-47 -4.5q-4 0 -83 4.5t-85 -0.5z" />
<glyph unicode="`" horiz-adv-x="1024" d="M289 1360q-3 13 4 29q12 19 45 34q28 14 70 7q2 -1 8.5 -7t11.5 -8q4 -3 13.5 -10t13.5 -10q12 -10 33 -32.5t26 -27.5q2 -2 9.5 -10t11.5 -13.5t7.5 -13.5t2.5 -14q-1 -2 16 -27q6 -3 6 -10q2 -2 6.5 -6t6.5 -6q2 -3 18.5 -18.5t22.5 -26.5q6 -13 20 -23q6 -6 2 -20 l-6 -12q0 -11 -4 -13q-2 -3 -6 -3.5t-10 0.5t-7 1q-52 -10 -102 23q-2 3 -11 9t-10 7q-5 5 -15.5 11t-12.5 8q-9 6 -26.5 19.5t-26.5 19.5q-6 4 -19.5 10t-19.5 10q-67 29 -78 84q-1 5 -1 12t0.5 15t0.5 12z" />
<glyph unicode="a" horiz-adv-x="1181" d="M1147 328q20 -14 29 -88.5t-2 -83.5q-4 -5 -10 -42.5t-15 -39.5q-5 -1 -8 -10.5t-4 -10.5q-4 -4 -10.5 -12t-12.5 -13.5t-12 -9.5q-21 -16 -39 -24q-3 -1 -16 -8t-17.5 -8.5t-18.5 -7t-18.5 -4t-17.5 0.5q-7 0 -52.5 -0.5t-52.5 4.5q-8 1 -28 7t-29 6q-9 1 -27 11.5 t-24 12.5q-11 5 -37 31q-6 7 -12 16.5t-13 23t-12 21.5q-2 3 -9.5 26t-8.5 24t-2 4t-2 5t-2 4.5t-2.5 4t-3.5 2t-4.5 -1t-4.5 -4.5q-8 -8 -12 -14q-4 -3 -13.5 -16t-9.5 -15q1 -5 -12.5 -21t-21.5 -22q-5 -4 -16.5 -15.5t-22 -19.5t-19.5 -10q-62 -31 -110 -49 q-10 -5 -60 -5q-57 5 -71 9q-1 0 -23 5t-27 9q-4 4 -19 8l-15 4q-34 23 -35 23q-27 8 -37 24q-1 1 -2.5 7t-3.5 10.5t-4 5.5q-16 3 -21 47.5t-2 65.5q1 14 4 40t4 39q2 13 13 41q1 1 12.5 23t17.5 27q3 2 13.5 8.5t13.5 9.5l29 20l16 11q1 0 10 6t19.5 12.5t13.5 7.5 q56 22 78 27q20 5 59 8.5t56 7.5q13 3 114 45q18 7 27 17q1 0 12 10t17 12q6 3 12 16.5t12 18.5q29 28 30 83t-22 89q-8 12 -16 21t-20.5 15.5t-18 8.5t-25.5 8t-24 7q-5 3 -11.5 4t-15.5 1t-14 1q-41 10 -86 4q-11 0 -35 -4q-6 -1 -26.5 -13.5t-26.5 -11.5q-10 2 -23 -16 t-4 -25q4 -4 21.5 -4.5t19.5 -3.5q1 -2 8.5 -4.5t16.5 -4.5t10 -3q31 -13 42.5 -43.5t2.5 -67.5q-21 -72 -92.5 -100t-134.5 6q-2 2 -11 8t-10 6q-4 2 -7 4.5t-6.5 7t-6.5 7.5q-7 6 -15.5 25.5t-11.5 23.5q-12 10 -12 55q1 19 20 82q2 6 4 23t6 29t13 20q1 1 8.5 12.5t15 21 t11.5 9.5q4 9 14 19.5t25 23.5t20 18q7 7 32.5 16t28.5 11q2 0 13.5 2t20.5 4.5t12 5.5q7 9 37 9.5t40 4.5q12 5 54 0q3 0 15.5 -2.5t21.5 -4t14 0.5q10 4 19 3.5t25 -3t21 -2.5q33 3 76 -10q30 -9 61.5 -27.5t49.5 -36.5q9 -9 22.5 -19t21 -19t11.5 -25q2 -6 11 -25t12 -20 q5 -4 8.5 -27.5t7.5 -29.5q10 -14 10 -60q0 -5 1.5 -23t1.5 -26t-0.5 -22.5t-2.5 -25.5t-6 -22q-9 -37 -2 -57q4 -16 5.5 -35t0.5 -35.5t0 -37.5q1 -19 -3 -56t-3 -55q1 -13 -0.5 -37t-1 -43.5t5.5 -34.5q5 -20 9 -30.5t13 -22t23 -14.5q35 -9 47 -4q2 1 11 4.5t16 7t10 6.5 q10 10 16 45q0 82 -2 98q-3 53 43 56q3 0 18.5 2.5t25 2.5t18.5 -3zM655 500q-16 -3 -42.5 -33.5t-37.5 -36.5q-7 -4 -22.5 -12t-22.5 -12q-6 -2 -29.5 -13t-33.5 -12q-9 0 -38 -12.5t-32 -18.5q-1 -3 -6.5 -8t-12 -10t-7.5 -6q-2 -2 -11.5 -12.5t-13.5 -15.5t-10 -14.5 t-8 -17.5q-2 -9 -2 -19.5t1 -23.5t1 -20q-3 -14 -1.5 -27.5t13.5 -21.5q4 -3 12.5 -15.5t12.5 -15.5q26 -19 57 -12q81 19 102 28q17 7 51 41q24 24 29 41q4 11 22 39.5t23 44.5q4 20 4 31q1 13 9 38t8 38q0 3 1 15t1 22.5t-1 22t-5 19.5t-11 9z" />
<glyph unicode="b" horiz-adv-x="1363" d="M494 774q9 -4 18 6.5t17.5 27t11.5 19.5q6 6 29.5 36.5t39.5 39.5q2 2 10.5 10t15.5 13t11 4q3 0 24 13t23 15q2 10 49 19q12 4 26.5 6t23.5 2.5t29.5 0t27.5 -0.5q6 1 16.5 2t16.5 1.5t14.5 0t17.5 -3.5q7 -2 21.5 -5t21.5 -5q26 -6 43 -17q79 -41 93 -55 q1 -1 11.5 -9.5t20 -17t18 -18.5t7.5 -16q-1 -1 12 -20t17 -23q1 -1 4 -5t6 -9t4 -9l14 -28q3 -8 8 -22t7 -21q2 -9 13 -27t13 -23q1 -4 3 -24t5 -37.5t7 -20.5q3 -1 4 -9t1 -17t1 -10q4 -56 0 -82q-26 -183 -43 -179q1 0 -12.5 -26t-28 -54t-15.5 -30q-9 -17 -24 -36 t-23 -27.5t-34 -32.5t-29 -27q-5 -6 -13 -11t-21.5 -11t-22.5 -11q-8 -5 -31.5 -12t-32.5 -12q-1 0 -12.5 -6t-18.5 -7q-11 -2 -33.5 -7t-33.5 -7q-12 -3 -58 2q-39 3 -79 16q-3 1 -52 9q-8 0 -17.5 9t-14.5 11q-27 11 -43 8q-6 0 -11.5 7t-7.5 8q-10 5 -18 12t-18 18.5 t-15 16.5q-7 11 -35 38t-33 19q-4 -4 -17.5 -18t-24 -26.5t-17.5 -25.5q-4 -5 -11 -18t-12 -20q-7 -8 -25 -18t-35.5 -9.5t-18.5 20.5q0 6 -7 14.5t-6 12.5q0 3 -8 35q-2 12 -1 29.5t-1 31.5q-6 34 -6 146q0 50 8 73q1 12 0.5 18.5t-3 21.5t-3.5 20q0 12 1 25t2.5 28.5 t2.5 24.5q0 8 -3 32t-1 35q8 15 3.5 85t-3.5 85q2 43 2 125q4 29 23 31q10 0 15 5t1.5 10t-16.5 5q-12 1 -19 9.5t-9 23t-2 28.5t0.5 30.5t0.5 23.5q0 21 -2.5 88.5t-1.5 99.5q0 2 0.5 15t0.5 20t-3.5 16.5t-10.5 12.5q-8 4 -17.5 4t-21 -2t-16.5 -2q-40 -6 -84 -6 q-11 0 -22 7t-15 17q-6 13 -7 28.5t0.5 33t0.5 24.5q-3 23 12 38.5t35 17.5q9 1 19.5 1t22.5 -0.5t18 -0.5q10 -1 46 0.5t44 -2.5q3 -1 16.5 1.5t23.5 4t15 -3.5q1 -3 16 -4.5t19 0.5q8 1 24 -1t23 -1q19 3 37 0q37 -7 39 -7q6 1 13 -10t9 -12q8 -4 9 -35t-1.5 -68t-1.5 -43 q3 -33 2 -110t3 -107q2 -13 -2 -63q-3 -6 -0.5 -37t2.5 -37q0 -9 -6 -40.5t-6 -55.5t12 -33zM745 834q-98 -17 -147 -66q-77 -74 -94 -141q-7 -25 -10 -50.5t-3 -56t1 -49t4 -57.5l4 -52q7 -84 41 -129q105 -144 237 -133q86 8 154 76q19 22 37 51q11 11 14 17t5.5 18.5 t6.5 20.5q1 4 4.5 21t7 30.5t7.5 15.5q4 1 4 68q5 36 2 80q0 4 -3 33t-3 44q0 2 -2.5 17t-5 27.5t-5.5 13.5q-2 2 -3.5 7t-2.5 11t-2 8l-14 35q-1 1 -29 56q-5 10 -20 23t-25 13q-6 1 -19.5 14.5t-23.5 14.5q-11 2 -33.5 11t-35.5 10q-34 0 -48 -2zM592 68q1 -7 8 -9.5 t14 1.5t7 12q-1 9 -15 8.5t-14 -12.5z" />
<glyph unicode="c" horiz-adv-x="1101" d="M805 782q-2 18 -18 30t-30.5 16t-39.5 8t-27 4q-46 11 -102 2t-96 -31q-9 -6 -22.5 -17t-18.5 -14q-4 -4 -19.5 -17t-27 -25t-15.5 -23q-6 -19 -13.5 -56.5t-13.5 -56.5q-22 -57 -22 -137q8 -72 10 -113q2 -13 10.5 -35t10.5 -30q2 -12 11.5 -36t14.5 -24q3 0 14 -17 t13 -22q0 -9 16.5 -21.5t18.5 -16.5q2 -2 7.5 -5t11.5 -5t12 -4.5t9.5 -4.5t2.5 -4q0 -1 39.5 -7.5t48.5 -6.5q30 0 80 12q2 1 10 1.5t14.5 1t7.5 1.5q3 4 23.5 12t22.5 11q25 14 38 30q22 19 37 47q4 7 15 24t18 33t8 33q0 48 29 54q2 0 15 -1.5t21 -2t11 1.5l53 4 q23 -4 17 -60q0 -1 -2 -19t-6 -32.5t-9 -13.5q-3 0 -6.5 -13.5t-7.5 -27.5t-6 -16q-9 -9 -31.5 -40.5t-32.5 -39.5q-3 -3 -13 -17t-13 -18q-1 -1 -11 -6t-18.5 -11.5t-9.5 -11.5q-2 -2 -19 -13t-20 -11q-49 -25 -111 -41q-23 -3 -57 -13q-8 -5 -51 -3t-54 1q-27 -4 -38 -2 q-10 2 -32.5 10.5t-25.5 12.5t-19.5 7t-21.5 5q-36 12 -53 12q-6 -1 -16.5 5t-25 16.5t-15.5 11.5q-8 3 -56 41q-7 6 -16 19t-15 24t-15.5 29t-12.5 24q-41 59 -51 92q-2 10 -9.5 26t-9.5 26q0 20 -5 62.5t-5 64.5q0 129 31 194q25 64 43 96q4 7 10 23t14 27q6 9 24.5 25 t25.5 24q3 7 16 15.5t16 12.5q11 17 29 31q39 31 70 43q62 24 157 45q73 16 207 -10q69 -13 98 -35q2 -2 20 -12t19 -10q3 0 11 -6t17 -14t11 -9q33 -30 52 -66q1 -1 9 -13t9.5 -15t7.5 -13t8 -16t4 -14.5t2 -16.5q8 -77 3 -108q-1 -3 -12.5 -23.5t-10.5 -23.5 q1 -5 -10 -14.5t-17 -12.5q-5 -3 -15.5 -10t-20 -12.5t-17.5 -8.5q-2 0 -21 -8t-28 -8q-45 -3 -88.5 30t-52.5 76q-1 6 -3.5 15t-3.5 14t-2 12t0 14t3 15q1 5 8.5 22t7.5 23q3 18 41.5 31.5t42.5 17.5z" />
<glyph unicode="d" horiz-adv-x="1349" d="M1094 164q11 -7 42.5 -7.5t43.5 3.5q7 2 28 -0.5t27 0.5q11 5 31.5 -3.5t19.5 -19.5q-1 -2 1 -6t5 -9t4 -7q0 -7 2 -21.5t2 -21.5q0 -32 -8 -56q-5 -14 -41 -24q-17 -3 -58 -2t-63 -2q-8 -1 -24.5 -4.5t-24 -3.5t-24.5 4q-3 2 -6.5 9t-6.5 9q-5 5 -38 -2q-45 -15 -107 -4 q-23 3 -43 10q-4 9 -5 22t-0.5 29.5t-0.5 24.5q0 3 -1 14q-2 62 -14 62q-6 1 -16 -17q-1 -2 -9.5 -16.5t-8.5 -20.5q-1 -6 -16 -19.5t-15 -14.5q-5 -5 -13.5 -16t-11.5 -15q-4 -4 -23 -13t-26 -14q-28 -19 -73.5 -30t-85.5 -11q-35 0 -94 16t-64 17q-9 2 -30.5 17t-31.5 18 q-45 19 -57 31q-10 13 -33.5 34.5t-39.5 41t-21 42.5q-4 18 -24 55.5t-21 61.5q-1 12 -12 47.5t-9 55.5q2 12 -1 33t-1 32q1 10 -2.5 28.5t-3.5 24.5q-3 32 10 64q1 2 1.5 17.5t2 29t5.5 12.5q2 0 9.5 21t14.5 43.5t8 23.5q1 9 18.5 30.5t18.5 31.5q0 9 6 20t11.5 17 t17.5 17t14 13q45 45 56 43q1 0 18.5 10.5t18.5 10.5q3 4 16.5 9.5t19.5 10.5q51 34 99 39q13 1 46.5 5.5t46.5 5t48 -2.5q7 -2 31 -11t28 -9q3 1 8.5 -1.5t12 -6t8.5 -4.5q3 -1 13 -7.5t18.5 -12t11.5 -5.5q2 0 17.5 -15t15.5 -16q26 -23 39 -43q2 -3 11 -14t11 -18 q5 -13 12.5 -14.5t12.5 11.5q8 39 8 87q1 16 -0.5 56t-1.5 50q0 9 2.5 71.5t-0.5 71.5q0 1 1 41.5t-5 64t-23 27.5q-21 5 -63 6t-61 5q-27 5 -38 36.5t11 51.5q10 8 47 22q10 5 39.5 5t38.5 1t20.5 -0.5t16.5 -1.5q52 0 55 5q4 6 37 6t47 -4q4 -1 42.5 0.5t41.5 -2.5 q10 -4 10.5 -19t5.5 -22q5 -8 6 -26t0 -40t0 -29q0 -5 -2.5 -19t-1.5 -18q0 -5 6 -47q3 -97 0 -190q-5 -66 0 -266q1 -22 -3.5 -69.5t-2.5 -72.5q2 -24 1 -74.5t1 -74.5q3 -21 2 -64.5t2 -64.5q5 -68 5 -82q-5 -65 2 -88zM446 164q15 0 54 -31q25 -14 90 -14q47 0 65 12 q6 4 23.5 11.5t23.5 11.5q13 5 31 22t23 21q7 5 13 12.5t14.5 22.5t9.5 16t4.5 8t7 12.5t6.5 5.5q4 1 7 20t7 21q3 2 8.5 19.5t8.5 21.5q10 13 4 68q0 10 5.5 43t2.5 49q-2 5 -2 19.5t-2 21.5q-8 21 -8 49q-6 69 -23 94q-3 4 -13.5 23.5t-19.5 28.5q-41 41 -61 53 q-3 3 -14.5 11.5t-22 15.5t-10.5 6q1 2 -24 6t-54.5 7.5t-32.5 4.5q-13 0 -41.5 -7t-31.5 -15q-56 -25 -58 -25q-10 -1 -28.5 -25.5t-22.5 -35.5q-1 -3 -6.5 -8.5t-5.5 -12.5q-1 -4 -9 -21.5t-10 -23.5q-3 -12 -15 -32t-15 -29q0 -2 1.5 -20t1.5 -32t-3 -16q-6 -2 -9 -30.5 t-3 -56.5t3 -28q-3 0 18.5 -76t26.5 -88q2 -3 8 -19t13 -22q21 -21 31 -36q3 -4 17 -17.5t17 -15.5z" />
<glyph unicode="e" horiz-adv-x="1148" d="M1055 502q-7 -7 -15 -12t-19.5 -8t-17 -5t-21 -3t-19 -1h-22h-19.5q-12 0 -39 2.5t-49.5 2.5t-38.5 -5q-7 -5 -31 0t-31 4q-1 0 -12 -3.5t-16 -4.5t-11 0q-8 6 -49 6q-14 -2 -49.5 -0.5t-50.5 0.5q-11 -1 -41.5 -4.5t-48.5 -3.5q-65 5 -86 0q-12 -4 -15.5 -22t4.5 -27 q1 -3 1.5 -21t5.5 -20q3 -3 5.5 -24t2.5 -27q0 -2 5.5 -13t4.5 -16q-1 -3 1.5 -10.5t6.5 -16.5t4 -10q3 -7 14.5 -25t12.5 -24q1 -8 10 -17.5t21 -18.5t14 -11q5 -5 24.5 -17t22.5 -16q8 -11 55.5 -14.5t90.5 0t42 8.5q0 1 20 6t40.5 12.5t21.5 12.5q1 2 14 10l13 8 q11 11 31 35q3 3 11.5 14t10.5 13q4 3 10 12t9 10q8 9 15.5 39t10.5 37q1 3 6.5 8t11 9t5.5 3q0 6 49 6t59 -6q18 -9 14.5 -52t-18.5 -56q-6 -7 -11 -17t-10 -25.5t-7 -19.5q-4 -7 -14.5 -21.5t-14.5 -21.5q-1 -1 -7 -11t-5 -13q1 -6 -11.5 -12.5t-13.5 -8.5q-4 -10 -21 -24 t-28 -19l-10 -10q-4 -2 -13 -5.5t-16.5 -7t-11.5 -7.5q-1 -1 -31 -13.5t-60 -24t-30 -8.5q-7 -12 -111 -11.5t-123 5.5q-54 11 -125 45q-6 4 -20.5 14.5t-19.5 12.5q-1 1 -7.5 2t-11.5 2.5t-6 3.5q0 2 -6 7t-14 11t-9 7q-5 2 -9.5 10t-6.5 10q-17 20 -37 37q-31 31 -47 55 q-32 50 -55 125q-4 15 -19 117q-2 5 -2.5 24.5t2.5 20.5q3 2 2.5 11.5t-2 22t-0.5 13.5q10 29 10 80q6 47 29 84l9 24q9 23 16 31q2 3 8.5 9t7.5 8q27 45 27 51q1 2 6.5 6.5t11 8.5t6.5 5q2 2 6 8t7 9q44 44 65 57q2 2 20.5 11t36 18t17.5 10q-1 4 26.5 12t55.5 14.5t33 6.5 q20 1 55 -0.5t47 -1.5q72 5 96 0q13 -2 34 -10.5t32 -10.5q5 -1 15.5 -6.5t14.5 -5.5q8 0 21 -12.5t20 -12.5q37 -6 72 -55q6 -9 29.5 -24t29.5 -27q27 -45 41 -57q22 -20 34 -56t14 -69q0 -3 6 -18t2 -23q-2 -3 0 -11q6 -35 0 -73zM827 612q6 12 6.5 33.5t-10.5 30.5 q-2 1 -3 4.5t-1.5 8l-1 9t-1.5 7.5t-3 2q-3 0 -15.5 19.5t-25.5 42.5t-18 28q-10 11 -24 19t-31.5 15l-22.5 9q-48 26 -135 2q-54 -13 -115 -70q-8 -16 -12 -20l-6 -8q-7 -7 -12.5 -13t-6.5 -6q-7 -1 -12 -23t-8 -24q-7 -4 -7 -57q-1 -21 11.5 -26t29.5 1q50 14 152 6 q15 -1 51.5 -5t53 -4t51.5 5q10 2 38 -2.5t50 -2.5t28 19z" />
<glyph unicode="f" horiz-adv-x="870" d="M762 1300q-36 42 -146 17q-30 -9 -49.5 -26t-27.5 -33.5t-21 -49.5q-14 -40 -10 -86q6 -30 6 -61q-1 -7 -3.5 -29t-2.5 -30.5t2 -28.5q4 -14 26.5 -16.5t56.5 2t38 4.5q6 0 16 1.5t18.5 1.5t16.5 -3q12 -4 15.5 -19t2 -38t-1.5 -27q0 -5 1.5 -17t1.5 -22t-3 -17 q-7 -18 -23 -21t-34 1q-53 12 -70 2q-10 -4 -19.5 -0.5t-20 2.5t-15.5 -12q-13 -27 -6 -70q4 -10 1.5 -40t-1.5 -40q6 -59 6 -180q0 -16 -1 -46.5t-1 -55t2 -46.5q1 -15 -1 -40.5t-1 -38.5q1 -8 -1 -27.5t-0.5 -34.5t11.5 -22q13 -9 38 -9.5t61 4.5t43 5q19 0 29.5 -6.5 t13.5 -19.5t3 -25t-1.5 -30t-1.5 -28q0 -15 -8 -24.5t-21 -13t-28.5 -5t-30.5 -0.5t-27 0h-193q-17 0 -67 -1.5t-78 -0.5q-12 0 -42 -2.5t-46 -1.5q-3 0 -23.5 -0.5t-32.5 3.5t-16 15q-6 4 -2 38t4 38q0 3 -0.5 13t-0.5 17.5t1 16t4.5 14t10.5 7.5q9 2 24 -1t19 -3 q17 1 96 -4q24 0 30.5 10t4.5 37q-1 10 1 29.5t1 31.5q-13 99 -6 154q5 14 0.5 77.5t-4.5 77.5q1 13 1 39t1 39q0 43 -2 45q-4 4 -4.5 16t0.5 29l1 17q0 3 0.5 13.5t0 15t-2.5 11t-7 9.5t-13 4q-23 2 -70.5 -3t-72.5 -3q-15 3 -18.5 26.5t1.5 36.5q1 2 2 11t2.5 16t3.5 8 q1 0 5 8.5t8.5 17t5.5 9.5q2 5 3 17t5.5 17.5t15.5 6.5l23 -4q0 -2 14 -3.5t30 -2.5t19 -2q35 -10 45 8q5 14 5 73q0 13 -3 36.5t-2 39.5q1 6 3.5 23.5t3.5 27.5q0 54 6 58q7 6 17.5 35t10.5 38q-1 6 16 24t27 26q89 93 179 98q18 1 47 6t50.5 8.5t49.5 2.5t51 -9 q6 -2 38.5 -10.5t57 -17.5t23.5 -15q0 -1 13.5 -9.5t28 -19t17.5 -14.5q4 -6 15.5 -14.5t15.5 -14.5q14 -19 29 -65q11 -36 3 -82t-32 -70q-6 -5 -20 -19.5t-20.5 -20t-19 -11.5t-24.5 -6q-61 0 -63 6q-1 1 -17.5 9t-19.5 10q-10 4 -27 19.5t-16 23.5l-5 25q-5 25 -6.5 41.5 t5.5 21.5q12 39 24 41q12 0 22 13.5t3 22.5z" />
<glyph unicode="g" horiz-adv-x="1396" d="M1219 803q1 22 -16 34t-41.5 12.5t-48 -3t-40.5 -10.5q-11 -3 -19.5 -7.5t-18 -12t-13 -10.5t-15.5 -15.5t-14 -14.5q-16 -19 -16 -43q-2 -8 6.5 -25.5t9.5 -21.5q1 -5 9 -23.5t8 -31.5q0 -5 2.5 -31t2 -31.5t-2.5 -33.5q-13 -74 -56 -138q-2 -3 -17.5 -19.5t-16.5 -23.5 q0 -10 -13 -22t-18 -10q-5 1 -16.5 -10t-24 -25t-16.5 -17q-5 -2 -17 -5.5t-16 -4.5q-27 -11 -41 -20q-1 -1 -7.5 -3.5t-11 -4.5t-4.5 -3t-5 -2t-10.5 -2t-6.5 -2q-1 -2 -9 -3.5t-18.5 -2.5t-13.5 -2q-4 0 -22 -4.5t-27 -3.5q-16 1 -78 0t-78 6q-7 2 -42.5 9t-53.5 14 q-6 3 -21 8q-52 10 -57 -2q0 -2 -5 -5t-12.5 -7t-9.5 -5q-7 -3 -13.5 -12t-6.5 -16q-1 -5 -5 -19t-5 -20.5t1.5 -17t10.5 -19.5q19 -25 60.5 -44t66.5 -1q7 4 43 -2q6 0 26.5 2.5t26.5 -0.5q13 -1 37 0t37 0q5 0 22 4t27 4q114 -10 215 -4q42 0 59 -4q13 -4 41 -3.5t39 -4.5 q14 -6 54 -13t57 -20q3 -2 11 -5.5t11 -4.5q3 -2 13 -12t18 -15q8 -4 14 -8t10.5 -9.5t6.5 -9t6 -12t6 -12.5q3 -5 17.5 -17t17.5 -20l10 -18q11 -18 10 -23q13 -21 17 -25q3 -4 5 -15.5t5 -16.5q7 -16 -2.5 -59t-9.5 -48q-1 -9 -14 -33t-19 -30q-59 -59 -68 -66 q-6 -4 -29.5 -13t-29.5 -16q-20 -20 -49 -26q-8 -2 -25 -9.5t-30 -9.5q-17 -3 -52.5 -8t-54.5 -8q-24 -4 -29 -3t-26 9q-11 4 -37 0q-7 -1 -40 2t-40 -4q-3 -1 -19 -6.5t-26 -5.5q-1 1 -5.5 0t-10.5 -2.5t-9 -1.5q-8 1 -22.5 1t-26 1t-20.5 4q-94 0 -94 10q0 3 -44.5 7.5 t-54.5 4.5q-50 8 -141 43q-17 5 -45 25q-1 1 -5 3.5t-6.5 5t-2.5 5.5q-1 5 -2.5 6t-3 -0.5t-3.5 0.5l-20 15q-33 24 -41 53.5t-6 81.5q0 9 7 23t11 18q3 3 9.5 8t9.5 8q6 7 17.5 14.5t14.5 10.5q4 3 10.5 5t11 3t8.5 5.5t5 12.5q0 9 -18 33q-4 3 -10.5 15.5t-12.5 17.5 q-40 40 -47 63q-5 10 -8.5 22t-4.5 19.5t-2.5 22t-2.5 20.5q-14 56 24 127l6.5 13t7.5 13.5t7 10t8 8.5q4 4 11.5 14.5t11.5 14.5l8 3q8 3 10 9l12 11q29 21 35 28q6 5 -2 19.5t-21.5 31t-15.5 19.5q-2 4 -29 49t-34 74q-1 6 -8.5 27t-8.5 32q-1 10 2.5 29t3.5 27 q1 7 -0.5 28.5t2.5 28.5q2 12 23.5 46t19.5 50q-2 10 39 51q14 16 48.5 43t37.5 29q2 1 8 3.5t10.5 4.5t8.5 6q6 5 45 14t74.5 16t34.5 9q0 1 25 4.5t51 6.5t30 2q24 0 64 -9.5t57 -11.5q6 -1 24.5 -3t24.5 -3q8 0 16 -3.5t11 -4.5q36 -9 67 -25q2 -2 12.5 -11.5t18.5 -15.5 t12 -6q3 1 11 -3.5t12 -4.5q12 -2 20 2t18 15t13 14q25 25 31 25l20 6q6 8 29.5 11.5t26.5 4.5q27 8 40 6q25 0 37 -2q18 0 33 6q8 4 21 1.5t18.5 -4.5t17 -7.5t15.5 -7.5t12 -5.5t12.5 -6t10.5 -6.5t10 -9q2 -2 19 -14.5t29.5 -24.5t10.5 -16q-1 -4 14 -25.5t17 -27.5 q1 -4 4 -13.5t4 -13.5q1 -6 -1.5 -20.5t-0.5 -20.5q0 -41 2 -61q2 -3 -0.5 -10.5t-5.5 -8.5q-7 -2 -16 -24.5t-13 -26.5q-3 -3 -10 -10.5t-10.5 -10.5t-9.5 -8t-12.5 -7.5t-14.5 -4.5q-68 -8 -86 6q-4 2 -17.5 8t-19.5 13q-22 25 -29 37q-12 21 -9.5 51t14.5 51q1 1 5 11 t6 14.5t6.5 12t9 12t9.5 7.5q3 2 16 6.5t23.5 9t10.5 7.5zM526 815q-18 -3 -59 -16q-3 -1 -11.5 -6.5t-15.5 -10t-10 -4.5q-4 1 -14 -9.5t-20.5 -25t-12.5 -16.5q-4 -6 -9 -15.5t-8.5 -15.5t-7.5 -10q0 -1 -10 -29q1 -11 -1.5 -33t-2.5 -32q-1 -17 3.5 -42.5t4.5 -37.5 q4 -34 29 -68t55 -57q62 -42 115 -37q5 1 31 3t42 5.5t27 10.5q32 18 66 45q40 29 55 83.5t8 110.5q-5 48 -22 94q-2 6 -7 15t-9.5 15.5t-4.5 8.5q-5 9 -35 28.5t-32 27.5q-2 6 -13 8.5t-25 4t-18 3.5q-29 6 -88 2zM418 -381h16q8 0 25 -1t26 -1q19 1 58.5 1t60.5 1 q11 -1 41.5 -3.5t40.5 -2t43 3.5q16 4 27 4q3 0 16.5 -2.5t22 -3.5t14.5 2q10 8 33.5 6.5t34.5 1.5q8 3 27 5t28 1q27 0 41 4q50 14 59 25q42 53 33 88q0 9 -10 27.5t-19 17.5q-20 12 -20 14q-1 5 -18 5.5t-19 1.5q-11 9 -32 11.5t-39.5 1.5t-37.5 1q-10 1 -28 4.5t-33 5.5 t-31 2q-31 0 -43 -4q-18 -2 -22 -2.5t-21 2t-22 2.5q-3 0 -18 -1.5t-23 -0.5q-5 0 -17 1t-22 1t-17 -2q-25 -7 -79 -2q-2 0 -15 2t-23.5 2t-13.5 -4q-4 -4 -57 -4q-16 -4 -46 -9t-46 -9q-37 -11 -47 -31q-2 -4 -7.5 -16.5t-7 -18t-3.5 -15.5t0.5 -18.5t9.5 -17.5 q4 -6 13.5 -18t10.5 -13q2 -2 14.5 -7t14.5 -9q3 -7 11.5 -9.5t21 -3t18.5 -2.5q6 -1 22.5 -6.5t28.5 -7.5t25 0z" />
<glyph unicode="h" horiz-adv-x="1378" d="M475 762q8 6 45 55q14 21 17 27q1 6 7 13.5t16.5 16.5t12.5 11q17 18 39.5 36t26.5 21q8 7 36.5 12.5t35.5 8.5q16 5 48 8t48 8q7 2 32.5 0t28.5 -6q8 -9 42 -14t40 -7q13 -4 21 -16q3 -1 11.5 -4.5t10.5 -5.5q5 -3 9 -12.5t6 -12.5q4 -4 14 -9.5t14 -12.5q5 -7 18.5 -24 t23 -30.5t14.5 -27.5q19 -46 26 -101q3 -18 -2 -32q-2 -5 -13.5 -16.5t-12.5 -18.5q-3 -10 4.5 -21.5t7.5 -15.5l14 -31q3 -3 3.5 -16.5t-0.5 -32.5l-1 -18q0 -57 4 -84q4 -11 1.5 -43t-1.5 -43q1 -14 -1.5 -49.5t-0.5 -65t13 -45.5q18 -30 75 -10q7 3 16.5 3t21.5 -1.5 t18 -1.5q18 1 28 -8t12 -19t3 -31q0 -3 1 -15t1.5 -20.5t-2.5 -18.5t-9 -13q-4 -3 -11 -11.5t-11 -11.5q-5 -4 -14.5 -5t-14.5 -5q-6 -8 -50 -4t-56 2q-10 -2 -34 1.5t-34 -1.5q-13 -3 -23 -3t-27 2.5t-24 2.5l-35 -2q-36 -3 -62.5 -2t-29.5 8q-4 2 -14 1t-25 -3t-18 -2 q-7 1 -26.5 2.5t-34 4.5t-23.5 9q-14 28 -14 66q0 55 10 57q3 0 10.5 8t12.5 9q14 2 88 2q4 0 15 -0.5t16.5 0t13 2.5t10.5 8t4 16v78q1 24 2 73.5t2 74.5q1 29 -2.5 83t-3.5 78q0 9 0.5 33.5t0.5 38.5t-1.5 33.5t-5.5 34.5q-11 51 -33 79q-4 4 -32.5 26.5t-28.5 21.5 q1 2 -13 3.5t-36 2t-33 0.5h-21q-24 -2 -65 -25q-46 -32 -47 -33q-2 -2 -16.5 -14.5t-23 -22.5t-8.5 -18q-1 -8 -10 -21l-10 -14q-5 -10 -14 -37q-1 -4 -5 -14t-6.5 -18.5t-1.5 -14.5q1 -10 -1 -28t-1 -27q0 -41 -6 -68q-7 -13 -3 -72.5t3 -72.5q0 -65 4 -82q2 -6 0.5 -25.5 t-0.5 -27.5q0 -54 23 -60q11 -3 35.5 3t31.5 6q51 4 72 -2q9 -2 13.5 -9t5.5 -13.5t1.5 -18.5t0.5 -15q9 -77 -13 -86q-40 -14 -67 -16q-25 -1 -70 1.5t-63 2.5q-15 0 -59.5 -4t-63.5 -2q-19 3 -53.5 -1.5t-53.5 -2.5q-5 1 -27 -1t-39.5 -1t-21.5 8q-27 16 -29 18 q-20 10 -24 21q-17 35 -6 84q3 15 15 23t29.5 8.5t33.5 -1t35.5 -5t27.5 -3.5q27 -1 32.5 6t8.5 35q2 29 2 88q0 3 3.5 32t4.5 48t-2 27q-4 3 -5 23t1 24q1 8 5 24.5t6 30t1 25.5q0 4 -9.5 48.5t-4.5 70.5q7 44 4 81q-1 10 -1.5 30t-1.5 36t-3 29q-2 9 -0.5 30.5t0.5 30.5 q-1 8 -5 23t-5 20q-4 26 2 83t2 81q-3 17 0.5 56.5t1.5 54.5q-1 6 -3 25.5t-3 25.5q-1 5 0.5 9t6 6.5t7 3.5t8.5 2.5t8 2.5q1 0 5.5 1.5t8 2.5t7.5 3t5.5 4.5t0.5 5.5q1 2 -2 4t-8.5 2.5t-10.5 1t-10 1.5t-6 1q-2 0 -21 3t-34.5 6t-17.5 5l-27 6q-35 5 -41 7 q-20 5 -26.5 10.5t-12.5 23.5q-14 28 -8 56q5 18 23 27.5t40 9.5h46h40q35 3 88.5 -2t73.5 -5q27 4 39 -12q9 -5 10 -6q2 -1 5 -4.5l6 -7t4 -4.5q7 -8 9.5 -25t2.5 -42.5v-31.5q0 -31 4 -41q1 -5 -0.5 -20.5t-1.5 -18.5v-102q-1 -25 4 -135q0 -8 -0.5 -67.5t4.5 -65.5 q1 -2 -1.5 -14t1.5 -13q1 -1 0 -25.5t0 -27.5z" />
<glyph unicode="i" horiz-adv-x="755" d="M494 1364q15 -11 17.5 -39.5t-3.5 -44.5q-1 -3 -8.5 -14t-7.5 -17q-1 -6 -21 -35q-6 -6 -18.5 -11.5t-16.5 -8.5q-51 -34 -107.5 0.5t-70.5 87.5q-13 81 21 115q2 2 6 7.5t9 10.5t11 8t12 3t13 -1.5t12 -1.5q3 1 9 4.5t9 4.5q6 0 20.5 8.5t22.5 5.5q33 -9 39 -12 q54 -26 52 -70zM514 936q4 -2 2 -28l-2 -25q-1 -11 0 -34t0 -36q-1 -21 -1 -28t2.5 -28t2.5 -28q1 -15 -4 -96q-2 -41 1 -123.5t1 -122.5q0 -6 1.5 -27t0.5 -34v-86q0 -5 -2.5 -22t-2.5 -31.5t5 -22.5q20 -30 21 -33q13 -1 39 -2t40 -2q10 -1 39.5 1.5t38.5 -1.5 q20 -38 13 -92q-4 -21 -26.5 -29t-47.5 -5.5t-47 -0.5q-4 0 -22 2.5t-27 1.5q-3 -1 -11 -4t-12.5 -4t-11.5 0q-13 6 -41 7t-39 3q-27 4 -47 -2q-2 -5 -24.5 -4.5t-26.5 0.5t-12 -1.5t-17 -0.5q-14 1 -86 -4q-62 0 -72 12q-1 2 -5 4.5t-7 5.5q-6 6 -8.5 15.5t-2.5 16 t0.5 18.5t0.5 16q0 25 9 34t32 11q68 10 80 -2q5 -5 32 4q32 0 35 25q4 66 4 94q-5 51 -4 61q4 19 4 97q-1 20 -1.5 84t-2.5 100q-1 12 -5.5 60t-4.5 75q5 37 -4 57q-4 11 -9.5 15t-21.5 4h-18q-2 1 -24 4t-41 6.5t-19 5.5q0 1 -6.5 2t-13 2.5t-7.5 3.5q-18 12 -18 54 q2 36 11 51.5t42 21.5q24 4 70.5 -1t68.5 -1q71 10 109 2q7 -1 21.5 0t21.5 0q20 0 30 -2q8 -1 11 -2.5t6.5 -5t9.5 -6.5z" />
<glyph unicode="j" horiz-adv-x="704" d="M375 1444q23 10 70 2t59 -35q3 -7 17 -24t16 -21q3 -5 7.5 -37t4.5 -37q0 -7 -5 -27.5t-9 -21.5q-3 -1 -14 -16t-11 -17q-34 -34 -82 -45q-43 -10 -94 23q-22 13 -34.5 30t-23.5 46q-25 59 4 108t95 72zM561 948q8 -24 -1.5 -79t-2.5 -78q3 -13 -2 -54q-1 -7 1.5 -10 t2.5 -4q0 -9 -2 -27.5t-2 -27.5q1 -17 5 -104t3.5 -104t-0.5 -104q0 -21 3.5 -160.5t-1.5 -160.5q0 -1 0.5 -65t-0.5 -64q0 -11 1.5 -33t0.5 -37t-6 -29q-16 -37 -16 -53q-2 -10 -8.5 -27t-10.5 -18q-3 0 -15.5 -22t-12.5 -25q-2 -10 -54 -55q-5 -4 -17 -13t-21.5 -16 t-10.5 -8q-6 -6 -23 -13.5t-28 -9.5q-3 0 -13.5 -4t-20 -7.5t-9.5 -2.5q0 -10 -100 -10q-245 -4 -312 131q-9 18 -20 55q-4 7 -2.5 36.5t8.5 49.5q12 34 31 58q11 18 35 34t45 17q41 5 98 -29q28 -17 33 -31q1 -1 3 -5t4.5 -7.5t4.5 -3.5q11 -3 0 -72q-2 -3 -4.5 -11.5 t-5.5 -14.5q-3 -5 -14.5 -15.5t-14 -15.5t1.5 -18q7 -7 28 -16t30 -11q40 -2 82.5 7.5t62.5 31.5q15 18 22.5 38t8.5 38.5t1 41t1 46.5q7 88 -2 321q0 78 4 119q2 22 -2.5 68.5t-1.5 72.5q1 3 -1.5 26t1.5 23q3 4 3 18t-1.5 31t-1.5 19q-1 20 -0.5 75.5t-1.5 74.5 q-1 10 1.5 31.5t3 35.5t-8 25t-29.5 10q-10 -1 -37.5 -0.5t-56.5 0.5t-29 -2q0 -1 -6 0t-13 3.5t-10 4.5q-5 8 -2 21q0 2 -3 13.5t-3 18.5q4 40 4 62q3 18 17 26q6 5 15.5 5t20.5 -2.5t15 -2.5q45 -3 90 0q8 0 82 -1t84 5q42 4 55 3h29q5 -1 9 -6.5t9 -6.5z" />
<glyph unicode="k" horiz-adv-x="1456" d="M494 1427q9 -22 4 -88q-3 -23 1 -72.5t1 -74.5q-2 -20 2.5 -70.5t-0.5 -70.5q-2 -9 0.5 -30.5t1.5 -29.5q0 -12 -1.5 -47.5t-0.5 -54.5q7 -184 2 -311q0 -2 -1 -16.5t-1 -28.5t1 -29.5t5 -25.5t10 -11q8 -1 20 10t26.5 28.5t17.5 20.5q9 10 25 22.5t22 18.5q5 4 26 25 q8 7 25.5 21.5t32.5 28.5t28 30q14 17 45 45.5t35 32.5q1 1 8 9q55 58 29 58h-106q-57 -6 -66 19q-3 10 -4 28.5t4 24.5q7 5 1.5 23t1.5 37.5t34 17.5q21 -3 41 0q8 0 28 -4.5t29 -4.5q116 -4 172 0q9 1 26 3t24.5 2h25.5q41 -10 49 -2q5 2 16.5 1t29 -2.5t20.5 -1.5 q6 0 19.5 1.5t25.5 1.5t22 -3q10 -2 16.5 -9t8.5 -13.5t4.5 -19.5t3.5 -17q4 -14 2.5 -38.5t-8.5 -37.5q-31 -10 -72 -10q-6 0 -40.5 4.5t-57 3.5t-37.5 -10q-10 -8 -32 -33.5t-29 -32.5q-3 -3 -9.5 -10.5t-12 -13.5t-9.5 -8q-7 -3 -19.5 -18.5t-19.5 -18.5q-4 -2 -10.5 -8 t-12.5 -13.5t-8 -9.5q-5 -5 -13.5 -17t-12.5 -16q-18 -18 -20 -29.5t16 -27.5q6 -7 22 -17.5t19 -13.5q8 -8 24 -29t29 -32q32 -28 53 -53q8 -8 20 -18t15 -13q13 -13 37.5 -42.5t40.5 -45.5q7 -7 27 -25t35 -33t22 -26q9 -13 47 -51q9 -9 24 -9t35.5 4t32.5 3q33 0 49 -10 t19 -40q12 -75 -35 -94q-27 -13 -54 -8q-16 1 -48.5 -0.5t-39.5 -1.5q-34 0 -69 2q-60 2 -178.5 -1t-176.5 -1q-53 0 -67 14q-8 8 -12.5 29.5t2.5 32.5q3 3 -0.5 26.5t-1.5 30.5q6 15 20 17.5t38.5 -3.5t31.5 -6q12 0 37.5 3t25.5 8v2q3 0 18 -4.5t21 -4.5q6 23 -51 72 q-7 7 -14.5 18.5t-14.5 18.5q-18 18 -22 20q-7 4 -15 11.5t-18 21t-12 15.5q-6 4 -20.5 18t-14.5 18q1 4 -3.5 7.5t-10.5 7.5t-7 6q-12 28 -43 47q-7 7 -15 3.5t-11.5 -7t-10.5 -12.5t-12 -13q-69 -64 -88 -86l-13.5 -13.5t-20 -22.5t-7.5 -15q0 -1 -4 -11t-4 -11 q-4 -7 -2 -27.5t4 -30.5q3 -5 5 -13.5t5.5 -13.5t12.5 -8q20 -4 36 -4q10 0 29 2t29 2q5 0 14.5 2t17.5 2t15 -4q6 -8 7.5 -19t0 -28t-1.5 -22q1 -4 3 -13.5t3.5 -18.5t1.5 -15q0 -37 -94 -29q-26 0 -29 6q-1 5 -19.5 4.5t-19.5 -0.5q-10 0 -28 -6q-9 -4 -23.5 -4.5t-33.5 1 t-25 1.5q-14 0 -42 2t-46 2.5t-42 -0.5t-44 -4q-7 -2 -15 -2t-18 1t-16 1q-10 0 -36.5 -2.5t-41.5 -1.5q-21 3 -28 15.5t-9 37.5q0 4 -1.5 20t-1.5 27.5t3.5 24t11.5 16.5q19 9 44.5 9t56 -3t47.5 -2q12 1 18 3.5t10.5 9t3.5 18.5v86q7 60 11 150q0 12 1 52t0.5 68t-5.5 54 q-11 62 0 108q3 19 0 41q-5 69 -7 82q-4 9 -1 72t3 71q0 15 -1.5 68t-0.5 80q0 12 -3.5 49.5t-2.5 58.5q6 45 -12 58q-7 6 -20.5 7t-30.5 -0.5t-23 -0.5q-4 0 -32 -1.5t-45 2.5t-19 19q-1 9 -5 28t-6 33.5t-1.5 30.5t9 26.5t25.5 13.5q13 8 83 0.5t85 -7.5q7 0 39 2.5 t39 -0.5q15 -3 29.5 -3t33 1.5t29.5 1.5q10 2 50 2z" />
<glyph unicode="l" horiz-adv-x="718" d="M477 1417q4 -7 6 -14.5t2.5 -17.5t0.5 -15t-1.5 -18t-1.5 -15v-84v-161q-1 -27 0.5 -78t1.5 -66q0 -5 1.5 -20t2 -22.5t0 -19t-3.5 -20.5q-6 -4 -1 -45t5 -45q0 -28 -2 -86t-2 -84q0 -20 1.5 -57.5t1.5 -68.5t-3 -58q-7 -36 0 -68q2 -14 0.5 -39.5t-4 -58t-2.5 -35.5 q0 -5 -0.5 -18t-1 -21.5t1.5 -19t6 -17.5q7 -5 18 -6.5t29.5 -0.5t20.5 1q10 0 27 1t31 1t26 -2q20 -3 26.5 -13t8.5 -32t-3.5 -46.5t-17.5 -35.5q-15 -15 -67 -10q-18 0 -68 -4q-28 -1 -82.5 1.5t-75.5 2.5q-48 0 -73 -4q-13 -2 -39 0.5t-37 1.5q-5 0 -20 -1.5t-22 -1.5 t-20.5 -0.5t-20.5 1t-17.5 3.5t-16 7t-11.5 11.5t-8 16.5t-1 23q0 5 -0.5 19.5t-0.5 24.5t3 23t11 15t24 0q8 -4 38.5 -2.5t38.5 0.5q6 0 27.5 -3.5t30.5 -2.5q11 0 15.5 23.5t4.5 57v34.5q1 28 0 85.5t0 86.5q1 26 1 56.5t-0.5 67t-0.5 56.5q0 55 -2 84q-2 13 0 43t0 45 q-3 20 -3.5 46.5t0 44t2 50.5t1.5 43q1 24 -1.5 76.5t-0.5 79.5q2 18 3 38.5t1.5 45.5t1.5 39q3 25 -21.5 34t-51.5 7q-88 0 -93 14q-1 2 -6 6l-6 4q-3 3 -4.5 6.5t-3 9t-2.5 9.5q-5 12 -6.5 44t8.5 40q2 1 7.5 8t8.5 8q14 8 51 2q9 -1 32 0.5t32 -0.5q4 -1 22 0t25 0 q21 -4 88.5 -1.5t89.5 1.5q29 0 41 -10z" />
<glyph unicode="m" horiz-adv-x="1896" d="M1087 745q13 1 15.5 20t7.5 21l12 19q-1 4 4 10.5t11.5 12.5t7.5 8q8 24 10 26l12 21q0 5 17 22q7 9 15.5 16t12.5 9.5t17.5 9t17.5 8.5q15 7 38.5 16.5t29.5 12.5q70 14 115 -8q33 4 47 0q8 -1 16 -5t16.5 -10t12.5 -8q48 -22 84 -61q2 -3 12 -21.5t19 -34.5t10 -16 q6 0 10 -21t6 -59t3.5 -78t2 -90.5t0.5 -83.5v-69v-37q0 -10 2.5 -54.5t2 -54t-2.5 -53.5q-4 -13 -2.5 -35.5t17.5 -25.5q32 -5 81 6q52 12 70 -17q8 -11 14 -65q0 -56 -22 -74q-5 -5 -17 -7t-28 -3t-23 -2q-21 -3 -65.5 3t-67.5 3q-47 -6 -131 0.5t-117 5.5h-49 q-3 0 -12 2.5t-12 1.5q0 1 -2 5t-5 9.5t-4 6.5q-2 8 -2 17t1 20t1 16q0 7 -0.5 20.5t-0.5 18.5t2.5 14t7.5 19q17 7 70 -1t63 7q8 6 9 18.5t-1.5 28.5t-1.5 22q0 12 3 36.5t3 37.5q0 25 -1 72.5t-1 70.5q0 13 4 74t0 74q-4 26 -8 37t-0.5 37.5t-1.5 35.5q-2 5 -7 34t-14 38 q-2 2 -5.5 8.5t-6.5 10.5q-3 3 -25 14q-12 16 -45 17.5t-59 -3.5q-66 -5 -111 -56t-67 -118q-19 -74 -23 -196v-291q1 -9 12.5 -9.5t27.5 3.5t18 4q4 1 20.5 -0.5t30.5 -1.5t16 4q2 2 8.5 0.5t14 -6.5t8.5 -9q10 -33 6 -84q0 -2 -0.5 -14t-1.5 -15t-4 -11t-8.5 -11.5 t-14.5 -5.5q-33 -8 -77 -8q-3 0 -29 -3t-33 -1q-20 10 -53 2q-26 -4 -100 4q-16 1 -44.5 -3t-35.5 -5q-6 0 -17 -1t-20.5 -1t-18.5 2q-8 1 -27 2t-28 2q-15 1 -22.5 7t-9 14.5t-1.5 25.5q0 9 -1 28t-1.5 30.5t2.5 27t9 27.5q16 -2 53 4q10 1 41 -3t39 1q8 3 13 8.5t6 13.5 t1 13.5t-2 16.5t-2 13q-1 25 -1 33.5t2 34t3 33.5q-2 54 2 163q1 26 -3 73.5t-5 59.5q0 43 -0.5 62t-8.5 51.5t-24 52.5q-39 47 -127 39q-22 -2 -57.5 -15.5t-48.5 -27.5q-3 -5 -9.5 -7t-7.5 -3q-2 -2 -6.5 -8.5t-8 -11.5t-5.5 -5q-3 0 -7.5 -4.5t-8.5 -11t-9 -14.5 t-8 -14.5t-6 -12.5l-2 -6q-1 -2 -1 -7.5t-1 -6.5q-4 -3 -4.5 -15.5t-3.5 -15.5q-9 -9 -9 -55q1 -18 -3 -57.5t-3 -57.5q0 -47 -2 -70q-1 -2 2 -20t2 -19q-5 -6 0 -30t0 -99q0 -8 -2 -25.5t-1 -30t7 -23.5q19 -2 23 -2.5t22.5 2t22.5 2.5q47 8 70 4q10 -3 14.5 -13.5t4.5 -21 t-1.5 -26.5t-1.5 -21q0 -4 1 -18.5t1 -23t-4 -18t-12 -12.5q-9 -5 -20 -7t-19 -2t-21.5 0.5t-19.5 0.5q-38 -3 -62 4q-4 1 -18.5 -1t-24.5 -3t-14 2q-4 4 -33 4q-10 -2 -31 1t-28 3q-16 0 -47 -3t-47.5 -3.5t-46.5 4.5q-9 3 -40 0.5t-40 3.5q-6 4 -9 14.5t-4 29.5l-2 18 q0 6 -3.5 18.5t-4 19t5.5 19.5q1 4 11 10t12 8q4 7 43 7h53q4 1 15.5 1t15.5 1q12 4 15.5 13.5t2 28t-1.5 23.5q9 95 6 191q-1 14 -1 40t-1 39q-1 15 1.5 38t2.5 34q0 23 -3.5 81t-2.5 89q5 49 -12 66q-6 6 -19 9t-22 3.5t-28.5 0t-24.5 -0.5q-43 0 -66 18q-7 33 -4 80 q1 19 8 29t13 12.5t22.5 5t24.5 4.5q21 5 49 2q27 -4 82 0q15 2 44 2.5t44 2.5h10.5h11t10.5 -0.5t10.5 -2t8.5 -3.5t8.5 -6t5.5 -9q2 -9 9 -20.5t14 -10.5q4 0 16 -18q1 -3 2 -29q1 -91 17 -91l4 1q13 5 24.5 39.5t22.5 38.5q2 0 9 8.5t7 11.5q3 4 12.5 10.5t12.5 10.5 q16 23 63 51q49 27 66 29q10 0 21.5 1t25 2.5t21.5 2.5q6 1 19 4t19.5 3.5t18.5 -1.5q14 -5 45 -11t45 -11q7 -2 24.5 -11.5t18.5 -13.5t29 -23q2 -2 12.5 -23t15.5 -22q4 -1 8.5 -10.5t8 -22t4.5 -14.5q5 -6 9 -26t8.5 -36t10.5 -16z" />
<glyph unicode="n" horiz-adv-x="1337" d="M1135 158q13 -11 74.5 -2.5t62.5 -5.5q1 -2 9 -14t9 -21q3 -35 0 -70q-5 -41 -26 -45q-2 -1 -14.5 -2t-22 -1t-10.5 1v-2q-48 5 -141 2.5t-142 3.5q-15 1 -43.5 0t-42.5 0q-30 3 -60 0q-18 -2 -33 8t-16 25q0 5 -3.5 27t-4.5 37t2.5 31.5t14.5 21.5q27 9 44.5 8t47.5 -5 t47 -3q13 1 20.5 13t9 31.5t1.5 37t-1.5 38.5t-1.5 27q0 14 3 47t2 51q0 4 -4 37t-3 51q0 12 2 57t2 66t-3.5 54.5t-12.5 58.5q-11 32 -26.5 50.5t-49.5 37.5l-26 10q-4 6 -58 6q-69 -4 -116 -39q-11 -7 -20.5 -16.5t-24 -27t-17.5 -21.5q-6 -6 -13.5 -20t-6.5 -17 q1 -9 -12.5 -33.5t-12.5 -32.5q1 -10 -2.5 -35.5t-3.5 -35.5v-82q-6 -30 -6 -35q-3 0 -2 -40l2 -40q-3 -2 -1.5 -65t1.5 -64q-4 -17 -1 -39.5t21 -25.5q8 -3 37 -0.5t37 2.5t25.5 -2t25.5 -2q18 2 23.5 -6.5t4 -21.5t1.5 -26q4 -14 3 -48t-9 -46q-21 -5 -30 -4.5t-24.5 3.5 t-25.5 3q-23 0 -39 -8q-5 -4 -31.5 -2.5t-31.5 0.5q-7 0 -23.5 2.5t-24.5 1.5h-45q-15 0 -66.5 -4.5t-76.5 -1.5q-25 2 -48.5 0.5t-51 0t-45.5 9.5q-5 5 -8.5 13.5t-5.5 19.5t-2.5 19t-1.5 21t-1 17q-2 37 8.5 51.5t46.5 14.5q27 0 95 -10q6 -2 16.5 0t15.5 0q3 3 7.5 14 t3.5 12q-3 6 -2.5 16t3.5 25t3 17q1 15 -1.5 40.5t-2.5 36.5q4 86 4 140q-1 33 0.5 92t1.5 78q0 15 -4 42t-4 42q-1 5 2 27t1 38.5t-14 20.5q-9 4 -30 6t-31 6q-16 5 -49 2q-10 -1 -17.5 -1.5t-13 1t-9.5 3t-6.5 6t-4 7.5t-2 10.5t-0.5 12v14.5v4q0 89 32 99q20 5 46 5 t58 -2.5t46 -2.5q23 0 70.5 1t72.5 1q57 0 72 -13q6 -9 7.5 -24t0 -39t-1.5 -29q-2 -29 -2 -86q2 -28 16 -14q9 8 13 20q7 25 36 76q3 6 12.5 15t12.5 18q6 11 26.5 29t32.5 22q3 1 35 17t49 16q8 1 41.5 6.5t53.5 3.5q31 -4 102 -33q7 -3 21.5 -8t21.5 -8q3 -2 17.5 -8 t19.5 -11q4 -4 15.5 -16.5t19.5 -17.5q34 -22 55 -67t23 -89v-26.5t-2 -25.5t-3 -26q-1 -13 1 -41t1 -43q-2 -22 -2 -65t-2 -66q0 -13 3.5 -42.5t3.5 -45.5q0 -18 -2.5 -58t-2 -71.5t6.5 -56.5z" />
<glyph unicode="o" horiz-adv-x="1249" d="M1063 770q35 -64 41 -86q1 -2 8.5 -21.5t9.5 -31.5q4 -14 13.5 -40.5t14.5 -46.5t7 -42q1 -11 -1 -25t-5 -28t-4 -19q-2 -8 -7.5 -45.5t-13.5 -56.5q-1 -2 -9.5 -21t-10.5 -31q-1 -6 -10.5 -21t-10.5 -22q0 -6 -4.5 -13.5t-12.5 -16.5t-9 -10q-3 -4 -15.5 -25t-21.5 -29 q-3 -3 -19 -24.5t-28 -28.5q-41 -29 -74 -47l-16 -12t-21.5 -14t-19.5 -9q-27 -9 -31 -10q-5 -1 -30.5 -5t-37.5 -7q-65 -25 -94 -27q-9 0 -57 6q-55 0 -66 4q-48 16 -53 17q-34 6 -63 16q-13 4 -34.5 17t-29.5 16q-15 6 -31 16.5t-25 18t-25.5 23t-22.5 20.5q-16 12 -21 24 q-2 4 -18 15t-17 18q0 3 -4 10.5t-9 15.5t-5 9q-12 10 -24 25.5t-11 23.5q1 6 -10.5 31t-11.5 26q-18 37 -15 76q2 18 -3.5 61.5t-2.5 63.5q1 4 1.5 22t2.5 32t6 18q1 0 2.5 4.5t3.5 9.5t3 6q5 32 16 49q5 6 11.5 22.5t11.5 22.5q7 8 13.5 26.5t8.5 22.5q3 5 8.5 11 t14.5 14.5t12 11.5q9 9 18 27q1 5 14 13t15 11q2 2 11.5 14.5t18 21t13.5 7.5q43 33 45 37q3 4 8.5 7.5t14 6.5t12.5 5q36 27 41 24q4 0 19.5 5.5t17.5 7.5q3 6 37.5 8t39.5 4q15 5 37 5.5t48 -1t40 -0.5q6 0 93 -6q11 -1 25 -6t30.5 -13t21.5 -10q79 -27 105 -55 q11 -13 32 -31t27 -24q4 -4 33.5 -27.5t38.5 -40.5zM772 141q10 20 43.5 50.5t40.5 60.5q2 9 14 43t15 35q2 2 9 41.5t7 46.5q11 103 -17 202.5t-98 157.5q-31 25 -75.5 39.5t-85.5 13.5q-11 0 -27 -8q-11 -2 -35 -2.5t-37 -3.5q-31 -11 -37 -16q-7 -5 -17 -14t-13 -11 q-4 -3 -10.5 -7t-11 -7t-10 -7.5t-9.5 -9.5q-10 -10 -24 -30.5t-13 -28.5l-10 -31l-17 -51q-20 -73 -21 -157.5t19 -157.5q3 -10 17 -41.5t18 -32.5q5 -1 11 -12t8 -13q12 -16 22 -26q7 -7 26 -18l19 -11q17 -11 53 -18q80 -18 136 -8q8 1 27 7t24 7q2 0 13 1.5t18.5 2.5 t16 4.5t11.5 9.5z" />
<glyph unicode="p" horiz-adv-x="1308" d="M492 123q-13 -3 -13 -37.5t4 -56.5q5 -82 2 -185q0 -55 -2 -84q-4 -16 -3 -38t14 -31q22 -8 38 -7.5t43 3.5t41 2q28 -3 44.5 -17t15.5 -41q0 -14 -12 -34q-23 -23 -25 -21q2 -10 -42 -13.5t-95 -3t-53 0.5q-32 0 -35 -9q-4 -1 -16.5 0t-30 2t-19.5 1q-13 -1 -38.5 2.5 t-41 4.5t-37.5 -5q-16 -4 -23 -4t-23 3.5t-23 4.5q-66 0 -66 41q0 9 -7 24t-8.5 22.5t9.5 20.5q13 10 35 14.5t39 2.5q2 0 15 -0.5t22.5 -0.5t21.5 1.5t18 5.5t5 10q-1 4 0.5 18.5t1.5 16.5q9 67 4 94q-3 17 0 54.5t0 56.5q-3 20 -3 43t1.5 51.5t1.5 44.5q0 7 1.5 28t0.5 31 q0 5 2 17l2 12q3 39 -2 178q-1 24 -1 52.5t0.5 63t0.5 52.5q-1 27 -2 79.5t-2 78.5q0 37 2 57q0 36 -10 49q-6 10 -19 13t-26 1.5t-27 0.5q-21 2 -68 10q-16 4 -25 21t-9 36q0 5 3 17t3 16q1 8 0 16t0.5 17.5t5.5 13.5q13 15 35 18t41.5 -0.5t40.5 0.5q11 1 13.5 1t13.5 -4 t14 -5q8 -3 49 4q20 4 42.5 4t50 -2t42.5 -2q17 0 29.5 -1.5t24 -10t9.5 -22.5q-1 -14 1.5 -52t0.5 -57q-4 -21 3 -42q6 -18 20 -3q5 5 12.5 20t10.5 19q5 5 16 21t10 20q0 2 31 33q23 17 26 22q17 19 47 37t52 18q11 0 20 9q3 5 31.5 7t32.5 3q25 9 102 -12q29 -6 62 -19.5 t45 -30.5q6 -7 13.5 -13.5t16.5 -13.5t15 -12q4 -4 11 -15.5t11 -14.5q9 -9 41 -60q57 -69 84 -215q2 -12 7 -34.5t7.5 -40.5t2.5 -35q-2 -45 -23 -144q-1 -5 -2 -24t-3.5 -35t-8.5 -20q-8 -4 -15 -25q-1 -5 -8.5 -15t-9.5 -16q-16 -39 -51 -74q-5 -5 -18 -16t-22.5 -20.5 t-13.5 -18.5q-3 -6 -16 -11.5t-18 -12.5q-4 -4 -35 -15t-33 -18q-1 -5 -37 -17q-56 -12 -80 -16q-2 0 -12 -2t-18.5 -3t-18.5 -2t-17 0.5t-9 4.5q-3 3 -21 6.5t-22 3.5q-16 1 -28.5 5t-31 12.5t-24.5 11.5q-37 17 -74 57q-1 1 -13 21.5t-24 34.5t-20 12zM727 811 q-87 -13 -125 -53q-5 -5 -14.5 -13.5t-16.5 -15.5t-12 -16q-18 -21 -37 -49q-11 -14 -20 -56q-1 -3 -2.5 -8.5t-5 -17.5t-5 -19.5t-0.5 -7.5q-6 0 -6 -88q0 -57 2 -88q4 -88 29 -143q14 -37 80 -89q59 -43 133.5 -44t134.5 40q28 17 52.5 60.5t35.5 81.5q19 83 23 108 q4 12 3.5 95t-7.5 83q-13 72 -17 74q0 1 -4 17t-4 18q-2 6 -18 39q-5 17 -27 35q-4 4 -17 13t-16 9q-5 1 -19 11t-18 12q-12 9 -26 12q-38 6 -76 0z" />
<glyph unicode="q" horiz-adv-x="1294" d="M1094 946q2 -17 -1 -47.5t-3 -40.5q5 -80 4 -94q-5 -82 2 -201q3 -64 -2 -293q-1 -23 1.5 -75.5t0.5 -79.5q-9 -88 -9 -115q0 -30 5 -168v-90q0 -3 -3 -16.5t-3.5 -20.5t4.5 -12q2 -2 3.5 -8t0.5 -7q12 -4 36 0q36 5 82 5q2 0 10 0.5t13.5 0.5t12.5 -1t11.5 -3.5 t6.5 -7.5q8 -13 4 -41v-37q0 -3 0.5 -12.5t0.5 -15t-2 -12.5t-5 -11q-20 -11 -49 -11.5t-63 3t-50 2.5q-35 0 -41 6q-4 5 -26 1.5t-27 -1.5q-6 1 -32 -1.5t-30 3.5q-3 3 -8 3t-11.5 -1.5t-8.5 -1.5h-56q-12 0 -88 -3t-88 5q-29 5 -33 46.5t6 62.5q9 35 41 27q10 -5 41 -1.5 t43 1.5q47 -6 62.5 12.5t15.5 66.5q0 26 -10 103q-3 18 1.5 51.5t4.5 44.5q0 14 2.5 45.5t2 56.5t-6.5 43q-7 18 2 54q5 14 -6 18q-6 1 -10 -1.5t-5 -4.5t-3.5 -8.5t-2.5 -7.5q-13 -38 -61 -86q-3 -3 -10 -10.5t-10 -10.5q-8 -8 -30 -19t-28 -18q-7 -9 -23 -16.5t-29.5 -10 t-36.5 -6.5t-30 -6q-78 -16 -161.5 4t-137.5 72q-2 2 -12 10t-19.5 15.5t-9.5 9.5q2 7 -32 41q-22 18 -49 79.5t-35 74.5q-7 10 -9.5 44.5t-9.5 43.5q-5 6 -6 20t0 30t0 21q-2 32 4 78q10 94 37 162q7 16 26 48.5t25 45.5q6 16 43 53q1 1 19.5 21.5t33 34t19.5 12.5 q2 0 7.5 5.5t12.5 11.5t9 8q19 7 30 16q8 5 15 8t15.5 6t14.5 6q2 1 18 5.5t31 8.5t15 5q0 -2 18 1t38.5 7t23.5 4q5 0 35.5 0.5t44 0t34.5 -4.5t35 -12q4 -2 40 -17t50 -30q17 -17 21 -15q7 1 22 -18t19 -21q7 -4 26 -32q1 -2 3.5 -5.5t4 -5.5t4 -4.5t5 -3.5t6.5 -1.5 t8 1.5q6 2 21.5 20.5t15.5 24.5q1 5 16.5 22t14.5 25q-1 4 7.5 12t8.5 13q0 3 8 10.5t9 11.5q2 3 9.5 5.5t8.5 5.5q5 18 67 -19zM535 836q-22 -3 -35 -13q0 -1 -10.5 -6.5t-12.5 -5.5q-17 2 -40 -27t-29 -32q-4 -3 -13.5 -18.5t-9.5 -18.5q1 -1 -8.5 -27t-11.5 -26 q-4 -1 -13 -29q0 -2 -12 -80q-15 -142 20 -268q35 -129 123 -168q106 -46 172 -17q5 2 16 5t18 5.5t11 6.5q3 4 19.5 14t19.5 10q11 -2 62 62q11 10 35 69q2 7 8 24.5t8 27.5q1 3 1.5 14t2.5 16q10 10 6 58t-2 61q3 31 -7 93t-11 79q0 17 -25 80q-6 14 -24 32.5t-35 28.5 q-26 16 -33 25q-5 6 -12.5 9.5t-13 5t-15.5 3t-14 2.5q-74 18 -135 5z" />
<glyph unicode="r" horiz-adv-x="1013" d="M694 838q-9 8 -27.5 -2t-29.5 -21q-3 -3 -14 -9.5t-13 -8.5q-2 -3 -10.5 -19t-11.5 -18q-26 -19 -53 -113q-5 -16 -9 -43.5t-6 -36.5q-4 -19 -3 -57t-3 -59q-2 -6 -2 -16.5t1 -23.5t1 -18q0 -13 -2 -40t-2 -40q-2 -28 2 -82v-22t3 -32t11 -19q3 -3 5 -4t3.5 -2.5t4 -1.5 h3.5h5.5h7.5q8 1 22 0.5t25 0.5t21 5q20 7 42 1t33 -24q15 -27 19 -51q0 -44 -4 -53q0 -3 -10 -15.5t-13 -11.5q-1 0 -14 -1t-19 -1q-9 0 -27.5 1t-27.5 1q-25 -1 -71.5 0.5t-61.5 1.5q-38 3 -76 0q-49 0 -74 -2q-11 -2 -65 -2q-11 1 -34 0t-50 -0.5t-31 4.5 q-22 20 -28.5 37.5t-6.5 54.5q0 7 3 16.5t4 12.5q3 9 11.5 17.5t16.5 11.5q6 2 76 2q44 0 64 4q7 8 2.5 28.5t-0.5 28.5q3 6 0.5 27t-0.5 28q4 20 4 60q-2 26 6 76q1 7 -2.5 31t0.5 30q2 12 1.5 18.5t-3.5 20t-4 18.5q-1 10 -2 32t-2 32q-2 24 2 76q1 12 -7 53q-1 5 -1.5 33 t-5.5 46.5t-19 22.5q-5 1 -36 0.5t-57 0.5t-26 5q0 1 -16 7t-17 12q-4 7 -4.5 15t1 13t4 14t3.5 13q3 10 6.5 16.5t11.5 12t10 7t15.5 7t14.5 6.5q12 6 33.5 1.5t33.5 0.5q2 4 13.5 1.5t15.5 -1.5q15 0 39 4q13 2 36.5 -2t30.5 -4q42 0 62 2q2 0 13.5 0.5t17.5 0t15 -2.5 t13.5 -7.5t5.5 -14.5l2 -13q2 -13 4.5 -24t6 -24.5t8.5 -20t10 -4.5q12 6 27 31t18 28t13 9t14 12q6 7 29.5 14.5t27.5 9.5q14 8 76 25q22 9 37 4q5 -2 18 -1t21 -1q5 -1 32 -5.5t43 -11t27 -18.5q9 -7 26 -26t17 -29q1 -4 7.5 -14t6.5 -15q-1 -4 5 -24t6 -27 q0 -88 -40.5 -137.5t-123.5 -49.5q-11 0 -53 21q-8 6 -23 24.5t-16 20.5q-9 6 -20.5 30.5t-10.5 37.5q0 4 -1 11t-1 13.5t2 13.5q1 2 7 15t6.5 18.5t-1.5 16.5z" />
<glyph unicode="s" horiz-adv-x="1075" d="M719 881q9 4 10.5 9t-1 12.5t-1.5 12.5q3 26 18 41q25 16 31 7q2 -3 14.5 -3h28t21.5 -2q34 -5 41 -16q11 -14 16 -36.5t5 -39t-1.5 -44.5t-1.5 -38q-2 -14 -2 -28.5t1 -32t1 -27.5q0 -8 -8 -32q0 -2 -4 -5.5t-4 -5.5q-13 2 -56 -4q-58 0 -61 4q-6 6 -14 6q-16 6 -23 23 q-1 2 -7 12t-10 17.5t-3 9.5q1 8 -12 21t-31 27t-21 17q-43 22 -43 25q1 5 -26.5 15.5t-57 19.5t-37.5 10q-147 10 -186 -59q-22 -43 -8 -68q2 -4 4.5 -8t6.5 -7.5t6 -6t7.5 -6t7 -5t8 -6t7.5 -4.5q27 -23 72.5 -37t85.5 -12q12 0 36.5 -8.5t32.5 -7.5q7 1 19 -2.5t18 -4.5 q46 0 49 -6q2 -2 11.5 -4t21 -3.5t14.5 -2.5q40 -12 72 -23q8 -4 31.5 -7.5t36.5 -12.5q1 -1 20.5 -9.5t26.5 -15.5q7 -6 20.5 -17.5t24 -21t16.5 -16.5q7 -8 14 -20t15.5 -30.5t11.5 -23.5q2 -5 5 -12t5 -12q3 -10 6.5 -33.5t4.5 -28.5q10 -50 -13 -127q-16 -61 -22 -71 q-7 -12 -30.5 -32.5t-25.5 -21.5q-22 -22 -36 -28q-4 -8 -27 -19.5t-37 -15.5q-4 -1 -25 -5t-24 -7q-9 -7 -57 -13q-15 -4 -72 -4q-68 0 -74 6q-8 8 -47 13.5t-51 11.5q-47 26 -57 35q-44 29 -82 76q-2 2 -5 6.5t-4.5 6t-5 3t-8.5 0.5q-8 0 -8 -43q7 -21 6 -51t-27 -35 q-11 -3 -23 -3.5t-28.5 0.5t-23.5 1q-6 0 -22.5 -1t-29 -0.5t-22.5 3.5q-22 5 -26.5 30.5t0 63t3.5 47.5q-3 91 2 166q0 3 -1 23t3.5 30.5t18.5 12.5q21 3 94 -2q3 0 10 -0.5t9 -0.5t7.5 -0.5t7.5 -1l6 -1.5t6 -2.5t5 -3.5t5.5 -5t5 -6.5t4.5 -7.5q2 -3 6 -12.5t7 -15.5 t7 -9q8 -9 28 -34.5t29 -34.5q43 -51 117 -86q36 -17 96 -29q1 0 7.5 -1.5t11.5 -2.5t6 0q2 5 21 5t20 -5q0 -3 41 5.5t45 10.5q30 10 45 31q2 3 7.5 10.5t9.5 13t6 7.5q12 9 16 36t0 39q-5 21 -18 44.5t-29 23.5q-2 1 -12 7.5t-13 6.5q-4 0 -10 3t-12.5 8t-9.5 6 q-1 0 -14.5 4t-20.5 4q-3 1 -18 1t-27.5 1.5t-14.5 5.5q-6 7 -38.5 7.5t-41.5 8.5q-6 4 -18 5.5t-32 0.5l-19 -1q-10 1 -24.5 5t-20.5 5q-61 0 -129 35q-4 2 -24.5 7t-29.5 11q-30 18 -32 20q-5 5 -18.5 18t-18 18t-14 16t-16 21.5t-13.5 23.5q-26 45 -30.5 103.5 t13.5 107.5q6 19 23 49q2 4 12 17.5t11 13.5q2 1 10 14t10 14q26 19 29 27q2 5 23 13.5t22 8.5q9 9 39 21l53 18q9 8 75.5 5t86.5 -7q5 -1 29 -5t40.5 -9t24.5 -14q3 -3 20 -11t21 -8q7 0 16 -5.5t21 -16.5l12 -11q2 -2 10 -11t15.5 -15t11.5 -4z" />
<glyph unicode="t" horiz-adv-x="886" d="M440 1268q9 -27 9.5 -71.5t-5.5 -72.5q-4 -11 -0.5 -38t2.5 -39q-3 -30 0 -64q1 -19 20 -25t38 -2q11 2 36 0.5t35 1.5q19 2 27.5 1.5t25 -3.5t27.5 -4q43 -2 43 -71q0 -34 -8 -37v-1q-1 -1 -2.5 -3.5t-3 -4.5t-3.5 -5t-3.5 -5.5t-2.5 -4.5t-2 -2l-1 -1q-8 -4 -21 -5 t-32.5 0t-22.5 1q-7 0 -40 4.5t-38 -0.5q-36 -6 -37 -6q-17 -2 -28.5 -18t0.5 -31q9 -19 8 -38t-6.5 -53t-5.5 -44q0 -7 3.5 -50.5t-1.5 -48.5q-2 -9 1 -24t3 -21q-4 -60 -2 -77q1 -10 2 -31t2 -29q0 -7 -3.5 -20t-4.5 -17q0 -5 -0.5 -23.5t0 -28.5t1.5 -26t3.5 -28.5 t7.5 -22.5q4 -7 13 -17t13 -9q2 0 6 -3.5t5 -3.5q7 -3 22.5 -6t20.5 -4q40 -8 73 29l8 6q8 7 13 13t4 10q-1 3 2.5 10t3.5 8q12 51 14 72q1 9 -1.5 38.5t0.5 50.5t14 32q12 12 42 15t46 -1q32 -9 37 -17q2 -3 4 -14t4 -12q9 -9 10 -20t-1 -22.5t1 -27.5q1 -6 0.5 -24.5 t-2.5 -24.5q-3 -28 -2 -35q0 -21 -6 -39q-2 -4 -3 -13t-3 -11q-7 -7 -15 -22t-8 -21q1 -1 -6 -15q-3 -11 -8 -19t-15.5 -18.5l-13.5 -13.5q-43 -34 -74 -47q-101 -42 -208 -33q-14 2 -38 11t-38 10q-11 0 -31 8q-6 1 -19.5 11.5t-15.5 11.5q-10 0 -20 10.5t-19 25t-12 17.5 q-8 5 -20 30q-16 32 -19 72q0 11 7 30t7 25q1 19 -0.5 54t-1.5 45q0 7 -3.5 22.5t-4.5 22.5q0 51 2 53q3 2 4 13.5t1 25t1 16.5q4 28 0 84q-1 15 -4.5 59t-3.5 68q4 23 1.5 67t-19.5 56q-6 2 -12.5 1.5t-17 -2t-13.5 -1.5h-68q-20 0 -41 7.5t-22 23.5q0 5 -4 22.5t-4 31.5 t8 20q1 1 15.5 17t25.5 15q7 0 16.5 3.5t21 8.5t17.5 7q63 19 115 71q46 46 84 154q25 78 69 78q29 0 45 -8z" />
<glyph unicode="u" horiz-adv-x="1341" d="M1114 162q4 0 11 -3.5t10 -4.5q7 -1 10 1.5t6 2.5q13 0 36 -2t36 -2q19 5 40.5 1t28.5 -24q5 -11 5.5 -23.5t-2.5 -34.5t-3 -24q-1 -9 -11 -21.5t-11 -15.5q-3 -7 -8.5 -11.5t-15 -6t-16 -1.5t-18.5 0.5t-16 0.5q-45 0 -68 2q-2 0 -15.5 -1.5t-23.5 -1t-14 4.5 q-7 3 -18 2t-28.5 -3.5t-20.5 -2.5q-30 6 -31 6q-7 0 -27 -3t-30 -1q-48 9 -48 57q0 3 -1 19q-2 103 -19 102q-5 0 -10 -6q-14 -15 -32 -49.5t-30 -48.5q-24 -30 -86 -58q-70 -33 -159 -39q-16 -2 -40.5 5t-37.5 8q-42 4 -54 14l-41 25q0 1 -10 7t-21 13t-14 10 q-2 4 -10.5 14.5t-15 19t-6.5 11.5q0 1 -8.5 17.5t-16.5 32.5t-6 16q-12 5 -12 74q2 32 -2 94t-4 84v31t4 38q3 6 2.5 33t-6.5 31q-6 12 -4 37.5t6 40.5q6 41 0 86q-1 5 -2 28t-3 35q-4 20 -23.5 22.5t-37.5 -3.5q-10 -1 -29 -2.5t-34 -2.5t-29 -1q-15 0 -19 7.5t-4.5 21 t-5.5 20.5q-3 4 -5 13t-2 16t0.5 17t0.5 11q1 3 1 9t0.5 10t2 9t4.5 9q5 7 28.5 10.5t27.5 9.5q4 7 24 7.5t44.5 -2t29.5 -1.5q15 1 42 -0.5t36 -1.5q1 0 44 2t44 -2q18 0 22 -4q2 -2 23 -2q7 0 15.5 -4.5t12.5 -5.5q6 -10 7.5 -34t3.5 -32q4 -13 5 -28t0 -36t-1 -28 q-2 -24 0.5 -75.5t-0.5 -73.5q-3 -23 -0.5 -78t0.5 -80q0 -2 -3 -27t-3 -40q0 -17 8.5 -63.5t7.5 -70.5q-2 -47 21.5 -79t60.5 -44t82 -8.5t86 21.5q4 2 25.5 11t27.5 15l25 25t28 33q2 5 3.5 24t7.5 25q2 0 6 6t4 10q-2 12 20 70q4 13 3.5 36t0.5 36q1 6 -0.5 21.5 t0.5 21.5q7 35 0 88q-3 26 -1.5 73.5t-0.5 73.5q0 37 -8 51q-6 9 -19 11t-33 0t-22 -2q-24 -7 -71 -4.5t-53 28.5q-1 13 -0.5 20t3 20t3.5 20q1 8 -0.5 25.5t0.5 25.5q2 5 18.5 12t32.5 12t16 6t51 3t64 2l30 -1q29 -2 29 1q26 7 31 0q3 -6 26 -7t45 0.5t34 -0.5 q12 -3 20.5 -9t14 -16.5t9 -21t4.5 -25t1.5 -26t-1 -27.5t-2.5 -25t-3.5 -23.5t-2.5 -18.5q-1 -16 6 -78t-1 -80q-6 -16 -1 -55t3 -55t2 -43.5t2 -40.5q-3 -27 4 -60q1 -2 -1.5 -14t-2.5 -14q0 -10 3 -31t3 -31q1 -10 -0.5 -32t0.5 -38.5t10 -29.5z" />
<glyph unicode="v" horiz-adv-x="1251" d="M170 815q-8 1 -37 -0.5t-39 2.5q-10 3 -30.5 0t-32.5 0q-28 8 -28.5 60t15.5 73q25 37 76 6q29 -19 80 -16q43 3 64 16q28 17 55 17q1 0 34 -1.5t33 1.5q18 2 26 1.5t25 -3.5t27 -4q22 -2 63.5 0.5t59.5 1.5q4 -1 12.5 -4.5t12.5 -3.5q5 0 11 -5.5t9 -10.5l4 -5 q-1 0 2.5 -27.5t6 -51.5t-0.5 -30q-4 -2 -13 -9t-19 -7q-16 -1 -45 0t-45 0q-26 0 -42.5 -9.5t1.5 -31.5q6 -6 12 -23.5t10 -23.5q2 -2 7.5 -7t7.5 -9q7 -5 4 -26t-2 -26q2 -11 13.5 -25t14.5 -22q3 -6 12.5 -21.5t12.5 -15.5q11 -3 24 -43q8 -20 29.5 -63.5t28.5 -58.5 q3 -4 20 -50q24 -56 38 -58q10 -1 18 20q3 7 10 30.5t14.5 39t18.5 26.5q6 37 18 61q17 33 14 39q0 2 5.5 13t5.5 14q1 10 27 77.5t44 128t4 64.5q-12 4 -41 5t-41 -1q-34 -7 -61 -4q-12 1 -18 7.5t-8 16t-3 20.5v5q0 8 -2 25t-2 29.5t4 21.5q3 7 7.5 10t11.5 1.5t11.5 -3 t13 -6.5t10.5 -6q17 0 30 8q4 -1 11 -6.5t10 -7.5q18 -9 28 -4q11 7 11 27t4 24q2 2 5 6.5t5 6.5t6 1.5t10 -4.5q3 -2 9.5 -8t12.5 -9t15 -3q24 -2 78 6q67 7 82 4q32 -7 61 -1.5t61 -0.5t50 -31q6 -10 8 -23.5t1.5 -24.5t0.5 -24q1 -9 -13 -27.5t-15 -23.5 q-4 -10 -32.5 -10t-64 5t-39.5 5q-33 -5 -36 -26q0 -16 -23 -62q-1 -2 -4 -14t-6 -22t-4 -11q-6 -1 -11.5 -17t-7.5 -18q-7 -6 -10 -34.5t-10 -34.5q-6 -4 -12 -18.5t-12 -37t-7 -24.5q-16 -36 -25 -62q-2 -5 -5.5 -20.5t-8 -27t-10.5 -17.5q-3 -1 -7.5 -12t-4.5 -13 l-15 -43q-2 -1 -4.5 -15.5t-3.5 -15.5q-3 -8 -10.5 -20.5t-9.5 -19.5q-1 -4 -3 -16.5t-4 -22.5t-6 -13q-8 -18 -8 -20q-1 -7 -10.5 -22.5t-9.5 -20.5q0 -23 -22 -70t-42 -51q-12 -4 -47 -4q-47 0 -72 -2q-13 -3 -35 17t-36 38q-10 17 -47 92q-27 54 -64 146q-5 16 -21 44.5 t-20 39.5q-2 6 -8 18.5t-8 18.5q-18 36 -19 36q-1 1 -7 15.5t-7 15.5q-2 22 -24.5 62t-26.5 49q-1 2 -6 9.5t-8 14.5t-3 11q-1 11 -14 32t-14 33q-1 13 -14 38.5t-21 33.5q-2 2 -8 12t-6 14q0 8 -12 18t-13 13z" />
<glyph unicode="w" horiz-adv-x="1783" d="M1014 791q-3 -12 1 -32t8.5 -32.5t14.5 -37.5t11 -27q0 -1 3.5 -17t7.5 -30t7 -15q7 -2 10 -17.5t3.5 -33.5t0.5 -19q3 -8 13 -21t12 -20q1 -3 3.5 -13.5t4.5 -18t6 -16.5t8 -13q9 -9 19 -31.5t10 -36.5q25 -113 40 -112q5 2 9 10q35 72 64 125q22 66 24 66 q1 0 11.5 21.5t22.5 45.5t15 27q7 7 21 39q1 29 25 110l5 15t6.5 20.5t5.5 21.5t3 21.5t-2.5 17t-9.5 11t-19 0.5q-54 -6 -104 2q-36 4 -27 114q3 28 34.5 34t55.5 -1q11 -1 35 1.5t37 0.5q40 -9 82 -6q23 0 64 1t65 1q99 -5 123 -22q29 -22 26 -31q-1 -6 7.5 -26t1.5 -29 q-2 -3 -4.5 -11.5t-8.5 -13.5l-36 -12q-30 -7 -54 -4q-7 0 -22 -1t-25 -1q-5 2 -15.5 -1.5t-13.5 -9.5q-34 -40 -32 -59q1 -4 -8 -21.5t-9 -23.5q-1 -11 -6.5 -26.5t-13 -33l-10.5 -24.5q-1 -3 -6.5 -12.5t-6.5 -12.5q0 -4 -15 -32t-13 -39q1 -8 -13 -37l-14 -29 q-18 -46 -33 -72q-5 -15 -18.5 -46t-18.5 -48q-2 -8 -10.5 -26.5t-9.5 -24.5q-5 -18 -21 -54t-24 -36q3 0 -9.5 -24t-26 -49.5t-13.5 -26.5q1 -10 -19 -20.5t-32 -10.5q-11 -11 -70.5 -8.5t-61.5 10.5q-2 3 -13.5 4.5t-14.5 5.5t-10.5 12.5t-10.5 16.5q-16 26 -28 67 q-3 15 -12.5 40t-12.5 40q-2 21 -31 95q-36 83 -47 122q-1 3 -4 13q-15 45 -24 46q-6 1 -11 -14q-6 -19 -26.5 -62t-26.5 -60q-2 -5 -14 -29.5t-13 -36.5q0 -4 -5 -8.5t-5 -7.5q0 -2 -4.5 -19.5t-5.5 -17.5q-3 -3 -14 -26t-11 -29q2 -10 -22 -58q-2 -4 -8 -33t-15 -36 q-5 -2 -13 -14t-17 -13q-69 -6 -70 -6q-11 2 -25 3t-21.5 2t-18.5 4.5t-23 10.5q-1 1 -10 14t-17 25t-10 12q-1 5 2.5 18t3 22t-9.5 12q-7 2 -16 19t-11 18q-4 0 -7.5 12.5t-7 27t-3.5 15.5q-14 46 -23 57q-34 34 -49 64q-2 3 -3 16.5t-1.5 26t-1.5 12.5q-3 -1 -7 10 t-7.5 22.5t-5.5 12.5q-1 0 -4.5 6.5t-8 16t-9 18.5t-8 16.5t-3.5 8.5q-1 7 -9 21.5t-8 18.5q1 4 -7 22.5t-13 25.5q-3 5 -8 27t-10 26q-6 6 -15.5 26t-11.5 29q-3 7 -13 23.5t-12 19.5q-3 7 -15 29.5t-17 32.5q-9 13 -24 18.5t-40.5 8.5t-34.5 5q-57 21 -49 66q0 2 1.5 7 t2 6.5t1.5 5t1.5 4.5l2 4t2.5 3.5t3 2t4.5 2t5.5 1.5t7 1l20 10q2 7 23 9t22 3q11 4 35 4h29q57 4 78 -2q27 -2 70 3t59 6q10 0 38.5 -4.5t43.5 -2.5q4 0 28 3.5t35 3.5q26 0 35.5 -6t13.5 -29q7 -22 4 -49q-2 -22 -20 -64q-5 -2 -53 -8q-12 -1 -41 4t-43 2q-9 -1 -11.5 -11 t1 -25t9 -31t13 -32.5t12.5 -26.5t8 -15q1 -2 8.5 -24.5t14.5 -29.5q5 -4 12.5 -24.5t7.5 -26.5q-1 -2 17 -37q2 -5 19.5 -31t17.5 -36q1 -11 9 -34t19 -48.5t13 -32.5q2 -5 6.5 -17t5.5 -16q11 -19 20 -45q4 -9 18 18l13 27q1 4 9.5 19.5t9.5 19.5q17 52 22 54q13 13 30 59 t25 80q4 16 13 73q2 6 9 19.5t9 19.5q10 28 14.5 61.5t-2.5 61.5q-16 42 -96 31q-19 -4 -40.5 -1t-26.5 19q-5 5 -1.5 24.5t3.5 20.5q0 7 -1 24.5t-1 25.5q0 16 7 21.5t25 6.5t23 2q9 2 30 0.5t29 1.5q26 4 37 2q20 -8 64 -4q19 4 55.5 4h44.5q14 -1 74.5 1t74.5 -3 q3 -1 26 1t42.5 2t20.5 -5q1 -4 7 -12.5t7 -13.5q2 -19 2 -26.5t-2.5 -25t-3.5 -26.5q-3 -23 -11 -32t-30 -15q-8 -4 -42 -2.5t-40 0.5q-5 -1 -14.5 0t-17 -1t-15.5 -9z" />
<glyph unicode="x" horiz-adv-x="1429" d="M1327 946q12 -23 9.5 -72.5t-27.5 -54.5q-17 -7 -42.5 -8t-56 1t-43.5 1q-21 0 -41 -20q-2 -3 -16 -12t-14 -15q0 -11 -10.5 -20.5t-25 -17t-18.5 -11.5q-29 -22 -94 -96q-24 -24 -26 -31q-3 -8 -23.5 -24.5t-33.5 -33.5t-5 -32q2 -4 8 -10t14 -12t11 -9q28 -35 35 -37 q5 -1 15 -15.5t11 -15.5q7 -7 22 -18.5t19 -15.5q6 -5 20.5 -18.5t20.5 -18.5q3 -3 13.5 -18t20.5 -26t15 -10q4 1 11.5 -9t16 -22t15.5 -14q12 -5 31 -34q6 -7 41 -35q14 -15 38 -17t58 2t50 3q5 -1 22 -1t24 -4.5t11 -17.5q4 -12 4 -39q-1 -9 -2 -27.5t-3.5 -30 t-8.5 -18.5q-5 -5 -13.5 -8t-20.5 -4t-21.5 -1t-24.5 0.5t-21 0.5h-205h-61l-43 2q-43 1 -43 -2q-19 -4 -75 -0.5t-77 2.5q-62 0 -88 10q-13 4 -17 20t-2.5 41.5t1.5 30.5q-3 23 6.5 33.5t32.5 7.5q13 -1 38 -1t38 -1q4 0 18.5 -2.5t25 -3.5t21.5 0t15 8t0 19q-2 5 -9 12.5 t-16.5 16t-11.5 10.5q-6 5 -19 22.5t-20 24.5q-32 24 -45 37q-1 1 -14.5 20t-22.5 25q-14 8 -45 39q-9 9 -37 3q-13 -3 -12 -9t-10 -15.5t-25 -19.5t-17 -13q-7 -8 -19.5 -18t-18.5 -16q-1 -1 -6 -9.5t-11 -13.5t-25 -20.5t-26 -22.5q-4 -9 -18 -24.5t-21 -14.5 q-3 1 -5.5 -1t-5 -6t-3.5 -5q-20 -13 6 -23q14 -5 22 -4q13 1 49 5t52 4t49 -5q18 -4 18 -61.5t-14 -67.5q-19 -14 -53.5 -11.5t-55.5 -2.5q-4 -1 -7.5 -2t-9.5 -2.5t-9.5 -1t-3.5 3.5q-45 0 -49 2q-7 2 -23.5 -1t-19.5 -3h-103q-16 0 -59 2.5t-64 1.5h-40t-47.5 8.5 t-20.5 24.5q0 6 -4.5 33.5t-0.5 46t23 22.5q23 4 103 4q44 -2 104 47q7 4 18 21.5t15 21.5q1 1 37.5 33.5t50.5 52.5q8 12 33.5 30t31.5 30q2 5 21 18q8 10 29 31q2 1 9.5 7t12.5 10.5t12 11t10.5 12t4.5 10.5q0 5 1 11t1 8.5t-2.5 7t-8.5 10.5l-20 20q-9 11 -28 28.5 t-21 19.5q-11 8 -30 29.5t-21 23.5q-11 12 -38 37t-40 39q-49 49 -78 71q-16 14 -38.5 19.5t-39 5.5t-47.5 -3t-43 -3q-23 -1 -32 16.5t-7 42.5q0 2 2.5 24t5 38.5t6.5 17.5q2 1 9 7t14 7q10 2 61 2q191 0 246 -4q9 -1 26.5 1t29.5 1l104 -2q5 5 22 1.5t21 0.5q27 9 55 9 q5 0 20 -5t19 -6q9 -2 15 -6t9.5 -7t5 -11.5t1.5 -11.5v-15.5v-15.5v-26.5t-2.5 -19.5t-7 -17t-14 -8t-23.5 -5q-7 0 -30.5 3t-42 2.5t-28.5 -7.5q-12 -9 -1 -22t22 -19q23 -9 55 -45q10 -13 24 -26.5t31.5 -30t26.5 -25.5q14 -13 26 -12.5t18.5 7t17 20.5t14.5 18 q86 75 100 88q3 4 9.5 15.5t11.5 14.5q19 27 -64 25q-5 0 -18.5 -1t-23 -0.5t-17.5 3.5q-6 1 -9.5 5t-5.5 7.5t-3 10.5t-1 10.5v12v9.5q0 6 -1 21.5t-0.5 27t3.5 21.5q5 14 50 14q41 0 49 2q2 4 32 1t33 -3q57 -2 170 -2q11 1 38 4t38.5 3t36.5 -3q16 -3 29.5 0t31.5 1.5 t31 -11.5z" />
<glyph unicode="y" horiz-adv-x="1253" d="M649 950q3 -3 3 -59.5t-3 -59.5q-4 -3 -14 -6q-12 -2 -37 -2q-12 -1 -45 -0.5t-43 -1.5q-18 -3 -47 6q-13 3 -19.5 -3t-1.5 -15q2 -3 10 -11t9 -10q5 1 8 -7t4 -17t0 -12q19 -17 35 -52q3 -7 8 -21.5t8 -21.5q1 -2 5.5 -6.5t8.5 -8t3 -5.5q-1 -5 10.5 -30t19.5 -36 q6 -8 18.5 -30t12.5 -27q-1 -5 2.5 -11t10.5 -13t8 -9q8 -13 16 -43q0 -10 5 -20t14 -20.5t12 -16.5q1 -3 8.5 -23.5t15 -34.5t15.5 -18q9 -5 25 19t27.5 52.5t10.5 35.5q0 7 19 45q5 11 11.5 35t14.5 36q1 2 10 29t19 50t14 22q-2 1 7 24.5t20 52t12 31.5q1 5 5.5 21.5 t6.5 29t0 21.5q-5 16 -53 16q-10 0 -29.5 -2t-34.5 -2.5t-30 1.5t-22 12.5t-5 29.5q1 7 -3.5 34.5t0 45t26.5 19.5h69q8 0 31.5 2.5t34.5 1.5q20 -2 76 -0.5t76 -5.5q13 -3 39 0.5t40 1.5q4 -1 15 -5.5t18 -3.5q70 4 80 -6q14 -14 10 -69q-3 -39 -32 -51t-99 -9 q-23 1 -32.5 -10t-16 -30t-18.5 -29q-5 -5 -14 -29t-11 -27q-6 -13 -31 -96q-8 -39 -32 -96q-12 -27 -27 -72q-10 -25 -10 -41q-1 -5 -9.5 -18t-9.5 -15q-3 -8 -13 -32t-13 -37q-9 -44 -40.5 -121t-39.5 -103q-11 -34 -94 -229q-21 -55 -62 -115q-3 -4 -10 -19.5t-14 -23.5 q-4 -4 -11.5 -14t-11.5 -14q-35 -35 -72 -64q-14 -14 -42.5 -31t-47.5 -18q-18 -1 -52 -6.5t-51 -7t-52 1.5q-29 8 -67 27.5t-54 37.5q-49 41 -58 123q-3 31 15 70.5t43 58.5q30 21 77 30t78 -11q3 -2 11.5 -5.5t11.5 -5.5q3 -4 9 -12.5t9 -11.5q28 -39 33 -62 q4 -20 -1.5 -48t-22.5 -36q-6 -3 -10.5 -9.5t-2 -12t14.5 -6.5q7 0 16 4t12 4q14 0 51 37q6 7 11 14.5t10.5 17t9.5 15.5q6 11 21.5 44.5t25.5 51.5q39 65 68 133q1 3 2.5 5t4 5t3.5 5q3 6 4 10.5t0.5 9.5t-1.5 7.5t-3.5 8t-3.5 7.5q-2 7 -10 18t-10 16q-4 6 -8 17t-9 25.5 t-8 21.5q-2 7 -10.5 24.5t-12.5 18.5q-5 2 -22 37q-1 7 -10.5 23t-12.5 24q-4 12 -23.5 40.5t-25.5 49.5q-5 18 -24 45t-23 35q-38 75 -65 135q-4 12 -17 25q-4 4 -8.5 20.5t-7.5 18.5l-3 8q-4 8 -8 15t-8 7q-6 1 -26.5 42.5t-18.5 49.5q1 4 -2.5 8t-9.5 9.5t-8 9.5 q-2 2 -6.5 15.5t-10.5 17.5q1 5 -5 8t-16 3.5t-19 0l-18 -1t-11 -0.5q-13 0 -40.5 2t-41.5 2q-39 -3 -35 45q1 4 1 18.5t1.5 26.5t5.5 17q2 0 5.5 11.5t2.5 12.5q21 14 49 15t50 -3t49 1q26 9 98.5 0t98.5 -7q36 4 108 0q6 0 19 -1t24 -1t19 2h24q3 2 18 -2.5t15 -7.5 q2 0 9.5 3t12.5 3q16 4 35 -2z" />
<glyph unicode="z" horiz-adv-x="1071" d="M825 618q-59 -53 -59 -61q0 -4 -13.5 -17.5t-17.5 -15.5q-5 -4 -9.5 -8.5t-10.5 -11t-10 -10.5q-6 -7 -37 -33q-3 -3 -10.5 -12.5t-14 -15.5t-12.5 -7q-4 0 -13 -18q-6 -5 -14.5 -13t-15.5 -14q-7 -8 -16.5 -17t-20.5 -20l-16 -16q-4 -4 -11 -16.5t-12 -18.5 q-17 -17 -53 -49.5t-49 -44.5l-10 -8q-9 -8 -13 -13q-9 -15 -3.5 -19.5t19.5 3.5q8 4 22 -3.5t21 -8.5h80q20 0 61 3t62 3q55 0 82 -2q5 0 21.5 -2t30 -2t20.5 4q6 1 10 11t4.5 25t0 28.5t-1.5 26.5t-1 15q0 10 -4.5 48t-2.5 62.5t13 45.5q7 16 70 8q26 0 76 4 q32 1 45.5 -16.5t11.5 -46.5q0 -99 -8 -271q-2 -15 -11 -37t-20 -26q-5 -2 -15 -16.5t-20 -18.5q-15 -5 -49 2.5t-43 3.5q-2 -6 -26 -2t-27 4q-23 2 -70 2q-26 -1 -80 0t-82 0q-9 0 -44 -4.5t-59 -3.5t-42 10q-7 3 -20 3t-29.5 -1.5t-22.5 -1.5q-8 1 -26.5 -1t-26.5 -1 q-21 0 -33 -6q-11 -4 -34 2.5t-35 1.5q-9 -5 -47.5 -4t-42.5 8q-3 6 -37 6q-33 2 -27 62q0 68 10 88q4 7 14 17t24 22t20 18q8 7 30 34.5t35 33.5q6 2 15 14t12 14q16 13 49 50q4 4 18 16t21 20l5 9q6 8 10 12t9 6t15 14.5t12 14.5q34 26 53 51q11 16 50 49q1 1 6 5t9 8 t8 9.5t5 8.5q0 4 7 9.5t17 11t11 5.5q6 9 14 29q3 16 58 64q16 14 49 51q29 17 31 20q1 10 2 15t-6 8t-11.5 4t-13 2t-12.5 2q-18 1 -71.5 -4t-72.5 0q-17 5 -68 2.5t-71 -0.5q-2 0 -13.5 2t-17.5 2t-15 -1t-14.5 -5t-7.5 -12q-4 -11 -4 -37v-31q-1 -20 3 -66.5t1 -72.5 q-2 -10 -8.5 -17t-18.5 -10.5t-23 -5.5t-27 -1.5t-25.5 0.5t-25 1.5t-17.5 1.5q-25 2 -35 11.5t-10 35.5q-1 20 0.5 56t1.5 47q0 15 1 45t1 45q-1 8 -3 26t-2 25t1 26q1 10 1 24t-0.5 26.5t6 23t20.5 13.5q2 0 10.5 2.5t11.5 1.5q4 -2 15.5 -4t17.5 0q4 4 12 4.5t19 -1 t14 -1.5q10 -1 30.5 0.5t26.5 1.5q14 0 38 -6.5t38 -6.5q12 0 36 6.5t36 6.5q14 0 40 -3.5t40 -3.5q7 0 30.5 2.5t36.5 0.5q8 -3 14.5 -0.5t12.5 2.5q10 0 30.5 -3.5t30.5 -3.5q23 2 60.5 1.5t60.5 0.5q7 0 34.5 4t33.5 -1q37 -7 63 -5q6 0 16 4.5t17 4.5q19 0 34.5 -11.5 t14.5 -29.5q-1 -1 6 -21q2 -8 2.5 -26t3.5 -27q4 -12 4 -19q0 -4 -5.5 -17.5t-4.5 -18.5q1 -3 -9.5 -14.5t-16.5 -14.5q-3 -1 -13 -14.5t-14 -16.5q-43 -49 -57 -57q-6 -4 -20.5 -8t-20.5 -8q-7 -4 -9.5 -11t-2.5 -17.5t-1 -15.5z" />
<glyph unicode="{" horiz-adv-x="684" d="M614 -72q0 -21 -2 -26q-2 -3 -6 -35q-6 -33 -55 -37q-3 -3 -23.5 -1.5t-25.5 1.5q-6 0 -16 1t-15 1q-14 -2 -27 0l-14 2q-2 0 -9 2t-9 2q-9 4 -13 4l-20 4l-21 7q-6 3 -9 5t-4 2t-4.5 1t-8.5 4q-6 2 -9 3.5t-7.5 6t-10.5 8.5q-23 14 -26 17q-2 2 -12 8t-13 10 q-6 4 -27 31q-3 4 -8 10t-8 10t-12 35t-9 49q0 8 -3.5 22t-4.5 19q-2 6 -2 23q0 5 -1 16.5t-1 16.5q0 6 -2 16t-2 16q0 7 -1 25.5t-1 32.5q-1 8 -1.5 27.5t-2.5 35.5v90q-1 11 -0.5 29t-1.5 22q-1 5 -2 19t-2 20q-2 16 -9.5 38t-9.5 28q-5 9 -18.5 23t-20.5 22q-1 3 -8.5 8 t-9.5 8q-9 5 -20 8t-17 7q-2 2 -12 6t-12 8q-1 10 -1.5 11.5t6 6.5t9.5 9q4 3 16.5 6.5t18.5 7.5q3 1 30 8q1 1 4.5 1.5t6.5 2t6 4.5l22 11q11 4 14 9.5t3.5 20.5t1.5 21q7 30 0 82q-5 16 -2 53t2 55q0 6 -1 16t-1 15q-1 5 0.5 16.5t1.5 12.5q1 5 2 13t2 13q0 4 1 10t1 7 q-1 2 0.5 11t1.5 11q-2 18 -2 41q0 10 3.5 32.5t2.5 33.5q-1 7 2 24.5t2 24.5q-2 18 12 49q0 21 5 29q4 4 5.5 11t4.5 11q8 13 32 26t29 17q17 3 31 17q10 6 31 12q5 1 9.5 5.5t8.5 4.5q8 0 9.5 1.5t4.5 2.5t23 4h6.5t1.5 1t4 3q1 0 6 4t15 5q25 8 28 8q9 3 19.5 4.5 t15.5 3.5q14 2 19.5 2t22.5 -2.5t30 -3.5q4 -1 11.5 -2t11.5 -1.5t10 -2.5t10 -3.5t8 -4.5t6 -7q7 -25 -12 -102q-27 4 -57 -8q-5 -2 -15.5 -8t-17.5 -9q-5 -1 -10.5 -8.5t-8.5 -9.5q-3 -1 -7.5 -7t-8.5 -9q-5 -5 -8.5 -12.5t-7 -22t-4.5 -17.5q-9 -48 -15 -100 q0 -14 -3 -43.5t-3 -46.5q0 -9 -2 -28.5t-2 -28.5q-1 -5 2.5 -17.5t3.5 -17.5t1 -13t1 -12l-2 -16q0 -6 2 -13t2 -8v-22q0 -4 -1 -13.5t-1 -13.5q0 -1 -1 -9t-1 -15q0 -4 -1 -16t-1 -15q0 -20 -10 -49q-1 -4 -6 -9t-6 -8t-7.5 -8.5t-7.5 -7.5q-5 -8 -8 -10t-4 -4 q-1 -1 -5 -2.5t-9.5 -3.5t-6.5 -3q-9 -5 -15 -7t-10 -4t-13 -9q-5 -6 -1.5 -11t12 -14t9.5 -14q3 -13 14 -20q8 -8 11 -17q1 -6 6 -11t6 -7q2 -15 10 -23q3 -3 8 -18q9 -15 9 -25q0 -8 4 -24q1 -13 6 -32.5t6 -25.5q3 -13 8 -24q6 -17 -4.5 -67t-7.5 -64q1 -4 -2 -14t-2 -15 q3 -24 4 -25q22 -103 39 -149q10 -22 22 -33q11 -18 23 -18q10 0 37 -7.5t43 -9.5q3 -1 9.5 -2.5t14.5 -3.5t8 -35z" />
<glyph unicode="|" horiz-adv-x="407" d="M334 502q4 -8 4.5 -22t-1 -32t-1.5 -22q0 -32 -4 -102l-8 -205h-2q0 -10 3 -20t3 -19q0 -20 -1.5 -34.5t-11.5 -30t-28 -13.5q-8 1 -31.5 -1.5t-36.5 -0.5h-82q-7 -1 -25.5 2.5t-21.5 3.5q-13 13 -8 109l-8 188q0 1 -1.5 7t1.5 7q2 4 3 10.5t1.5 14.5t1.5 12q0 9 -3 -1.5 t-3 -0.5q0 1 -3 37t1 37q4 8 5 21t0.5 28.5t0.5 22.5q4 37 0 55q-4 16 1 24t5 23q1 13 -4 62q-3 23 2 98l-2 9v-1q0 2 2 6q13 21 14 29q2 13 1.5 17t-4.5 15t-5 15q-8 30 -8.5 59t3.5 69t5 60q0 12 -2 35t-2 35q0 8 1.5 24t1.5 29t-3 23q0 50 1 70.5t1 52.5q-6 48 -6 49 q-1 17 1 33.5t11.5 31.5t26.5 13q8 -1 31.5 1.5t37.5 0.5h82q7 1 24 -2.5t21 -3.5q6 -6 9 -26t2.5 -39.5t-1.5 -44.5t-1 -28l6 -157q-2 -27 0 -81.5t0 -80.5q-1 -17 2.5 -45.5t3.5 -40.5q0 -13 -2.5 -47t-1.5 -52q2 -20 0 -34.5t0 -32.5q3 -38 0 -76q-4 -30 -2 -39 q4 -19 8 -53v-2q0 3 -1 1t-1 -9q0 -3 -1.5 -13.5t-2 -16.5t1.5 -11z" />
<glyph unicode="}" horiz-adv-x="684" d="M70 1343q0 22 2 27q3 4 4 9.5t1 13t1 12.5q3 16 19 26.5t36 12.5q11 1 25 -0.5t24 -1.5h58l14 -4q2 0 9 -2t9 -2q9 -4 13 -4q4 -1 8 -2.5t12 -2.5q12 0 21 -6q8 -4 13 -6t13 -6q6 -2 9 -3.5t7.5 -5t10.5 -7.5q5 -4 14.5 -10t12.5 -9t12 -8t12 -8q4 -3 27 -33q3 -4 8 -10 t8 -10q2 -2 12 -33q9 -36 9 -49q0 -9 3.5 -24t4.5 -19q2 -6 2 -23q0 -5 1 -16t1 -17t2 -16t2 -16q0 -7 1 -25.5t1 -30.5q1 -11 1 -22.5t0.5 -21t2.5 -21.5v-88q1 -12 0.5 -30.5t1.5 -21.5q1 -6 2 -20.5t2 -20.5q2 -16 9.5 -37t9.5 -28q5 -9 18.5 -23t20.5 -22q1 -3 8.5 -8 t9.5 -8q8 -5 19 -7.5t18 -7.5l11 -4q11 -4 13 -10q3 -5 1.5 -9t-2.5 -5.5t-5.5 -4.5t-7.5 -6q-5 -4 -17 -8t-18 -8q-3 -1 -30 -8q-16 -8 -17 -9q-2 -1 -11 -5t-11 -5q-10 -3 -13.5 -8.5t-4 -21t-1.5 -21.5q-7 -30 0 -82q5 -16 2 -52t-2 -54q0 -6 1 -17t1 -16 q1 -5 -0.5 -16.5t-1.5 -12.5q-1 -5 -2 -13t-2 -13q0 -4 -1 -10t-1 -7q1 -2 -0.5 -11t-1.5 -11q2 -16 2 -41q0 -8 -3.5 -30.5t-2.5 -35.5q1 -6 -2 -24t-2 -25q2 -19 -12 -47q0 -23 -5 -31q-4 -4 -5.5 -10.5t-4.5 -9.5q-6 -11 -16.5 -18.5t-24 -13.5t-20.5 -11q-18 -6 -31 -19 q-10 -6 -31 -12q-5 -1 -9.5 -5.5t-8.5 -4.5q-8 0 -9.5 -1t-4.5 -1q-18 -4 -23 -4q-6 -1 -8 -5q-1 -1 -4 -2l-5 -4q-6 -3 -16 -4q-25 -8 -28 -8q-9 -3 -19.5 -4.5t-15.5 -3.5q-14 -2 -19.5 -2t-22.5 2.5t-30 3.5q-4 1 -13.5 2t-14 2t-11 3t-11 5t-7.5 8q-7 28 12 103 q27 -4 57 8q5 2 15.5 7.5t17.5 8.5q6 1 11 10t8 11q3 0 5 2t5 6.5t6 7.5q9 7 20 51q8 41 15 99q0 14 3 43.5t3 46.5q0 9 2 28.5t2 28.5q1 6 -2.5 18.5t-3.5 16.5q0 6 -1 14t-1 11l2 16q0 6 -2 13t-2 8v22q0 4 1 13.5t1 13.5q0 1 1 9t1 15q0 4 1 16t1 15q0 20 10 51 q1 3 6 7.5t6 6.5q1 3 15 17q4 8 7 10.5t5 5.5q9 0 21 6q8 4 14.5 6.5t10.5 5t13 9.5q5 6 1.5 11t-12 14t-9.5 14q-3 13 -14 20q-8 8 -11 17q-1 6 -6 11t-6 7q-2 15 -10 23q-3 3 -8 18q-8 13 -8 27q0 2 -5 22q-1 13 -6 32.5t-6 25.5q-3 13 -8 24q-6 17 4.5 67.5t7.5 65.5 q-1 3 2 12.5t2 14.5q-3 22 -4 24q-22 105 -39 152q-11 22 -22 33q-12 16 -23 16t-38.5 8t-41.5 11q-10 0 -24 4q-8 2 -8 34z" />
<glyph unicode="~" horiz-adv-x="1077" d="M1008 901q1 -7 -4.5 -17t-4.5 -16q5 -18 -8 -43q-13 -33 -51 -77q-10 -14 -33 -37q-4 -3 -7 -6t-6 -7t-5 -6q-1 -3 0.5 -8.5t1.5 -7.5q0 -4 -3 -8.5t-6 -7t-9 -6.5t-7 -5q-18 -14 -53 -33q-58 -28 -102 -28q-70 4 -109 8q-54 9 -98 29q-88 37 -101 41q-29 22 -49 22 q-9 0 -25 -3.5t-22 -4.5q-2 -1 -16.5 -7t-22.5 -7q-7 -3 -15.5 -16.5t-12.5 -16.5q-14 -17 -27 -15q-5 1 -16 5.5t-17 5.5q-39 -10 -49 -11q-27 -5 -51 15q-20 17 -4 33q0 11 14 34q5 12 14 33t17 38t16 32q8 16 34.5 39t33.5 32q11 12 28 18.5t44.5 11t33.5 5.5q53 10 92 2 q20 -3 55 -13t48 -13q15 -4 80 -24t98 -30q38 -11 53 -10q8 1 20 9t17 10q14 6 27.5 22t16.5 22.5t16 30.5q6 11 15.5 15t16 3.5t20.5 -3.5t19 -4q11 -3 33.5 -3.5t39.5 -4.5t30 -17z" />
<glyph unicode="&#xa1;" horiz-adv-x="630" d="M489 -322q-11 -109 -63 -161q-2 -2 -7.5 -9t-8.5 -10.5t-9 -8t-12 -5.5q-14 -4 -41 -8q-3 -1 -20 -2t-30.5 -1t-14.5 1q-10 0 -23.5 7.5t-19.5 8.5q-42 12 -50 23q-25 34 -43 100q-9 27 -10.5 59t2.5 56.5t9.5 60t7.5 57.5q1 19 6 55t6 52q1 22 7 61t7 54q2 31 15 98 t14 102q0 46 4 58v36q-6 20 2 40.5t27 27.5q5 2 10 5t9.5 4.5t12.5 2.5q4 0 13 -4t16 -4h25q4 1 15 5t17 5q18 2 31 -20q4 -5 5 -10t0 -15.5t-1 -13.5q-2 -30 6 -102q3 -62 11 -113q5 -43 24 -90q-1 -12 3.5 -29t4.5 -20q1 -7 2 -15.5t2.5 -19t2.5 -14.5q13 -75 16 -101 q2 -20 16 -110q9 -58 4 -93zM408 621q-40 -30 -54 -37q-5 2 -12.5 2t-16 -1t-12.5 -1q-8 1 -24.5 4t-24.5 4q-3 2 -22.5 12t-26.5 21q-1 2 -3.5 11.5t-6.5 14.5q-12 8 -27 27q-16 20 -20 72q-5 90 24 129q46 58 109 67q2 0 19.5 2t25.5 4q3 -1 31 -8q25 -4 61 -29 q47 -39 64 -120q10 -41 -29 -121q-13 -30 -55 -53z" />
<glyph unicode="&#xa2;" horiz-adv-x="1181" d="M1049 989q-7 -10 -27 -37.5t-29 -42.5q-26 -35 -35 -49q14 -16 27 -43q1 -2 6 -9t6.5 -9.5t5.5 -9t5.5 -9.5t5 -9t4.5 -10.5t3 -10t2.5 -11t0.5 -10.5q4 -80 -2 -108q-1 -4 -13 -24.5t-12 -23.5q1 -5 -9.5 -14t-16.5 -12q-5 -2 -24 -14t-29 -15q-4 -1 -23.5 -7.5 t-28.5 -6.5q-66 -3 -112 57q-8 -11 -17 -22.5t-20 -25t-17 -21.5q-16 -24 -49 -71.5t-49 -70.5t-48.5 -75t-51.5 -78q-22 -36 -33 -50q4 -2 9.5 -4t9.5 -3.5t8.5 -3t6.5 -3t1 -2.5q0 -3 88 -18q38 0 80 10q2 1 10 1.5t15 1t8 1.5q3 3 23.5 10t23.5 10q28 16 39 29 q16 15 38 47q3 6 15 22.5t19.5 32.5t8.5 33q1 15 2.5 22.5t9 17t19.5 11.5q2 0 15 -1.5t21 -2t11 1.5l54 2q15 -4 16.5 -25t-2.5 -34q0 -1 -2.5 -19t-7 -32.5t-9.5 -13.5q-3 0 -7 -13.5t-8.5 -28t-6.5 -16.5q-10 -9 -33.5 -40t-32.5 -38q-2 -2 -12 -14.5t-16 -17.5 q-1 -1 -11 -6t-18.5 -11.5t-9.5 -11.5q-2 -2 -19 -12.5t-20 -10.5q-56 -24 -113 -36q-5 -1 -57 -11q-10 -5 -51 -2t-54 2h-38q-10 2 -32.5 11.5t-25.5 13.5t-19.5 7t-21.5 5q-8 4 -14 4l-4 -8q-6 -9 -18.5 -26.5t-18.5 -26.5q-3 -5 -11.5 -15.5t-11.5 -15.5q-4 -7 -13 -19.5 t-13 -19.5q-4 -1 -13 -4.5t-12 -4t-14 0.5q-28 4 -45 4l-12 3t-14.5 3t-10.5 0q-25 -9 -41 2q-9 6 -11.5 11t0.5 10.5t7.5 9t12 9t11.5 9.5q12 8 22.5 18t21 23.5t16 21t18 25.5t15.5 23q10 13 20 29q-15 12 -29 26q-9 8 -19 25t-22 41.5t-16 32.5q-40 67 -47 94 q-2 9 -8.5 24.5t-7.5 26.5q0 18 -4 61t-3 66q4 130 37 195q23 55 45 94q4 6 11.5 22t15.5 27q6 8 24.5 23.5t26.5 23.5q3 7 16.5 15t16.5 12q7 11 31 30q45 32 69 41q63 21 160 39q74 13 207 -16q4 -1 24 -7t33.5 -11t24.5 -11q3 3 8.5 11.5t7.5 11.5q28 36 43 61 q2 3 7.5 9.5t7.5 9.5q0 1 1 3t3 5q9 5 22 8q22 0 43 -6q25 -3 39 2q8 3 27 -4t22 -17q3 -3 0 -10t-3 -9.5t-5 -9.5t-6.5 -8.5t-7 -8t-6.5 -7.5zM698 715q9 13 23 35.5t26 40.5t25 34q-10 3 -30 7t-25 6q-45 12 -102.5 5t-98.5 -28q-9 -6 -22.5 -17t-18.5 -14q-2 -1 -10 -7.5 t-12.5 -9.5t-12 -10t-12 -12t-9.5 -11.5t-7 -12.5q-8 -20 -17 -58t-14 -53q-27 -63 -27 -137q1 -19 3 -56.5t3 -56.5q2 -13 9.5 -35.5t9.5 -29.5q0 -11 12 -43q28 42 33 51q2 3 41 59q15 20 49 74q9 13 25.5 37.5t25.5 36.5q7 10 21 35.5t24 38.5q22 28 25 32q2 3 6.5 13.5 t9.5 13.5q3 7 11 17t10 14q13 18 26 41z" />
<glyph unicode="&#xa3;" horiz-adv-x="1460" d="M1212 420l56 -4q3 0 15 -2t15 -2h15.5t19.5 4q19 7 22 3.5t3 -24.5q0 -37 -17 -86q-2 -7 -5 -20.5t-3 -14.5q-3 -11 -7.5 -26t-12.5 -36.5t-13 -37.5q-24 -67 -36 -88q-1 -2 -4 -5.5t-3 -4.5q-23 -39 -45 -58q-4 -3 -32 -20q-10 -5 -33 -10q-3 -1 -11.5 -3t-11.5 -3 q-45 -16 -71 -11l-10 1l-1 1q-22 11 -43 11q-14 2 -53 2q-8 2 -24 8q-1 1 -9.5 4t-9.5 4q-29 11 -51 14q-21 7 -41 17q-34 17 -57 22q-9 2 -29 6.5t-29 6.5q-107 22 -161 20q-67 -2 -105.5 -7.5t-93.5 -23.5q-8 -2 -32.5 -11t-31.5 -13q-25 -14 -65 -27q-19 -6 -28.5 1.5 t-18.5 39.5q-13 47 -39 94q-10 22 -5.5 35t9 16.5t14.5 6.5l25 6q42 17 88 59q41 38 67 109q17 61 21 131q0 96 -10 104q-4 4 -18 5t-35.5 0t-24.5 -1q-2 0 -5 1t-5 1q-5 1 -23.5 -0.5t-21.5 2.5q-30 0 -35 2q-2 1 -20.5 2t-28.5 3q-5 2 -6.5 10.5t-0.5 17t0 15.5 q-4 27 -4 44t11 38q2 2 6.5 2t9.5 2q7 3 32.5 2t33.5 2l4 -2q2 0 9 1t9 1q4 1 19.5 1t29.5 1.5t21 5.5q10 15 7 36t-11 42q-2 2 -2 6q-1 2 -4.5 19.5t-4.5 19.5q-15 48 -18 78q-4 50 -4 67q0 10 8 56.5t16 68.5q28 77 52 105l20 20q2 2 15 17t22 24l16 16l15 15q2 2 10 6.5 t22.5 13t26.5 15.5q2 1 33 16q12 6 41 10l41 8q33 11 43 11q8 0 23 3t51.5 7.5t91.5 7.5q8 0 23.5 -3t23.5 -3q3 0 23.5 -5t31.5 -5q5 0 20.5 -3.5t28.5 -2.5l17 -5q17 -5 24 -6q8 -4 10 -6q3 -1 7.5 -3.5t9.5 -5t6 -3.5q16 -13 35 -21q2 -1 9 -3.5t11 -4.5q2 -1 5 -4t5 -4 q60 -36 101 -88q29 -35 48.5 -84.5t20.5 -95.5q7 -99 -36 -158q-26 -36 -131 -41q-22 0 -41 31q-12 12 -21 18q-5 5 -10 15q-16 17 -21 24q-2 12 -18 41q-8 16 -8 25q0 4 8 20q0 1 2 4t2 4q5 5 12 19l6 14q71 105 -18 129q-2 1 -18.5 9.5t-20.5 9.5q-6 0 -10 2q-25 8 -47 12 q-40 8 -74 8q-38 0 -82 -18t-69 -47l-29 -29q-12 -14 -31 -62v2q-20 -41 -20 -112q0 -49 14 -111q4 -16 4 -24q6 -35 21 -75t38 -40q5 0 47 -1t58 -1q4 0 51 -6q5 -1 17 0t16 0q6 0 11.5 -1t6.5 -1q5 -1 12 -1.5t10 -1t7.5 -1t6.5 -2t4 -3.5t2.5 -5t0.5 -7q0 -19 -4 -51 q0 -3 1 -13.5t1 -13.5q1 -6 1 -11t-1 -7.5t-2.5 -4t-5 -2t-6 -0.5t-7 0.5t-7.5 0.5q-41 0 -66 -2q-12 -2 -49 -2l-35 2q-15 0 -24 -3t-13 -9t-5 -11.5t-1.5 -14t-1.5 -11.5q0 -1 -2 -12t-2 -13q-2 -15 -25 -61q-2 -3 -4 -8.5t-4 -8.5q-2 -4 -7 -22.5t-7 -22.5 q-2 -3 -13 -24.5t-18 -32.5q-41 -74 -37 -78q6 -6 90 10l21 4q20 4 31 4q14 2 42 0.5t39 1.5q6 3 15 3q8 -1 25 -5.5t20 -5.5q8 -2 20 -2q12 -4 23 -4q6 -3 27 -10q4 -1 18 -6t19 -6.5t18 -5t19.5 -5t18.5 -4t20.5 -3t19 -0.5t20.5 1q1 0 5 1t5 1q4 1 17 3.5t18.5 4.5 t15.5 7.5t19 15.5q3 3 33 45q4 5 5 19.5t1 27t5.5 22t16.5 7.5z" />
<glyph unicode="&#xa5;" horiz-adv-x="1804" d="M756 291h-58q-76 -5 -90 -4q-66 -5 -82 -11q-9 -5 -19 -4.5t-11 13.5q0 8 12 20q2 0 3.5 4.5t2.5 11.5t2 9q8 16 10 24q2 4 4.5 6.5t6.5 5.5t6 5h26q3 0 11 1t12 1h35q24 -3 45 0q57 0 84 -2h18v18q0 37 4 55q0 5 -1 14t-1 13h-69q-77 -5 -93 -4q-7 0 -21 -1t-22.5 -1.5 t-20 -2t-20.5 -5.5q-1 0 -4 -1q-22 -4 -24 9q5 24 14 27q3 3 8 18q10 19 11 25q2 5 8.5 10t7.5 6h27q3 0 10.5 1t11.5 1q29 0 35 -2q31 0 45 2q57 0 84 -2h24q0 12 -8 20q-12 41 -12 43q0 3 -8.5 14t-11.5 11q-2 1 -6.5 8t-10 16t-6.5 11q-4 5 -15.5 14t-15.5 14 q-9 13 -12 23q-4 8 -6 11.5t-9 7.5t-10 6q-22 15 -34 41q-2 7 -11 27.5t-12 21.5q-7 2 -22 17t-15 22q-1 7 -8 15t-17.5 16t-13.5 12q-4 6 -27.5 38.5t-35.5 43.5q-4 3 -8 13t-9 13l-8 7q-9 7 -15.5 13.5t-6.5 10.5q0 6 -7 11.5t-16 9.5t-10 5q-11 10 -30 31t-25 27 q-8 8 -19.5 27t-15.5 24q-8 9 -31 28t-29 25q-8 10 -24 21.5t-23 11.5q-8 1 -49.5 -1t-48.5 7q-9 4 -35.5 4.5t-36.5 10.5q-12 14 -12 53q3 29 21 56t40 28q8 0 29 -1t38.5 -1t31.5 2q9 1 32 -3t27 1q10 4 29 4.5t26 -6.5q11 -6 28 -5.5t46 4t33 3.5q10 0 30.5 2t30.5 2 q6 -1 21.5 -4.5t23.5 -3.5q15 1 41 0t39 0q26 2 64.5 -0.5t64.5 0.5q5 0 35 3t47 3q18 -1 30.5 0t26.5 -1t27 -7q11 -24 6 -66q-1 -9 0.5 -36t-4.5 -36q-3 -8 -10.5 -12t-15.5 -4.5t-17 -1t-16 -0.5q-15 0 -45 -4t-47 -4q-11 0 -53 4t-54 0l-7 -2q-7 -3 -13 -6t-12.5 -7.5 t-6 -9t5.5 -10.5q27 -18 27 -29q1 -8 12 -20t26 -25.5t19 -17.5q4 -5 24 -24t28 -31q15 -23 37 -43q13 -13 24 -35q4 -5 18 -15t19 -18q25 -44 63 -82q2 -2 10 -13.5t15 -15.5q4 -2 12 -14t11 -14q4 -3 8.5 -11t9 -13.5t8.5 -4.5t18 20l13 19q4 4 11 18.5t11 18.5 q60 69 66 78q20 35 33 45q8 6 15.5 14.5t15.5 19.5t14 17q19 22 52.5 62.5t53.5 62.5q6 6 14 15.5t16.5 24.5t8 24.5t-11.5 15.5q-16 5 -37.5 5.5t-49 -1.5t-38.5 -2q-6 0 -24 2.5t-27 1.5q-23 -4 -72 -4q-23 3 -30.5 11.5t-6.5 31.5q0 8 -1.5 19t-1.5 19t3 17q1 5 1 14.5 t1 15.5t6 11l19 12q3 7 26.5 6t32.5 -4q9 0 13 -4q7 -2 26 2q12 2 38 -1t38 -1q5 1 19.5 5.5t23.5 4.5q7 0 65 5q11 2 30 -2t28 -3q5 1 16.5 2.5t21 3t15.5 1.5q28 2 75 -3.5t75 -3.5q11 0 39.5 3t44.5 2l24 -3t22.5 -2h22.5q10 1 20 -1.5t15 -5t16.5 -9.5t16.5 -10 q32 -17 12 -62q-2 -9 -9.5 -24.5t-12.5 -18.5q-10 -3 -29 -6t-25 -4q-7 -2 -19 -2t-18 -2q-19 -8 -64 -5.5t-61 -6.5q-5 -4 -10 -8.5t-10.5 -11.5t-9.5 -11q-2 -2 -13 -15.5t-14 -15.5l-16 -16q-15 -15 -15 -21q0 -4 -9 -12.5t-11 -11.5q-2 -5 -7.5 -12t-13 -14.5 l-10.5 -10.5q-93 -112 -106 -131q-34 -42 -37 -57q-9 -9 -28 -26.5t-29 -27.5q-29 -29 -29 -45q2 -5 -6 -11.5t-18.5 -12.5t-12.5 -8q0 -1 -6.5 -9.5t-11.5 -16t-10 -16.5t-5 -14t-9 -14t-11 -12q-1 -1 -2.5 -8t-3.5 -9q-4 -3 -9.5 -11t-9.5 -11q-2 -3 -9.5 -18.5t-14.5 -28 t-11 -11.5q-5 0 -8 -59l60 2q14 0 22 2q8 1 25.5 1t25.5 1q8 -2 47 -2q22 0 54 4q2 0 11 1t14 -0.5t9 -6.5t2 -16t-6 -15q-9 -2 -12 -14q-2 -3 -5 -15.5t-5 -15.5q-4 -6 -10 -8h-7q-4 -2 -12 -2q-7 0 -21.5 -1t-21.5 -1q-9 -1 -27.5 1.5t-25.5 2.5q-7 -1 -20.5 0t-20.5 0 q-16 -4 -78 -4v-92h57q15 0 23 2q8 1 25.5 1t25.5 1q8 -2 47 -2q22 0 54 4q2 0 11 1t14 -0.5t9 -6.5q4 -4 0 -15.5t-8 -11.5q-9 -7 -12 -18q-2 -3 -5 -15.5t-5 -15.5q-4 -6 -11 -8h-6q-4 -2 -12 -2q-7 0 -21.5 -1t-21.5 -1q-9 -1 -27.5 1.5t-25.5 2.5q-7 -1 -20.5 0t-20.5 0 q-4 -2 -76 -2q0 -15 2 -21v-33t4 -40q5 -14 20 -16.5t19 -6.5q3 -2 31 -2q20 0 39 -8q10 -5 23.5 -5.5t30 1t26.5 0.5q2 0 15.5 -2.5t14.5 -3.5q2 -5 23 -13t24 -18q6 -11 4 -34t-8 -34q-13 -20 -53 -30q-22 -4 -98 -13q-9 -2 -32 -3.5t-36 -4.5q-8 -2 -25 -2t-22 4 q-1 6 -20.5 1t-20.5 -5q-39 0 -47 4q-1 4 -27.5 0t-29.5 -4h-111q-47 -2 -94 4q-14 2 -49 2.5t-52 3.5q-18 3 -24 12.5t-6 34.5q0 16 5.5 37.5t12.5 30.5q3 3 10.5 13.5t16.5 18t22 11.5q28 9 72 6q51 -4 76 0q16 1 18 26t-2 40q-2 14 -2 51h-16z" />
<glyph unicode="&#xa6;" horiz-adv-x="524" d="M133 956q-3 10 -4.5 18.5t-2 18t-1 14.5t0 16t0.5 14.5t1.5 18.5t1.5 19l2 4v25q0 4 1 13t1 13q0 10 -2 32t-2 34v2v2v6l2 97v16l-2 45v2l2 18q-2 16 -2 17q-2 22 3.5 28t31.5 3q8 -1 31.5 1.5t37.5 0.5h109q7 1 24 -3t21 -4q8 -7 10 -15t0 -22t-2 -20l6 -143 q-2 -27 0 -81t0 -81q-1 -17 3 -45t4 -41q0 -6 -0.5 -9.5t-1 -4t-1.5 -4t-2 -9.5l3 -6h-3v-12q5 -35 5 -55q1 -17 -1 -34t-11.5 -32.5t-26.5 -13.5q-8 1 -32 -1.5t-38 -0.5h-106q-8 -1 -26.5 2.5t-21.5 3.5q-7 0 -10 10.5t-3 29.5t0.5 34.5t2.5 37.5t2 27v2q-4 8 -4 12z M406 395q4 -8 4.5 -22t-1 -32t-1.5 -22q0 -15 -5 -102v-10l-8 -76h-2q0 -10 3 -28t3 -27q0 -20 -1.5 -34.5t-11.5 -30t-28 -13.5q-8 1 -31 -1.5t-36 -0.5h-109q-23 -4 -47 6q-18 8 -12 111l-4 12v14q0 2 -1 8.5t-1 12t2 8.5q4 10 6 22q0 9 -3 27.5t-3 28.5q0 1 -3.5 36.5 t1.5 36.5q1 1 1.5 3t1 5t1.5 5v30q0 21 2 29q1 8 0.5 24t1.5 21l2 10v27q-6 111 8 125q3 0 21.5 3.5t25.5 2.5q3 0 29.5 -0.5t49 -0.5t30.5 1q13 2 36 -0.5t31 -1.5q18 2 28 -13.5t11.5 -30t1.5 -34.5q0 -11 -4 -35q14 -43 13 -53q0 -3 -1.5 -13.5t-2 -16.5t1.5 -11z" />
<glyph unicode="&#xa7;" horiz-adv-x="1435" d="M1155 193q19 -25 21 -52q21 -61 0 -143q-1 -9 -8.5 -24.5t-8.5 -20.5q0 -13 -8 -25q-15 -26 -23 -32q-1 -1 -9.5 -19t-14.5 -20q-2 -1 -8 -9t-11 -6q1 -1 -1 -2t-5 -3t-6.5 -4t-6 -3t-3.5 -2q-27 -31 -51 -41q-3 0 -19 -7.5t-16 -8.5q-29 -5 -31 -9q-3 -4 -10.5 -7 t-19.5 -5l-11 -2q-39 4 -57 2q-24 -4 -47 0q-46 4 -68 4q-7 0 -23 4.5t-26 3.5q-20 0 -74 13q-12 12 -16 12q-24 3 -41 12q-4 2 -15.5 10t-17.5 9q-22 4 -33 18q-4 5 -23 15.5t-20 17.5l-6 8q-11 6 -20 25q-14 28 -31 30q-1 -3 -3.5 -5t-3.5 -4.5t-1 -6.5q-4 -20 -4 -37 q1 -8 -2.5 -21.5t-3.5 -19.5q-9 -23 -9 -26q-2 -7 -11.5 -10.5t-18 -4.5t-8.5 -2q0 -2 -18.5 -2t-38 1t-23.5 3q-28 6 -33 21q-6 12 -9 30t-3.5 29.5t0 37.5t0.5 34q2 33 2 100q1 19 7 50.5t7 41.5q0 5 -1 14t-1 17t2 14q0 49 8 62q1 0 13 9.5t19.5 12.5t14.5 -4q5 -4 26 -4 h23q5 -2 37 -2q38 -3 54 -33q4 -9 10 -36t14 -41q2 -5 13 -22.5t14 -27.5q2 -7 6 -11.5t9 -7.5t7 -5l8 -10q2 -2 9.5 -12.5t15.5 -18.5t12 -8q9 -1 18.5 -15t14.5 -16q2 -1 12 -9.5t13 -9.5q3 1 8 -3.5t8 -4.5q2 0 22.5 -9.5t20.5 -12.5q0 -4 8 -8.5t19 -7.5l10 -3 q17 0 43 -6t39 -6q28 -2 88 16q5 1 17.5 7.5t17.5 7.5q4 1 10.5 -1t11.5 -1q7 5 13 30q2 12 13.5 33.5t10.5 36.5q0 10 -9.5 21t-10.5 18q-6 24 -19 37q-5 6 -22.5 15t-22.5 16q-3 3 -7 4.5t-9.5 3t-9.5 2.5q-3 1 -9.5 6.5t-13 9t-10.5 2.5q-3 0 -13.5 8t-13.5 7 q-1 0 -7 3.5t-13.5 7.5t-8.5 5q-3 3 -18 6t-16 6q-3 4 -20 13.5t-19 11.5q-8 5 -24 18t-25 19q-12 2 -27 -2q-17 -11 -51 0q-29 6 -56 18q-23 4 -28 8q-4 8 -17 8q-6 1 -36 19q-8 6 -23 17t-25 19.5t-18 18.5q-5 6 -32 33t-36 45q-25 45 -26 47q-20 30 -23 64q-14 95 13 172 q5 10 12.5 9.5t9.5 -11.5q0 -1 1 -6.5t2.5 -7.5t4.5 -4.5t8 1.5q5 2 11 31q0 3 -1.5 15t-1 21.5t4.5 14.5q10 14 35 35t34 31q5 7 21 18l-12 12q-6 6 -22 22.5t-26.5 28.5t-17.5 25q-22 33 -29 47q-22 40 -22 64q-8 107 12 174l9 18q9 19 18.5 33t17.5 18q35 21 70 68 q5 5 19 10t20 11q4 3 15 4.5t15 3.5q56 19 80 24q7 1 41 3t41 3q4 0 13 -3t12 -3q7 0 20.5 1t20.5 1q6 -2 22 -4t23 -8q20 -10 22 -14q1 4 18.5 0t18.5 -4q8 -2 19 -9.5t18 -9.5q39 -13 39 -18q0 -3 29 -17q4 -4 25.5 -17.5t27.5 -25.5q2 -3 6.5 -14.5t9.5 -16.5t13 -6 q12 0 12 37v13.5v13.5t0.5 12t2.5 13t5 11t8 11q6 6 15.5 8t18 0.5t20 -4t14.5 -2.5q8 0 21 -5.5t18 -10.5q2 -6 10 -19q22 -44 25 -51q2 -4 2.5 -12.5t-2.5 -9.5v-37q-8 -40 -11 -117t-4 -92q0 -22 -12 -45t-29 -19q-1 0 -8 -2t-8 -2q-6 -2 -11.5 0.5t-7.5 1.5 q-7 0 -24.5 9t-18.5 16q0 1 -12 11.5t-14 10.5q-7 1 -14.5 11.5t-10.5 11.5q-1 1 -6.5 19.5t-7.5 19.5q-2 2 -9 14.5t-7 16.5q-2 3 -9.5 12t-9.5 12q-2 5 -29 37q-2 3 -5.5 6.5t-7.5 7t-5 4.5q-3 3 -7 8t-8 8.5t-8 6.5q-2 1 -9.5 5t-14 8t-8.5 7q-10 14 -47 23 q-6 2 -18.5 11t-20.5 9q-13 0 -37 8.5t-39 8.5q-19 0 -50 -7t-42 -8q-42 -7 -63.5 -50.5t-10.5 -84.5q13 -44 66 -80q9 -5 38 -17t43 -21q13 -9 32 -16.5t49 -16t38 -10.5q39 -16 51 -17q5 -2 19.5 -10t21.5 -8q30 2 91 -27q7 -3 20.5 -8.5t22 -9t19.5 -10t19 -13.5 q14 -11 33.5 -23t43 -24.5t34.5 -19.5q9 -8 31 -37q12 -14 14 -31q8 -36 23 -53q17 -23 22 -51q15 -63 0 -146q-3 -13 -16 -47q-7 -21 -10 -23q-8 -17 -21 -32q-2 -2 -11.5 -19t-15.5 -18q-2 -1 -7 -9.5t-9 -7.5q1 -1 -1 -2l-5 -2.5t-6.5 -3t-6 -2.5t-3.5 -2 q-18 -18 -23 -22q2 -1 20 -13q7 -6 17.5 -20t13.5 -17q13 -17 15 -26q7 -40 22 -57zM713 483q21 -9 51 -16q5 -1 19.5 -8.5t21.5 -7.5q25 0 41 -7q4 1 14 4t17 3q4 0 15.5 7.5t18.5 8.5q1 0 6 -1.5t8 -2t7 1.5q12 5 12 31q2 11 14.5 32.5t12.5 36.5q-1 8 -11 19t-12 20 q-4 25 -18 35q-5 6 -21.5 15t-21.5 16q-5 5 -15 7t-12 3l-14 10q-14 10 -21 10q-1 0 -12 7t-14 6q-1 0 -7 3.5t-13.5 7.5t-8.5 5q-2 1 -18 4t-19 8q-2 4 -9 8.5t-17.5 10t-12.5 6.5q-7 4 -22 18t-25 19q-15 3 -26 -2q-14 -8 -54 0q-2 1 -5 1.5t-6 1.5t-7 3 q-43 -28 -77.5 -78.5t-25.5 -81.5q15 -48 64 -82q6 -3 37.5 -16t44.5 -21q11 -7 28 -14t29.5 -11t34 -10.5t29.5 -9.5z" />
<glyph unicode="&#xa8;" horiz-adv-x="1024" d="M635 1382q18 42 51.5 72t56.5 23q2 0 17 -2t29.5 -4.5t21.5 -6.5q5 -1 31 -18t30 -21t15 -19t8 -15q-3 -3 2.5 -26.5t7.5 -23.5q3 -48 -24 -86q-4 -8 -10 -15t-10.5 -11.5t-14 -10t-12.5 -7.5t-14.5 -7.5t-12.5 -5.5q-55 -10 -90 4q-46 18 -71.5 51t-25.5 66t15 63z M137 1292q-13 24 -7.5 70.5t30.5 60.5q6 4 22 19t21 18t37 10t36 7q8 0 28.5 -3.5t21.5 -7.5q1 -3 16.5 -12.5t17.5 -9.5q36 -29 50 -78q14 -39 -15 -96q-23 -40 -73 -64q-59 -27 -109 -2t-76 88z" />
</font>
</defs>
</svg>
